STARTFONT 2.1
FONT _CUSTOMER
SIZE 36 72 72
FONTBOUNDINGBOX 18 36 0 0
STARTPROPERTIES 1
BITCOUNT 1
ENDPROPERTIES
CHARS 975
STARTCHAR  0020
ENCODING  32
SWIDTH  1000 0
DWIDTH  9 0
BBX  4 23 3 8
BITMAP
00
00
00
00
00
00
00
00
00
00
00
00
00
00
00
00
00
00
00
00
00
00
00
ENDCHAR
STARTCHAR  0021
ENCODING  33
SWIDTH  1000 0
DWIDTH  9 0
BBX  4 23 3 8
BITMAP
E0
E0
E0
E0
E0
E0
E0
E0
E0
E0
E0
E0
E0
E0
E0
E0
E0
00
00
00
E0
E0
E0
ENDCHAR
STARTCHAR  0022
ENCODING  34
SWIDTH  1000 0
DWIDTH  11 0
BBX  9 8 1 23
BITMAP
E380
E380
E380
E380
E380
E380
E380
4100
ENDCHAR
STARTCHAR  0023
ENCODING  35
SWIDTH  1000 0
DWIDTH  19 0
BBX  17 23 1 8
BITMAP
030700
030700
070600
070600
060E00
060E00
7FFF80
7FFF80
0C0C00
0C1C00
0C1C00
1C1C00
1C1800
1C1800
181800
FFFF00
FFFF00
383000
383000
307000
307000
706000
706000
ENDCHAR
STARTCHAR  0024
ENCODING  36
SWIDTH  1000 0
DWIDTH  18 0
BBX  16 29 1 5
BITMAP
0180
0180
01C0
0FF8
1FFC
399E
718E
718E
7180
7180
7180
3980
3F80
1FF0
07FC
01FE
018E
0187
0187
F187
7187
7187
798E
3DBE
1FFC
0FF0
0180
0180
0180
ENDCHAR
STARTCHAR  0025
ENCODING  37
SWIDTH  1000 0
DWIDTH  29 0
BBX  26 23 2 8
BITMAP
1F007000
7FC06000
71C0C000
E0E0C000
E0E18000
E0E18000
E0E30000
E0E30000
71C60000
7FC60000
1F0C0000
001C7C00
0018FE00
0031C700
00338380
00638380
00638380
00C38380
00C38380
01838780
0181EF00
0300FE00
07007C00
ENDCHAR
STARTCHAR  0026
ENCODING  38
SWIDTH  1000 0
DWIDTH  21 0
BBX  19 23 1 8
BITMAP
03E000
0FF800
0E7800
1C1C00
1C1C00
1C1C00
1C1C00
0E3800
0FF000
07E000
07C000
1FC000
3CE1C0
78F1C0
F079C0
E03FC0
E01F80
E00F80
F00F00
701F80
7C7FC0
1FF9C0
0FE080
ENDCHAR
STARTCHAR  0027
ENCODING  39
SWIDTH  1000 0
DWIDTH  6 0
BBX  4 8 1 23
BITMAP
E0
E0
E0
E0
E0
E0
E0
40
ENDCHAR
STARTCHAR  0028
ENCODING  40
SWIDTH  1000 0
DWIDTH  11 0
BBX  8 29 2 2
BITMAP
06
06
0C
1C
18
38
30
70
70
70
E0
E0
E0
E0
E0
E0
E0
E0
E0
70
70
70
30
38
18
1C
0C
06
06
ENDCHAR
STARTCHAR  0029
ENCODING  41
SWIDTH  1000 0
DWIDTH  11 0
BBX  9 29 1 2
BITMAP
6000
6000
3000
3800
1800
1C00
0C00
0E00
0E00
0E00
0700
0700
0700
0700
0700
0700
0700
0700
0700
0E00
0E00
0E00
0C00
1C00
1800
3800
3000
7000
6000
ENDCHAR
STARTCHAR  002A
ENCODING  42
SWIDTH  1000 0
DWIDTH  19 0
BBX  17 18 1 8
BITMAP
01C000
01C000
01C000
41C100
E1C380
F9CF80
7DDF00
1FFC00
07F000
07F000
1FFC00
7DDF00
F1C780
E1C380
01C000
01C000
01C000
01C000
ENDCHAR
STARTCHAR  002B
ENCODING  43
SWIDTH  1000 0
DWIDTH  19 0
BBX  15 15 2 12
BITMAP
0380
0380
0380
0380
0380
0380
FFFE
FFFE
0380
0380
0380
0380
0380
0380
0380
ENDCHAR
STARTCHAR  002C
ENCODING  44
SWIDTH  1000 0
DWIDTH  9 0
BBX  4 8 2 3
BITMAP
F0
F0
F0
30
30
70
E0
C0
ENDCHAR
STARTCHAR  002D
ENCODING  45
SWIDTH  1000 0
DWIDTH  11 0
BBX  9 3 1 15
BITMAP
0000
FF80
FF80
ENDCHAR
STARTCHAR  002E
ENCODING  46
SWIDTH  1000 0
DWIDTH  9 0
BBX  4 3 3 8
BITMAP
E0
E0
E0
ENDCHAR
STARTCHAR  002F
ENCODING  47
SWIDTH  1000 0
DWIDTH  9 0
BBX  9 23 0 8
BITMAP
0380
0300
0300
0300
0700
0600
0600
0E00
0C00
0C00
0C00
1C00
1800
1800
3800
3000
3000
3000
7000
6000
6000
E000
C000
ENDCHAR
STARTCHAR  0030
ENCODING  48
SWIDTH  1000 0
DWIDTH  17 0
BBX  15 23 1 8
BITMAP
07C0
1FF0
3C78
7838
701C
701C
E00E
E00E
E00E
E00E
E00E
E00E
E00E
E00E
E00E
E00E
E00E
701C
701C
783C
3C78
1FF0
07C0
ENDCHAR
STARTCHAR  0031
ENCODING  49
SWIDTH  1000 0
DWIDTH  18 0
BBX  10 23 3 8
BITMAP
0180
0380
0780
1F80
FF80
FB80
0380
0380
0380
0380
0380
0380
0380
0380
0380
0380
0380
0380
0380
0380
0380
0380
0380
ENDCHAR
STARTCHAR  0032
ENCODING  50
SWIDTH  1000 0
DWIDTH  18 0
BBX  16 23 1 8
BITMAP
07E0
1FF8
3E7C
781C
700E
700E
700E
000E
000E
001C
003C
0078
00F0
01E0
03C0
0780
0F00
1E00
3C00
7800
F000
FFFE
FFFE
ENDCHAR
STARTCHAR  0033
ENCODING  51
SWIDTH  1000 0
DWIDTH  17 0
BBX  15 23 1 8
BITMAP
0FC0
3FF0
7C78
703C
F01C
E01C
001C
003C
0078
03F0
03F0
00F8
001C
001E
000E
000E
E00E
E00E
E01E
701C
7C78
3FF0
0FC0
ENDCHAR
STARTCHAR  0034
ENCODING  52
SWIDTH  1000 0
DWIDTH  18 0
BBX  16 23 1 8
BITMAP
0038
0038
0078
00F8
01F8
01B8
03B8
0738
0638
0E38
1C38
3838
3838
7038
E038
FFFF
FFFF
0038
0038
0038
0038
0038
0038
ENDCHAR
STARTCHAR  0035
ENCODING  53
SWIDTH  1000 0
DWIDTH  17 0
BBX  17 23 0 8
BITMAP
1FFE00
1FFE00
380000
380000
380000
380000
380000
380000
3FF000
3FFC00
3C3E00
300E00
000F00
000700
000700
000700
000700
700700
700E00
381E00
3E7C00
1FF800
07E000
ENDCHAR
STARTCHAR  0036
ENCODING  54
SWIDTH  1000 0
DWIDTH  17 0
BBX  15 23 1 8
BITMAP
07E0
1FF8
3E7C
381C
701C
7000
6000
E000
E7E0
EFF8
FC3C
F01C
E01E
E00E
E00E
E00E
E00E
700E
701C
381C
3E78
1FF0
07E0
ENDCHAR
STARTCHAR  0037
ENCODING  55
SWIDTH  1000 0
DWIDTH  18 0
BBX  15 23 2 8
BITMAP
FFFE
FFFE
000E
001C
001C
001C
0038
0038
0070
0070
00F0
00E0
00E0
01C0
01C0
03C0
0380
0380
0700
0700
0F00
0E00
1E00
ENDCHAR
STARTCHAR  0038
ENCODING  56
SWIDTH  1000 0
DWIDTH  17 0
BBX  16 23 1 8
BITMAP
07C0
1FF0
3C78
783C
701C
701C
701C
783C
3838
1EF0
0FE0
0FE0
3EF8
783C
701C
E00E
E00E
E00E
E00E
701C
7C7C
3FF8
0FE0
ENDCHAR
STARTCHAR  0039
ENCODING  57
SWIDTH  1000 0
DWIDTH  17 0
BBX  15 23 1 8
BITMAP
0FC0
1FF0
3CF8
7038
F01C
E01C
E00E
E00E
E00E
E00E
701E
787E
3FEE
1FCE
000E
000E
001C
E01C
701C
7038
3CF8
1FF0
0FC0
ENDCHAR
STARTCHAR  003A
ENCODING  58
SWIDTH  1000 0
DWIDTH  9 0
BBX  4 17 3 8
BITMAP
E0
E0
E0
00
00
00
00
00
00
00
00
00
00
00
E0
E0
E0
ENDCHAR
STARTCHAR  003B
ENCODING  59
SWIDTH  1000 0
DWIDTH  9 0
BBX  3 22 3 3
BITMAP
E0
E0
E0
00
00
00
00
00
00
00
00
00
00
00
E0
E0
E0
60
60
60
C0
80
ENDCHAR
STARTCHAR  003C
ENCODING  60
SWIDTH  1000 0
DWIDTH  19 0
BBX  15 17 2 11
BITMAP
0000
0002
001E
007E
01F8
0FE0
3F00
FC00
F000
F800
7E00
0FC0
03F0
00FE
001E
0006
0000
ENDCHAR
STARTCHAR  003D
ENCODING  61
SWIDTH  1000 0
DWIDTH  19 0
BBX  15 9 2 16
BITMAP
FFFE
FFFE
0000
0000
0000
0000
0000
FFFE
FFFE
ENDCHAR
STARTCHAR  003E
ENCODING  62
SWIDTH  1000 0
DWIDTH  19 0
BBX  15 17 2 11
BITMAP
0000
8000
F000
FC00
3F00
0FE0
01F8
007E
001E
003E
00FC
07F0
1F80
FE00
F800
C000
0000
ENDCHAR
STARTCHAR  003F
ENCODING  63
SWIDTH  1000 0
DWIDTH  18 0
BBX  15 23 1 8
BITMAP
07E0
1FF8
3C7C
701C
700E
E00E
E00E
000E
001E
003C
0078
00F0
01E0
01C0
0380
0380
0380
0380
0000
0000
0380
0380
0380
ENDCHAR
STARTCHAR  0040
ENCODING  64
SWIDTH  1000 0
DWIDTH  33 0
BBX  29 29 2 2
BITMAP
001FF000
00FFFE00
01F83F00
07C00780
0F0001C0
1E0000E0
1C0F9C70
383FDC30
7078FC30
60F07818
60E03818
E1C03818
C1C03818
C3807018
C3807018
C3807038
C3807030
C380E070
C380E060
E3C1E0E0
61E7E7C0
70FEFF80
307C7C00
38000000
1E000000
0F800000
03F01E00
00FFFE00
001FF000
ENDCHAR
STARTCHAR  0041
ENCODING  65
SWIDTH  1000 0
DWIDTH  21 0
BBX  23 23 -1 8
BITMAP
003800
007C00
007C00
00EC00
00EE00
00CE00
01C700
01C700
038700
038380
038380
0701C0
0701C0
0701E0
0FFFE0
0FFFE0
1E00F0
1C0070
1C0078
380038
380038
38003C
70001C
ENDCHAR
STARTCHAR  0042
ENCODING  66
SWIDTH  1000 0
DWIDTH  22 0
BBX  18 23 3 8
BITMAP
FFF000
FFFC00
E03E00
E00E00
E00700
E00700
E00700
E00700
E00E00
E01E00
FFFC00
FFFC00
E03E00
E00700
E00380
E00380
E00380
E00380
E00380
E00700
E03F00
FFFE00
FFF000
ENDCHAR
STARTCHAR  0043
ENCODING  67
SWIDTH  1000 0
DWIDTH  23 0
BBX  20 23 1 8
BITMAP
01FC00
07FF00
1F8FC0
1C01C0
3800E0
7000F0
700070
F00000
E00000
E00000
E00000
E00000
E00000
E00000
E00000
F00000
700070
7000F0
3800E0
3C01E0
1F8FC0
07FF00
01FC00
ENDCHAR
STARTCHAR  0044
ENCODING  68
SWIDTH  1000 0
DWIDTH  24 0
BBX  19 23 3 8
BITMAP
FFF000
FFFC00
E03F00
E00780
E00380
E001C0
E001C0
E001E0
E000E0
E000E0
E000E0
E000E0
E000E0
E000E0
E000E0
E001E0
E001C0
E001C0
E00380
E00780
E03F00
FFFC00
FFF000
ENDCHAR
STARTCHAR  0045
ENCODING  69
SWIDTH  1000 0
DWIDTH  22 0
BBX  17 23 3 8
BITMAP
FFFF80
FFFF80
E00000
E00000
E00000
E00000
E00000
E00000
E00000
E00000
FFFF00
FFFF00
E00000
E00000
E00000
E00000
E00000
E00000
E00000
E00000
E00000
FFFF80
FFFF80
ENDCHAR
STARTCHAR  0046
ENCODING  70
SWIDTH  1000 0
DWIDTH  20 0
BBX  16 23 3 8
BITMAP
FFFF
FFFF
E000
E000
E000
E000
E000
E000
E000
E000
FFFC
FFFC
E000
E000
E000
E000
E000
E000
E000
E000
E000
E000
E000
ENDCHAR
STARTCHAR  0047
ENCODING  71
SWIDTH  1000 0
DWIDTH  24 0
BBX  22 23 1 8
BITMAP
01FE00
07FF80
0F8FC0
1E01E0
3800F0
780070
700078
700000
E00000
E00000
E00000
E00FF8
E00FF8
E00038
E00038
700038
700038
780038
380078
1E00F8
0F87F8
07FFB8
01FE18
ENDCHAR
STARTCHAR  0048
ENCODING  72
SWIDTH  1000 0
DWIDTH  24 0
BBX  18 23 3 8
BITMAP
E001C0
E001C0
E001C0
E001C0
E001C0
E001C0
E001C0
E001C0
E001C0
E001C0
FFFFC0
FFFFC0
E001C0
E001C0
E001C0
E001C0
E001C0
E001C0
E001C0
E001C0
E001C0
E001C0
E001C0
ENDCHAR
STARTCHAR  0049
ENCODING  73
SWIDTH  1000 0
DWIDTH  9 0
BBX  4 23 3 8
BITMAP
E0
E0
E0
E0
E0
E0
E0
E0
E0
E0
E0
E0
E0
E0
E0
E0
E0
E0
E0
E0
E0
E0
E0
ENDCHAR
STARTCHAR  004A
ENCODING  74
SWIDTH  1000 0
DWIDTH  17 0
BBX  13 23 1 8
BITMAP
0038
0038
0038
0038
0038
0038
0038
0038
0038
0038
0038
0038
0038
0038
0038
0038
E038
E038
E038
F070
78F0
3FE0
1F80
ENDCHAR
STARTCHAR  004B
ENCODING  75
SWIDTH  1000 0
DWIDTH  22 0
BBX  19 23 3 8
BITMAP
E003C0
E00780
E00F00
E01E00
E03C00
E07800
E0F000
E1E000
E3C000
E78000
EF8000
FFC000
FDE000
F8F000
F07000
E07800
E03C00
E01E00
E00E00
E00F00
E00780
E003C0
E003C0
ENDCHAR
STARTCHAR  004C
ENCODING  76
SWIDTH  1000 0
DWIDTH  18 0
BBX  14 23 3 8
BITMAP
E000
E000
E000
E000
E000
E000
E000
E000
E000
E000
E000
E000
E000
E000
E000
E000
E000
E000
E000
E000
FFFC
FFFC
FFFC
ENDCHAR
STARTCHAR  004D
ENCODING  77
SWIDTH  1000 0
DWIDTH  28 0
BBX  22 23 3 8
BITMAP
F8007C
F8007C
FC00FC
FC00FC
FC00FC
EE01DC
EE01DC
EE01DC
E6039C
E7039C
E7039C
E3071C
E3871C
E3871C
E1861C
E1CE1C
E1CE1C
E0CC1C
E0FC1C
E0FC1C
E0781C
E0781C
E0781C
ENDCHAR
STARTCHAR  004E
ENCODING  78
SWIDTH  1000 0
DWIDTH  24 0
BBX  19 23 3 8
BITMAP
F001C0
F001C0
F801C0
FC01C0
FC01C0
FE01C0
EE01C0
E701C0
E781C0
E381C0
E1C1C0
E1E1C0
E0E1C0
E071C0
E079C0
E039C0
E01DC0
E01FC0
E00FC0
E007C0
E007C0
E003C0
E003C0
ENDCHAR
STARTCHAR  004F
ENCODING  79
SWIDTH  1000 0
DWIDTH  24 0
BBX  22 23 1 8
BITMAP
01FC00
07FF80
0F87C0
1E01E0
3C0070
780078
700038
700038
E0001C
E0001C
E0001C
E0001C
E0001C
E0001C
E0001C
700038
700038
780078
380070
1E01E0
0F87C0
07FF80
01FE00
ENDCHAR
STARTCHAR  0050
ENCODING  80
SWIDTH  1000 0
DWIDTH  21 0
BBX  18 23 3 8
BITMAP
FFF800
FFFE00
E01F00
E00700
E00380
E00380
E00380
E00380
E00380
E00700
E00F00
FFFE00
FFF800
E00000
E00000
E00000
E00000
E00000
E00000
E00000
E00000
E00000
E00000
ENDCHAR
STARTCHAR  0051
ENCODING  81
SWIDTH  1000 0
DWIDTH  24 0
BBX  23 25 1 6
BITMAP
01FC00
07FF80
0F87C0
1E01E0
3C00F0
780078
700038
700038
E0001C
E0001C
E0001C
E0001C
E0001C
E0001C
E0001C
70003C
700238
780778
3807F0
1E03F0
0F87F0
07FFF8
01FE3C
000018
000000
ENDCHAR
STARTCHAR  0052
ENCODING  82
SWIDTH  1000 0
DWIDTH  23 0
BBX  19 23 3 8
BITMAP
FFFC00
FFFF00
E00F80
E00380
E001C0
E001C0
E001C0
E001C0
E001C0
E00380
E00F80
FFFE00
FFF800
E01E00
E00E00
E00700
E00700
E00380
E00380
E003C0
E001C0
E001C0
E001E0
ENDCHAR
STARTCHAR  0053
ENCODING  83
SWIDTH  1000 0
DWIDTH  21 0
BBX  18 23 1 8
BITMAP
03F800
0FFE00
3E1F00
380780
700380
700380
700380
780000
7C0000
3FC000
1FFC00
07FF00
00FF80
000F80
0003C0
0001C0
6001C0
7001C0
7001C0
380380
3F1F00
0FFE00
03F800
ENDCHAR
STARTCHAR  0054
ENCODING  84
SWIDTH  1000 0
DWIDTH  20 0
BBX  18 23 1 8
BITMAP
FFFFC0
FFFFC0
00E000
00E000
00E000
00E000
00E000
00E000
00E000
00E000
00E000
00E000
00E000
00E000
00E000
00E000
00E000
00E000
00E000
00E000
00E000
00E000
00E000
ENDCHAR
STARTCHAR  0055
ENCODING  85
SWIDTH  1000 0
DWIDTH  24 0
BBX  18 23 3 8
BITMAP
E001C0
E001C0
E001C0
E001C0
E001C0
E001C0
E001C0
E001C0
E001C0
E001C0
E001C0
E001C0
E001C0
E001C0
E001C0
E001C0
E001C0
F003C0
700380
780780
3F3F00
1FFE00
07F800
ENDCHAR
STARTCHAR  0056
ENCODING  86
SWIDTH  1000 0
DWIDTH  21 0
BBX  22 23 0 8
BITMAP
F00038
700078
700070
380070
3800E0
3800E0
1C01E0
1C01C0
1E01C0
0E0380
0E0380
070380
070700
070700
038700
038E00
018E00
01DC00
01DC00
00FC00
00F800
007800
007000
ENDCHAR
STARTCHAR  0057
ENCODING  87
SWIDTH  1000 0
DWIDTH  30 0
BBX  30 23 0 8
BITMAP
7007801C
70078038
7007C038
700FC038
380EC038
380CC070
380CE070
381CE070
1C1C6070
1C1870E0
1C3870E0
0C3870E0
0E3830C0
0E3039C0
0E7039C0
067019C0
07601980
07E01F80
07E01F80
03E00F80
03C00F00
03C00F00
01C00F00
ENDCHAR
STARTCHAR  0058
ENCODING  88
SWIDTH  1000 0
DWIDTH  21 0
BBX  22 23 0 8
BITMAP
7800F0
3C00E0
1C01E0
0E03C0
0F0780
078700
038F00
03DE00
01FC00
00F800
007800
00F800
00FC00
01FC00
03CE00
038F00
070700
0F0380
1E03C0
1C01E0
3C00E0
7800F0
700078
ENDCHAR
STARTCHAR  0059
ENCODING  89
SWIDTH  1000 0
DWIDTH  21 0
BBX  22 23 0 8
BITMAP
F00078
7800F0
3800E0
3C01E0
1E03C0
0E0380
0F0780
078F00
038E00
03DE00
01DC00
00F800
00F800
007000
007000
007000
007000
007000
007000
007000
007000
007000
007000
ENDCHAR
STARTCHAR  005A
ENCODING  90
SWIDTH  1000 0
DWIDTH  20 0
BBX  18 23 1 8
BITMAP
3FFFC0
3FFFC0
0003C0
000380
000700
000F00
001E00
003C00
003800
007800
00F000
01E000
03C000
03C000
078000
0F0000
1E0000
3E0000
3C0000
780000
F00000
FFFFC0
FFFFC0
ENDCHAR
STARTCHAR  005B
ENCODING  91
SWIDTH  1000 0
DWIDTH  9 0
BBX  6 29 2 2
BITMAP
FC
FC
E0
E0
E0
E0
E0
E0
E0
E0
E0
E0
E0
E0
E0
E0
E0
E0
E0
E0
E0
E0
E0
E0
E0
E0
E0
FC
FC
ENDCHAR
STARTCHAR  005C
ENCODING  92
SWIDTH  1000 0
DWIDTH  9 0
BBX  9 23 0 8
BITMAP
C000
E000
6000
6000
7000
3000
3000
3000
3800
1800
1800
1C00
0C00
0C00
0C00
0E00
0600
0600
0700
0300
0300
0300
0380
ENDCHAR
STARTCHAR  005D
ENCODING  93
SWIDTH  1000 0
DWIDTH  9 0
BBX  8 29 0 2
BITMAP
FE
FE
0E
0E
0E
0E
0E
0E
0E
0E
0E
0E
0E
0E
0E
0E
0E
0E
0E
0E
0E
0E
0E
0E
0E
0E
0E
FE
FE
ENDCHAR
STARTCHAR  005E
ENCODING  94
SWIDTH  1000 0
DWIDTH  15 0
BBX  13 10 1 21
BITMAP
0700
0700
0F80
1DC0
1DC0
38E0
38E0
7070
7070
E038
ENDCHAR
STARTCHAR  005F
ENCODING  95
SWIDTH  1000 0
DWIDTH  18 0
BBX  18 2 0 3
BITMAP
FFFFC0
FFFFC0
ENDCHAR
STARTCHAR  0060
ENCODING  96
SWIDTH  1000 0
DWIDTH  11 0
BBX  7 4 1 27
BITMAP
70
38
38
1C
ENDCHAR
STARTCHAR  0061
ENCODING  97
SWIDTH  1000 0
DWIDTH  17 0
BBX  15 17 1 8
BITMAP
0FE0
3FF8
7C78
701C
701C
001C
07FC
3FFC
7E1C
701C
E01C
E01C
E01C
E03C
78FC
7FDC
1F9C
ENDCHAR
STARTCHAR  0062
ENCODING  98
SWIDTH  1000 0
DWIDTH  17 0
BBX  15 23 2 8
BITMAP
E000
E000
E000
E000
E000
E000
E7C0
EFF0
FCF0
F038
E038
E01C
E01C
E01C
E01C
E01C
E01C
E01C
E038
F038
FCF0
FFE0
E7C0
ENDCHAR
STARTCHAR  0063
ENCODING  99
SWIDTH  1000 0
DWIDTH  16 0
BBX  15 17 1 8
BITMAP
07E0
1FF8
3E78
781C
701C
E000
E000
E000
E000
E000
E000
E000
701C
781C
3E7C
1FF8
07E0
ENDCHAR
STARTCHAR  0064
ENCODING  100
SWIDTH  1000 0
DWIDTH  18 0
BBX  16 23 1 8
BITMAP
000E
000E
000E
000E
000E
000E
07CE
1FFE
3E7E
781E
700E
E00E
E00E
E00E
E00E
E00E
E00E
E00E
700E
703E
3C7E
1FEE
0FCE
ENDCHAR
STARTCHAR  0065
ENCODING  101
SWIDTH  1000 0
DWIDTH  18 0
BBX  16 17 1 8
BITMAP
07E0
1FF8
3C7C
781C
700E
E00E
E00E
FFFE
FFFF
E000
E000
E000
700E
781E
3E7C
1FF8
07E0
ENDCHAR
STARTCHAR  0066
ENCODING  102
SWIDTH  1000 0
DWIDTH  12 0
BBX  10 23 1 8
BITMAP
0FC0
1FC0
3C00
3800
3800
3800
FF80
FF80
3800
3800
3800
3800
3800
3800
3800
3800
3800
3800
3800
3800
3800
3800
3800
ENDCHAR
STARTCHAR  0067
ENCODING  103
SWIDTH  1000 0
DWIDTH  18 0
BBX  16 23 1 2
BITMAP
07CE
1FFE
3E7E
781E
700E
E00E
E00E
E00E
E00E
E00E
E00E
E00E
700E
703E
3C7E
1FEE
0FCE
000E
700E
701C
3C7C
1FF8
0FE0
ENDCHAR
STARTCHAR  0068
ENCODING  104
SWIDTH  1000 0
DWIDTH  18 0
BBX  14 23 2 8
BITMAP
E000
E000
E000
E000
E000
E000
E3E0
EFF0
FC78
F83C
E01C
E01C
E01C
E01C
E01C
E01C
E01C
E01C
E01C
E01C
E01C
E01C
E01C
ENDCHAR
STARTCHAR  0069
ENCODING  105
SWIDTH  1000 0
DWIDTH  7 0
BBX  4 23 2 8
BITMAP
E0
E0
E0
00
00
00
E0
E0
E0
E0
E0
E0
E0
E0
E0
E0
E0
E0
E0
E0
E0
E0
E0
ENDCHAR
STARTCHAR  006A
ENCODING  106
SWIDTH  1000 0
DWIDTH  10 0
BBX  8 29 1 2
BITMAP
0E
0E
0E
00
00
00
0E
0E
0E
0E
0E
0E
0E
0E
0E
0E
0E
0E
0E
0E
0E
0E
0E
0E
0E
0E
DE
FC
F8
ENDCHAR
STARTCHAR  006B
ENCODING  107
SWIDTH  1000 0
DWIDTH  16 0
BBX  14 23 2 8
BITMAP
E000
E000
E000
E000
E000
E000
E078
E0F0
E1E0
E3C0
E780
EF00
FE00
FF00
FF00
F380
E3C0
E1C0
E1E0
E0F0
E070
E078
E038
ENDCHAR
STARTCHAR  006C
ENCODING  108
SWIDTH  1000 0
DWIDTH  7 0
BBX  4 23 2 8
BITMAP
E0
E0
E0
E0
E0
E0
E0
E0
E0
E0
E0
E0
E0
E0
E0
E0
E0
E0
E0
E0
E0
E0
E0
ENDCHAR
STARTCHAR  006D
ENCODING  109
SWIDTH  1000 0
DWIDTH  27 0
BBX  23 17 2 8
BITMAP
E3C1F0
EFF3FC
FCF73C
F03C1E
E0380E
E0380E
E0380E
E0380E
E0380E
E0380E
E0380E
E0380E
E0380E
E0380E
E0380E
E0380E
E0380E
ENDCHAR
STARTCHAR  006E
ENCODING  110
SWIDTH  1000 0
DWIDTH  18 0
BBX  14 17 2 8
BITMAP
E3E0
EFF0
FC78
F83C
E01C
E01C
E01C
E01C
E01C
E01C
E01C
E01C
E01C
E01C
E01C
E01C
E01C
ENDCHAR
STARTCHAR  006F
ENCODING  111
SWIDTH  1000 0
DWIDTH  18 0
BBX  16 17 1 8
BITMAP
07E0
1FF8
3E7C
781E
700E
E00F
E007
E007
E007
E007
E007
E007
700E
781E
3E7C
1FF8
07E0
ENDCHAR
STARTCHAR  0070
ENCODING  112
SWIDTH  1000 0
DWIDTH  17 0
BBX  15 23 2 2
BITMAP
E7C0
EFF0
FCF0
F038
E038
E01C
E01C
E01C
E01C
E01C
E01C
E01C
E038
F038
FCF0
FFE0
E7C0
E000
E000
E000
E000
E000
E000
ENDCHAR
STARTCHAR  0071
ENCODING  113
SWIDTH  1000 0
DWIDTH  18 0
BBX  16 23 1 2
BITMAP
07CE
1FFE
3E7E
781E
700E
E00E
E00E
E00E
E00E
E00E
E00E
E00E
700E
703E
3C7E
1FEE
0FCE
000E
000E
000E
000E
000E
000E
ENDCHAR
STARTCHAR  0072
ENCODING  114
SWIDTH  1000 0
DWIDTH  11 0
BBX  9 17 2 8
BITMAP
E780
EF80
FC80
F000
E000
E000
E000
E000
E000
E000
E000
E000
E000
E000
E000
E000
E000
ENDCHAR
STARTCHAR  0073
ENCODING  115
SWIDTH  1000 0
DWIDTH  16 0
BBX  14 17 1 8
BITMAP
1FC0
7FF0
78F8
E038
E038
E000
FC00
7FC0
1FF0
03F8
003C
001C
E01C
F03C
7878
3FF0
1FC0
ENDCHAR
STARTCHAR  0074
ENCODING  116
SWIDTH  1000 0
DWIDTH  10 0
BBX  8 21 1 8
BITMAP
38
38
38
38
FF
FF
38
38
38
38
38
38
38
38
38
38
38
38
3C
1F
0F
ENDCHAR
STARTCHAR  0075
ENCODING  117
SWIDTH  1000 0
DWIDTH  18 0
BBX  14 17 2 8
BITMAP
E01C
E01C
E01C
E01C
E01C
E01C
E01C
E01C
E01C
E01C
E01C
E01C
E03C
F07C
7DFC
7FDC
1F1C
ENDCHAR
STARTCHAR  0076
ENCODING  118
SWIDTH  1000 0
DWIDTH  16 0
BBX  16 17 0 8
BITMAP
700E
700E
700E
381C
381C
381C
1C38
1C38
0C30
0E70
0E70
0660
07E0
07E0
03C0
03C0
03C0
ENDCHAR
STARTCHAR  0077
ENCODING  119
SWIDTH  1000 0
DWIDTH  23 0
BBX  23 17 0 8
BITMAP
F0380E
70381E
707C1C
707C1C
707C1C
386C38
38EE38
38EE38
18C630
1DC770
1DC770
0DC370
0D83E0
0F83E0
0F83E0
0701C0
0701C0
ENDCHAR
STARTCHAR  0078
ENCODING  120
SWIDTH  1000 0
DWIDTH  16 0
BBX  16 17 0 8
BITMAP
781E
381C
3C3C
1E78
0E70
07F0
07E0
03C0
03C0
07E0
07E0
0E70
1E78
1C38
381C
781E
700E
ENDCHAR
STARTCHAR  0079
ENCODING  121
SWIDTH  1000 0
DWIDTH  16 0
BBX  16 23 0 2
BITMAP
700F
700E
380E
381E
381C
1C1C
1C38
0C38
0E38
0E70
0770
0760
03E0
03E0
03C0
01C0
01C0
0380
0380
0700
3F00
3E00
3C00
ENDCHAR
STARTCHAR  007A
ENCODING  122
SWIDTH  1000 0
DWIDTH  17 0
BBX  15 17 1 8
BITMAP
FFFC
FFFC
003C
0078
00F0
01E0
01C0
03C0
0780
0F00
1E00
1C00
3800
7000
F000
FFFE
FFFE
ENDCHAR
STARTCHAR  007B
ENCODING  123
SWIDTH  1000 0
DWIDTH  11 0
BBX  9 29 1 2
BITMAP
0780
0F80
1E00
1C00
1C00
1C00
1C00
1C00
1C00
1C00
1C00
3800
7800
E000
F000
3800
3800
1C00
1C00
1C00
1C00
1C00
1C00
1C00
1C00
1C00
1E00
0F80
0780
ENDCHAR
STARTCHAR  007C
ENCODING  124
SWIDTH  1000 0
DWIDTH  9 0
BBX  4 29 3 2
BITMAP
E0
E0
E0
E0
E0
E0
E0
E0
E0
E0
E0
E0
E0
E0
E0
E0
E0
E0
E0
E0
E0
E0
E0
E0
E0
E0
E0
E0
E0
ENDCHAR
STARTCHAR  007D
ENCODING  125
SWIDTH  1000 0
DWIDTH  11 0
BBX  9 29 1 2
BITMAP
F000
F800
3C00
1C00
1C00
1C00
1C00
1C00
1C00
1C00
1C00
0E00
0F00
0380
0780
0E00
0E00
1C00
1C00
1C00
1C00
1C00
1C00
1C00
1C00
1C00
3C00
F800
F000
ENDCHAR
STARTCHAR  007E
ENCODING  126
SWIDTH  1000 0
DWIDTH  18 0
BBX  16 7 1 25
BITMAP
0000
3E01
FFC3
FFFF
C3FF
807C
0000
ENDCHAR
STARTCHAR  00A0
ENCODING  160
SWIDTH  1000 0
DWIDTH  9 0
BBX  0 0 0 8
BITMAP
ENDCHAR
STARTCHAR  00A1
ENCODING  161
SWIDTH  1000 0
DWIDTH  9 0
BBX  4 23 3 2
BITMAP
E0
E0
E0
00
00
00
E0
E0
E0
E0
E0
E0
E0
E0
E0
E0
E0
E0
E0
E0
E0
E0
E0
ENDCHAR
STARTCHAR  00A2
ENCODING  162
SWIDTH  1000 0
DWIDTH  18 0
BBX  15 25 2 4
BITMAP
0000
0030
0020
0060
07E0
1FF8
3EFC
78DC
70DC
E080
E180
E180
E180
E300
E300
E300
721C
7E1C
3E7C
1FF8
0FE0
0C00
0C00
0800
0000
ENDCHAR
STARTCHAR  00A3
ENCODING  163
SWIDTH  1000 0
DWIDTH  19 0
BBX  16 23 1 8
BITMAP
03F0
0FFC
1F3E
3C0F
380F
3807
3800
3800
3800
3800
FFC0
FFC0
1C00
1C00
1C00
1C00
1C00
1800
3000
7F00
FFE7
F1FF
803E
ENDCHAR
STARTCHAR  00A4
ENCODING  164
SWIDTH  1000 0
DWIDTH  17 0
BBX  17 17 0 11
BITMAP
000000
300600
7BEF00
3FFE00
1E3C00
1C1C00
380E00
380E00
380E00
380E00
381E00
1C1C00
1F7C00
3FFE00
7BEF00
300200
000000
ENDCHAR
STARTCHAR  00A5
ENCODING  165
SWIDTH  1000 0
DWIDTH  18 0
BBX  19 23 0 8
BITMAP
E003C0
700380
700780
380F00
380E00
1C1E00
1C1C00
0E3C00
0E3800
077000
07F000
7FFF80
7FFF80
01C000
01C000
01C000
7FFF80
7FFF80
01C000
01C000
01C000
01C000
01C000
ENDCHAR
STARTCHAR  00A6
ENCODING  166
SWIDTH  1000 0
DWIDTH  9 0
BBX  4 29 3 2
BITMAP
E0
E0
E0
E0
E0
E0
E0
E0
E0
E0
E0
E0
00
00
00
00
00
E0
E0
E0
E0
E0
E0
E0
E0
E0
E0
E0
E0
ENDCHAR
STARTCHAR  00A7
ENCODING  167
SWIDTH  1000 0
DWIDTH  17 0
BBX  16 29 1 2
BITMAP
0FC0
1FF0
3C78
7038
703C
7000
7800
3C00
1F00
3FC0
73E0
E1F8
E07C
E03E
F01E
780E
7C0E
1F0C
0FDC
03F0
01F0
0078
003C
001C
701C
703C
3C78
1FF0
07E0
ENDCHAR
STARTCHAR  00A8
ENCODING  168
SWIDTH  1000 0
DWIDTH  11 0
BBX  9 3 1 28
BITMAP
E380
E380
E380
ENDCHAR
STARTCHAR  00A9
ENCODING  169
SWIDTH  1000 0
DWIDTH  24 0
BBX  24 23 0 8
BITMAP
00FF00
03FFC0
07C3E0
1E0078
387E38
30FF0C
71C38E
638186
C30007
C30003
C30003
C30003
C30003
C30003
C18187
61C386
70FF0E
303E0C
380038
1E0078
07C3E0
03FFC0
00FF00
ENDCHAR
STARTCHAR  00AA
ENCODING  170
SWIDTH  1000 0
DWIDTH  12 0
BBX  10 16 1 15
BITMAP
1F00
7F80
73C0
60C0
00C0
3FC0
7FC0
E0C0
C0C0
C3C0
FFC0
7EC0
0000
0000
7FC0
7FC0
ENDCHAR
STARTCHAR  00AB
ENCODING  171
SWIDTH  1000 0
DWIDTH  18 0
BBX  14 14 2 9
BITMAP
0618
0E38
1C70
1870
38E0
71C0
71C0
71C0
71C0
38E0
1870
1C30
0E38
0618
ENDCHAR
STARTCHAR  00AC
ENCODING  172
SWIDTH  1000 0
DWIDTH  19 0
BBX  17 10 1 15
BITMAP
FFFF00
FFFF00
000700
000700
000700
000700
000700
000700
000700
000000
ENDCHAR
STARTCHAR  00AD
ENCODING  173
SWIDTH  1000 0
DWIDTH  11 0
BBX  9 3 1 15
BITMAP
0000
FF80
FF80
ENDCHAR
STARTCHAR  00AE
ENCODING  174
SWIDTH  1000 0
DWIDTH  24 0
BBX  24 23 0 8
BITMAP
00FF00
03FFC0
07C3E0
1E0078
380038
31FE0C
71FF0E
618706
C18307
C18303
C18703
C1FF03
C1FC03
C18C03
C18607
618306
71830E
31838C
380038
1E0078
07C3E0
03FFC0
00FF00
ENDCHAR
STARTCHAR  00AF
ENCODING  175
SWIDTH  1000 0
DWIDTH  16 0
BBX  16 2 0 33
BITMAP
FFFF
FFFF
ENDCHAR
STARTCHAR  00B0
ENCODING  176
SWIDTH  1000 0
DWIDTH  13 0
BBX  9 9 2 22
BITMAP
3C00
7F00
E300
C180
C180
E380
7F00
3E00
0000
ENDCHAR
STARTCHAR  00B1
ENCODING  177
SWIDTH  1000 0
DWIDTH  19 0
BBX  15 20 2 8
BITMAP
0380
0380
0380
0380
0380
0380
0380
FFFE
FFFE
0380
0380
0380
0380
0380
0380
0000
0000
0000
FFFE
FFFE
ENDCHAR
STARTCHAR  00B2
ENCODING  178
SWIDTH  1000 0
DWIDTH  12 0
BBX  12 13 0 18
BITMAP
0F80
3FC0
79E0
70E0
00E0
01C0
03C0
0700
1C00
3800
7FE0
7FE0
0000
ENDCHAR
STARTCHAR  00B3
ENCODING  179
SWIDTH  1000 0
DWIDTH  11 0
BBX  11 13 0 18
BITMAP
1F00
7F80
73C0
01C0
03C0
0F80
0F00
03C0
01C0
E1C0
E3C0
7F80
1E00
ENDCHAR
STARTCHAR  00B4
ENCODING  180
SWIDTH  1000 0
DWIDTH  11 0
BBX  7 4 3 27
BITMAP
3C
38
70
60
ENDCHAR
STARTCHAR  00B5
ENCODING  181
SWIDTH  1000 0
DWIDTH  18 0
BBX  16 23 2 2
BITMAP
E038
E038
E038
E038
E038
E038
E038
E038
E038
E038
E038
E038
E038
E078
F9FC
FFBF
FF1F
E000
E000
E000
E000
E000
E000
ENDCHAR
STARTCHAR  00B6
ENCODING  182
SWIDTH  1000 0
DWIDTH  18 0
BBX  18 29 0 2
BITMAP
07FFC0
1FFFC0
3FC700
7FC700
7FC700
7FC700
FFC700
7FC700
7FC700
7FC700
3FC700
1FC700
07C700
01C700
01C700
01C700
01C700
01C700
01C700
01C700
01C700
01C700
01C700
01C700
01C700
01C700
01C700
01C700
01C700
ENDCHAR
STARTCHAR  00B7
ENCODING  183
SWIDTH  1000 0
DWIDTH  9 0
BBX  4 3 3 18
BITMAP
E0
E0
E0
ENDCHAR
STARTCHAR  00B8
ENCODING  184
SWIDTH  1000 0
DWIDTH  11 0
BBX  7 7 2 2
BITMAP
00
30
3C
0E
0E
FE
F8
ENDCHAR
STARTCHAR  00B9
ENCODING  185
SWIDTH  1000 0
DWIDTH  11 0
BBX  6 12 2 19
BITMAP
0C
0C
3C
FC
FC
1C
1C
1C
1C
1C
1C
1C
ENDCHAR
STARTCHAR  00BA
ENCODING  186
SWIDTH  1000 0
DWIDTH  12 0
BBX  11 17 1 14
BITMAP
1E00
3F80
7380
E1C0
C0C0
C0C0
C0C0
C0C0
E1C0
7380
7F80
1E00
0000
0000
7FC0
7FC0
0000
ENDCHAR
STARTCHAR  00BB
ENCODING  187
SWIDTH  1000 0
DWIDTH  18 0
BBX  14 14 2 9
BITMAP
E180
71C0
30C0
38E0
1C70
1C38
0E38
0E38
1C38
1C70
38E0
30C0
71C0
E180
ENDCHAR
STARTCHAR  00BC
ENCODING  188
SWIDTH  1000 0
DWIDTH  26 0
BBX  23 23 2 8
BITMAP
0C0030
0C0070
3C00E0
FC00C0
FC0180
1C0380
1C0300
1C0600
1C0E00
1C0C00
1C1800
003818
007038
006078
00E078
01C0D8
018198
030318
070718
0607FE
0C07FE
1C0018
180018
ENDCHAR
STARTCHAR  00BD
ENCODING  189
SWIDTH  1000 0
DWIDTH  27 0
BBX  24 23 2 8
BITMAP
0C0070
0C0060
3C00C0
FC01C0
FC0180
1C0300
1C0700
1C0E00
1C0C00
1C1C00
1C3800
00307C
0061FE
00E18F
00C007
018007
03800E
07001C
060078
0E00E0
1C01C0
1803FF
3003FF
ENDCHAR
STARTCHAR  00BE
ENCODING  190
SWIDTH  1000 0
DWIDTH  27 0
BBX  25 23 1 8
BITMAP
3F000C00
7FC01C00
61C01800
03C03000
0F007000
0F80E000
03C0C000
01C1C000
E1C38000
63C30000
7F860000
1E0E0600
001C0E00
00181E00
00381E00
00703600
00606600
00C0C600
01C1C600
0381FF80
0301FF80
07000600
0E000600
ENDCHAR
STARTCHAR  00BF
ENCODING  191
SWIDTH  1000 0
DWIDTH  18 0
BBX  15 23 2 2
BITMAP
0380
0380
0380
0000
0000
0380
0380
0380
0380
0700
0F00
1E00
3C00
7800
F000
E000
E00E
E00E
E01C
701C
7C78
3FF0
0FC0
ENDCHAR
STARTCHAR  00C0
ENCODING  192
SWIDTH  1000 0
DWIDTH  21 0
BBX  23 29 -1 8
BITMAP
00E000
007000
003000
003800
000000
000000
003800
007C00
007C00
00EC00
00EE00
00CE00
01C700
01C700
038700
038380
038380
0701C0
0701C0
0701E0
0FFFE0
0FFFE0
1E00F0
1C0070
1C0078
380038
380038
38003C
70001C
ENDCHAR
STARTCHAR  00C1
ENCODING  193
SWIDTH  1000 0
DWIDTH  21 0
BBX  23 29 -1 8
BITMAP
001E00
001C00
003800
003000
000000
000000
003800
007C00
007C00
00EC00
00EE00
00CE00
01C700
01C700
038700
038380
038380
0701C0
0701C0
0701E0
0FFFE0
0FFFE0
1E00F0
1C0070
1C0078
380038
380038
38003C
70001C
ENDCHAR
STARTCHAR  00C2
ENCODING  194
SWIDTH  1000 0
DWIDTH  21 0
BBX  23 29 -1 8
BITMAP
007800
007C00
00EE00
01CF00
03C700
000000
003800
007C00
007C00
00EC00
00EE00
00CE00
01C700
01C700
038700
038380
038380
0701C0
0701C0
0701E0
0FFFE0
0FFFE0
1E00F0
1C0070
1C0078
380038
380038
38003C
70001C
ENDCHAR
STARTCHAR  00C3
ENCODING  195
SWIDTH  1000 0
DWIDTH  21 0
BBX  23 29 -1 8
BITMAP
000000
01F300
03FF00
031E00
000000
000000
007800
007800
007C00
00FC00
00EE00
01CE00
01C700
01C700
038700
038380
030380
0703C0
0701C0
0E01C0
0FFFE0
0FFFE0
1C00F0
1C0070
3C0070
380078
380038
78003C
70001C
ENDCHAR
STARTCHAR  00C4
ENCODING  196
SWIDTH  1000 0
DWIDTH  22 0
BBX  23 28 -1 8
BITMAP
01C700
01C700
01C700
000000
000000
003800
007C00
007C00
00EE00
00EE00
00EE00
01C700
01C700
038380
038380
038380
0701C0
0701C0
0700E0
0FFFE0
0FFFF0
1C0070
1C0070
1C0078
380038
38003C
78001C
70001C
ENDCHAR
STARTCHAR  00C5
ENCODING  197
SWIDTH  1000 0
DWIDTH  22 0
BBX  23 29 0 8
BITMAP
007800
00C800
008400
008400
00CC00
007800
007800
00FC00
00FC00
00FC00
01FE00
01CE00
01CF00
038700
038700
078780
070380
0703C0
0E01C0
0E01C0
0FFFE0
1FFFE0
1C00F0
3C0070
380070
380078
700038
70003C
70001C
ENDCHAR
STARTCHAR  00C6
ENCODING  198
SWIDTH  1000 0
DWIDTH  32 0
BBX  31 23 -1 8
BITMAP
0003FFFE
0007FFFE
000EE000
000EE000
001CE000
001CE000
0038E000
0038E000
0070E000
00F0E000
00E0FFFC
01E0FFFC
01C0E000
03C0E000
03FFE000
07FFE000
0F00E000
0E00E000
1E00E000
1C00E000
3C00E000
3800FFFE
7800FFFE
ENDCHAR
STARTCHAR  00C7
ENCODING  199
SWIDTH  1000 0
DWIDTH  23 0
BBX  21 29 1 2
BITMAP
01FC00
07FF00
0F8FC0
1C01E0
3800E0
700070
700070
F00000
E00000
E00000
E00000
E00000
E00000
E00000
E00000
F00000
700070
7000F0
3800E0
3C01E0
1F8FC0
07FF80
01FE00
006000
007800
001C00
003C00
01FC00
01F000
ENDCHAR
STARTCHAR  00C8
ENCODING  200
SWIDTH  1000 0
DWIDTH  22 0
BBX  17 29 3 8
BITMAP
070000
038000
038000
01C000
00C000
000000
FFFF80
FFFF80
FFFF80
E00000
E00000
E00000
E00000
E00000
E00000
E00000
FFFF00
FFFF00
E00000
E00000
E00000
E00000
E00000
E00000
E00000
E00000
E00000
FFFF80
FFFF80
ENDCHAR
STARTCHAR  00C9
ENCODING  201
SWIDTH  1000 0
DWIDTH  22 0
BBX  17 29 3 8
BITMAP
00F000
00E000
01C000
018000
038000
000000
FFFF80
FFFF80
FFFF80
E00000
E00000
E00000
E00000
E00000
E00000
E00000
FFFF00
FFFF00
E00000
E00000
E00000
E00000
E00000
E00000
E00000
E00000
E00000
FFFF80
FFFF80
ENDCHAR
STARTCHAR  00CA
ENCODING  202
SWIDTH  1000 0
DWIDTH  22 0
BBX  17 29 3 8
BITMAP
03C000
03E000
077000
0E7000
1E3800
000000
FFFF80
FFFF80
E00000
E00000
E00000
E00000
E00000
E00000
E00000
E00000
FFFF00
FFFF00
E00000
E00000
E00000
E00000
E00000
E00000
E00000
E00000
E00000
FFFF80
FFFF80
ENDCHAR
STARTCHAR  00CB
ENCODING  203
SWIDTH  1000 0
DWIDTH  22 0
BBX  17 28 3 8
BITMAP
0E3800
0E3800
0E3800
000000
000000
FFFF80
FFFF80
E00000
E00000
E00000
E00000
E00000
E00000
E00000
E00000
FFFF00
FFFF00
E00000
E00000
E00000
E00000
E00000
E00000
E00000
E00000
E00000
FFFF80
FFFF80
ENDCHAR
STARTCHAR  00CC
ENCODING  204
SWIDTH  1000 0
DWIDTH  9 0
BBX  7 29 0 8
BITMAP
78
38
1C
0C
00
00
1C
1C
1C
1C
1C
1C
1C
1C
1C
1C
1C
1C
1C
1C
1C
1C
1C
1C
1C
1C
1C
1C
1C
ENDCHAR
STARTCHAR  00CD
ENCODING  205
SWIDTH  1000 0
DWIDTH  9 0
BBX  7 29 2 8
BITMAP
1C
38
30
60
00
00
70
70
70
70
70
70
70
70
70
70
70
70
70
70
70
70
70
70
70
70
70
70
70
ENDCHAR
STARTCHAR  00CE
ENCODING  206
SWIDTH  1000 0
DWIDTH  9 0
BBX  11 29 -1 8
BITMAP
0E00
1F00
3B80
71C0
71C0
0000
0E00
0E00
0E00
0E00
0E00
0E00
0E00
0E00
0E00
0E00
0E00
0E00
0E00
0E00
0E00
0E00
0E00
0E00
0E00
0E00
0E00
0E00
0E00
ENDCHAR
STARTCHAR  00CF
ENCODING  207
SWIDTH  1000 0
DWIDTH  11 0
BBX  9 28 1 8
BITMAP
E380
E380
E380
0000
0000
1C00
1C00
1C00
1C00
1C00
1C00
1C00
1C00
1C00
1C00
1C00
1C00
1C00
1C00
1C00
1C00
1C00
1C00
1C00
1C00
1C00
1C00
1C00
ENDCHAR
STARTCHAR  00D0
ENCODING  208
SWIDTH  1000 0
DWIDTH  24 0
BBX  22 23 1 8
BITMAP
1FFC00
1FFF00
1C0FC0
1C01E0
1C00E0
1C0070
1C0070
1C0038
1C0038
1C0038
FFF038
FFF038
1C0038
1C0038
1C0038
1C0078
1C0070
1C0070
1C00E0
1C01E0
1C0FC0
1FFF00
1FFC00
ENDCHAR
STARTCHAR  00D1
ENCODING  209
SWIDTH  1000 0
DWIDTH  24 0
BBX  19 29 3 8
BITMAP
000000
07CC00
07FC00
0C7800
000000
000000
F001C0
F001C0
F801C0
FC01C0
FC01C0
FE01C0
EE01C0
E701C0
E781C0
E381C0
E1C1C0
E1E1C0
E0E1C0
E071C0
E079C0
E039C0
E01DC0
E01FC0
E00FC0
E007C0
E007C0
E003C0
E003C0
ENDCHAR
STARTCHAR  00D2
ENCODING  210
SWIDTH  1000 0
DWIDTH  24 0
BBX  22 29 1 8
BITMAP
00E000
007000
007000
003800
000000
000000
01FC00
07FF80
0FFFC0
1E01E0
3C00F0
780078
700038
700038
E0001C
E0001C
E0001C
E0001C
E0001C
E0001C
E0001C
700038
700038
780078
380070
1E01E0
0F87C0
07FF80
01FE00
ENDCHAR
STARTCHAR  00D3
ENCODING  211
SWIDTH  1000 0
DWIDTH  24 0
BBX  22 29 1 8
BITMAP
001E00
001C00
003800
007000
000000
000000
01FC00
07FF80
0FFFC0
1E01E0
3C00F0
780078
700038
700038
E0001C
E0001C
E0001C
E0001C
E0001C
E0001C
E0001C
700038
700038
780078
380070
1E01E0
0F87C0
07FF80
01FE00
ENDCHAR
STARTCHAR  00D4
ENCODING  212
SWIDTH  1000 0
DWIDTH  24 0
BBX  22 29 1 8
BITMAP
007800
00FC00
01CE00
03CF00
000000
000000
01FC00
07FF80
0F87C0
1E01E0
3C0070
780078
700038
700038
E0001C
E0001C
E0001C
E0001C
E0001C
E0001C
E0001C
700038
700038
780078
380070
1E01E0
0F87C0
07FF80
01FE00
ENDCHAR
STARTCHAR  00D5
ENCODING  213
SWIDTH  1000 0
DWIDTH  24 0
BBX  22 29 1 8
BITMAP
01C300
03F300
03BF00
031E00
000000
000000
01FC00
07FF80
0F87C0
1E01E0
3C0070
780078
700038
700038
E0001C
E0001C
E0001C
E0001C
E0001C
E0001C
E0001C
700038
700038
780078
380070
1E01E0
0F87C0
07FF80
01FE00
ENDCHAR
STARTCHAR  00D6
ENCODING  214
SWIDTH  1000 0
DWIDTH  24 0
BBX  22 29 1 8
BITMAP
01CE00
01CE00
01CE00
000000
000000
000000
01FC00
07FF80
0F87C0
1E01E0
3C0070
780078
700038
700038
E0001C
E0001C
E0001C
E0001C
E0001C
E0001C
E0001C
700038
700038
780078
380070
1E01E0
0F87C0
07FF80
01FE00
ENDCHAR
STARTCHAR  00D7
ENCODING  215
SWIDTH  1000 0
DWIDTH  19 0
BBX  15 15 2 12
BITMAP
0000
2008
701C
7838
3C70
1EE0
0FC0
0780
07C0
0FE0
1CF0
3878
703C
2018
0000
ENDCHAR
STARTCHAR  00D8
ENCODING  216
SWIDTH  1000 0
DWIDTH  24 0
BBX  24 25 0 7
BITMAP
000000
007F06
03FFCE
07C7FC
0F00F8
1E0078
3C00FC
3801DC
38039C
70070E
700E0E
701C0E
70180E
70300E
70700E
70E00E
79C01C
3B801C
3F003C
1E0038
1F00F0
3FE3E0
73FFC0
60FF00
000000
ENDCHAR
STARTCHAR  00D9
ENCODING  217
SWIDTH  1000 0
DWIDTH  24 0
BBX  18 29 3 8
BITMAP
078000
03C000
01C000
00E000
000000
000000
E001C0
E001C0
E001C0
E001C0
E001C0
E001C0
E001C0
E001C0
E001C0
E001C0
E001C0
E001C0
E001C0
E001C0
E001C0
E001C0
E001C0
F003C0
700380
780780
3F3F00
1FFE00
07F800
ENDCHAR
STARTCHAR  00DA
ENCODING  218
SWIDTH  1000 0
DWIDTH  24 0
BBX  18 29 3 8
BITMAP
007800
007000
00E000
01C000
000000
000000
E001C0
E001C0
E001C0
E001C0
E001C0
E001C0
E001C0
E001C0
E001C0
E001C0
E001C0
E001C0
E001C0
E001C0
E001C0
E001C0
E001C0
F003C0
700380
780780
3F3F00
1FFE00
07F800
ENDCHAR
STARTCHAR  00DB
ENCODING  219
SWIDTH  1000 0
DWIDTH  24 0
BBX  18 29 3 8
BITMAP
01E000
03F000
073800
0F3C00
000000
000000
E001C0
E001C0
E001C0
E001C0
E001C0
E001C0
E001C0
E001C0
E001C0
E001C0
E001C0
E001C0
E001C0
E001C0
E001C0
E001C0
E001C0
F003C0
700380
780780
3FFF00
1FFE00
07F800
ENDCHAR
STARTCHAR  00DC
ENCODING  220
SWIDTH  1000 0
DWIDTH  24 0
BBX  18 29 3 8
BITMAP
073800
073800
073800
000000
000000
000000
E001C0
E001C0
E001C0
E001C0
E001C0
E001C0
E001C0
E001C0
E001C0
E001C0
E001C0
E001C0
E001C0
E001C0
E001C0
E001C0
E001C0
F003C0
700380
780780
3F3F00
1FFE00
07F800
ENDCHAR
STARTCHAR  00DD
ENCODING  221
SWIDTH  1000 0
DWIDTH  21 0
BBX  22 29 0 8
BITMAP
001C00
003800
007000
006000
000000
000000
F00078
7800F0
3800E0
3C01E0
1E03C0
0E0380
0F0780
078F00
038E00
03DE00
01DC00
00F800
00F800
007000
007000
007000
007000
007000
007000
007000
007000
007000
007000
ENDCHAR
STARTCHAR  00DE
ENCODING  222
SWIDTH  1000 0
DWIDTH  21 0
BBX  18 23 3 8
BITMAP
E00000
E00000
E00000
E00000
E00000
FFFC00
FFFE00
E00F00
E00700
E00380
E00380
E00380
E00380
E00380
E00700
E03F00
FFFE00
FFF000
E00000
E00000
E00000
E00000
E00000
ENDCHAR
STARTCHAR  00DF
ENCODING  223
SWIDTH  1000 0
DWIDTH  19 0
BBX  17 23 2 8
BITMAP
0FC000
3FF000
7CF000
703800
E03800
E03800
E07000
E07000
E0E000
E1C000
E1C000
E1C000
E1F000
E0F800
E03C00
E01E00
E00F00
E00700
E00700
E70700
E79E00
E3FC00
E0F800
ENDCHAR
STARTCHAR  00E0
ENCODING  224
SWIDTH  1000 0
DWIDTH  17 0
BBX  15 23 1 8
BITMAP
0700
0700
0380
0180
0000
0000
0FE0
3FF8
7C78
701C
701C
001C
07FC
3FFC
7E1C
701C
E01C
E01C
E01C
E03C
78FC
7FDC
1F9C
ENDCHAR
STARTCHAR  00E1
ENCODING  225
SWIDTH  1000 0
DWIDTH  17 0
BBX  15 23 1 8
BITMAP
00E0
01C0
0180
0380
0000
0000
0FE0
3FF8
7C78
701C
701C
001C
07FC
3FFC
7E1C
701C
E01C
E01C
E01C
E03C
78FC
7FDC
1F9C
ENDCHAR
STARTCHAR  00E2
ENCODING  226
SWIDTH  1000 0
DWIDTH  17 0
BBX  15 23 1 8
BITMAP
0380
07C0
0EE0
1E70
0000
0000
0FE0
3FF8
7C78
701C
701C
001C
07FC
3FFC
7E1C
701C
E01C
E01C
E01C
E03C
78FC
7FDC
1F9C
ENDCHAR
STARTCHAR  00E3
ENCODING  227
SWIDTH  1000 0
DWIDTH  17 0
BBX  15 23 1 8
BITMAP
0F38
1FF0
19F0
0000
0000
0000
0FE0
3FF8
7C78
701C
701C
001C
07FC
3FFC
7E1C
701C
E01C
E01C
E01C
E03C
78FC
7FDC
1F9C
ENDCHAR
STARTCHAR  00E4
ENCODING  228
SWIDTH  1000 0
DWIDTH  17 0
BBX  15 23 1 8
BITMAP
1C70
1C70
1C70
0000
0000
0000
0FE0
3FF8
7C78
701C
701C
001C
07FC
3FFC
7E1C
701C
E01C
E01C
E01C
E03C
78FC
7FDC
1F9C
ENDCHAR
STARTCHAR  00E5
ENCODING  229
SWIDTH  1000 0
DWIDTH  17 0
BBX  15 24 1 8
BITMAP
0380
0440
0440
0440
0380
0000
0000
0FE0
3FF8
7C78
701C
701C
001C
07FC
3FFC
7E1C
701C
E01C
E01C
E01C
E03C
78FC
7FDC
1F9C
ENDCHAR
STARTCHAR  00E6
ENCODING  230
SWIDTH  1000 0
DWIDTH  28 0
BBX  26 17 1 8
BITMAP
0FE0F800
3FF3FE00
7CFF8F00
701E0780
601E0380
001C01C0
07FC01C0
3FFFFFC0
7E1FFFC0
701C0000
E01C0000
E01C0000
E03E03C0
E03F0380
79F7CF80
7FE3FF00
1F80FC00
ENDCHAR
STARTCHAR  00E7
ENCODING  231
SWIDTH  1000 0
DWIDTH  16 0
BBX  15 23 1 2
BITMAP
07E0
1FF8
3E78
781C
701C
E000
E000
E000
E000
E000
E000
E000
701C
701C
3C3C
1FF8
07E0
0180
01C0
0060
00E0
07E0
0780
ENDCHAR
STARTCHAR  00E8
ENCODING  232
SWIDTH  1000 0
DWIDTH  18 0
BBX  16 23 1 8
BITMAP
0F00
0700
0380
0180
0000
0000
07E0
1FF8
3C7C
781C
700E
E00E
E00E
FFFE
FFFF
E000
E000
E000
700E
781E
3E7C
1FF8
07E0
ENDCHAR
STARTCHAR  00E9
ENCODING  233
SWIDTH  1000 0
DWIDTH  18 0
BBX  16 23 1 8
BITMAP
00E0
01C0
01C0
0380
0000
0000
07E0
1FF8
3C7C
781C
700E
E00E
E00E
FFFE
FFFF
E000
E000
E000
700E
781E
3E7C
1FF8
07E0
ENDCHAR
STARTCHAR  00EA
ENCODING  234
SWIDTH  1000 0
DWIDTH  18 0
BBX  16 23 1 8
BITMAP
03C0
07C0
0EE0
1C70
0000
0000
07E0
1FF8
3C7C
781C
700E
E00E
E00E
FFFE
FFFF
E000
E000
E000
700E
781E
3E7C
1FF8
07E0
ENDCHAR
STARTCHAR  00EB
ENCODING  235
SWIDTH  1000 0
DWIDTH  18 0
BBX  16 23 1 8
BITMAP
1C70
1C70
1C70
0000
0000
0000
07E0
1FF8
3C7C
781C
700E
E00E
E00E
FFFE
FFFF
E000
E000
E000
700E
781E
3E7C
1FF8
07E0
ENDCHAR
STARTCHAR  00EC
ENCODING  236
SWIDTH  1000 0
DWIDTH  7 0
BBX  7 23 -1 8
BITMAP
78
38
1C
0C
00
00
1C
1C
1C
1C
1C
1C
1C
1C
1C
1C
1C
1C
1C
1C
1C
1C
1C
ENDCHAR
STARTCHAR  00ED
ENCODING  237
SWIDTH  1000 0
DWIDTH  7 0
BBX  7 23 1 8
BITMAP
1C
38
30
70
00
00
70
70
70
70
70
70
70
70
70
70
70
70
70
70
70
70
70
ENDCHAR
STARTCHAR  00EE
ENCODING  238
SWIDTH  1000 0
DWIDTH  7 0
BBX  11 23 -2 8
BITMAP
0E00
1F00
3B80
71C0
0000
0000
0E00
0E00
0E00
0E00
0E00
0E00
0E00
0E00
0E00
0E00
0E00
0E00
0E00
0E00
0E00
0E00
0E00
ENDCHAR
STARTCHAR  00EF
ENCODING  239
SWIDTH  1000 0
DWIDTH  7 0
BBX  10 23 -1 8
BITMAP
E380
E380
E380
0000
0000
0000
1C00
1C00
1C00
1C00
1C00
1C00
1C00
1C00
1C00
1C00
1C00
1C00
1C00
1C00
1C00
1C00
1C00
ENDCHAR
STARTCHAR  00F0
ENCODING  240
SWIDTH  1000 0
DWIDTH  18 0
BBX  16 23 1 8
BITMAP
0708
03FC
01E0
07E0
0C70
0038
07DC
1FFC
3E7E
781E
700E
E00F
E007
E007
E007
E007
E007
E007
700E
781E
3E7C
1FF8
07E0
ENDCHAR
STARTCHAR  00F1
ENCODING  241
SWIDTH  1000 0
DWIDTH  18 0
BBX  14 23 2 8
BITMAP
1E30
3FF0
33E0
0000
0000
0000
E3E0
EFF0
FC78
F83C
E01C
E01C
E01C
E01C
E01C
E01C
E01C
E01C
E01C
E01C
E01C
E01C
E01C
ENDCHAR
STARTCHAR  00F2
ENCODING  242
SWIDTH  1000 0
DWIDTH  18 0
BBX  16 23 1 8
BITMAP
0F00
0700
0380
01C0
0000
0000
07E0
1FF8
3E7C
781E
700E
E00F
E007
E007
E007
E007
E007
E007
700E
781E
3E7C
1FF8
07E0
ENDCHAR
STARTCHAR  00F3
ENCODING  243
SWIDTH  1000 0
DWIDTH  18 0
BBX  16 23 1 8
BITMAP
00F0
00E0
01C0
0380
0000
0000
07E0
1FF8
3E7C
781E
700E
E00F
E007
E007
E007
E007
E007
E007
700E
781E
3E7C
1FF8
07E0
ENDCHAR
STARTCHAR  00F4
ENCODING  244
SWIDTH  1000 0
DWIDTH  18 0
BBX  16 23 1 8
BITMAP
03C0
07E0
0E70
1E78
0000
0000
07E0
1FF8
3E7C
781E
700E
E00F
E007
E007
E007
E007
E007
E007
700E
781E
3E7C
1FF8
07E0
ENDCHAR
STARTCHAR  00F5
ENCODING  245
SWIDTH  1000 0
DWIDTH  18 0
BBX  16 23 1 8
BITMAP
0F18
1FF8
19F0
0000
0000
0000
07E0
1FF8
3E7C
781E
700E
E00F
E007
E007
E007
E007
E007
E007
700E
781E
3E7C
1FF8
07E0
ENDCHAR
STARTCHAR  00F6
ENCODING  246
SWIDTH  1000 0
DWIDTH  18 0
BBX  16 23 1 8
BITMAP
1C70
1C70
1C70
0000
0000
0000
07E0
1FF8
3E7C
781E
700E
E00F
E007
E007
E007
E007
E007
E007
700E
781E
3E7C
1FF8
07E0
ENDCHAR
STARTCHAR  00F7
ENCODING  247
SWIDTH  1000 0
DWIDTH  19 0
BBX  15 13 2 13
BITMAP
0380
0380
0380
0000
0000
FFFE
FFFE
0000
0000
0000
0380
0380
0380
ENDCHAR
STARTCHAR  00F8
ENCODING  248
SWIDTH  1000 0
DWIDTH  18 0
BBX  16 19 1 7
BITMAP
0002
07E7
1FFE
3E7C
781E
703E
E077
E0E7
E0C7
E187
E307
E707
EE07
7C0E
781E
3E7C
7FF8
E7E0
4000
ENDCHAR
STARTCHAR  00F9
ENCODING  249
SWIDTH  1000 0
DWIDTH  18 0
BBX  14 23 2 8
BITMAP
1E00
0F00
0700
0380
0000
0000
E01C
E01C
E01C
E01C
E01C
E01C
E01C
E01C
E01C
E01C
E01C
E01C
E03C
F07C
7DFC
7FDC
1F1C
ENDCHAR
STARTCHAR  00FA
ENCODING  250
SWIDTH  1000 0
DWIDTH  18 0
BBX  14 23 2 8
BITMAP
01E0
01C0
0380
0700
0000
0000
E01C
E01C
E01C
E01C
E01C
E01C
E01C
E01C
E01C
E01C
E01C
E01C
E03C
F07C
7DFC
7FDC
1F1C
ENDCHAR
STARTCHAR  00FB
ENCODING  251
SWIDTH  1000 0
DWIDTH  18 0
BBX  14 23 2 8
BITMAP
0780
0FC0
1CE0
3C70
0000
0000
E01C
E01C
E01C
E01C
E01C
E01C
E01C
E01C
E01C
E01C
E01C
E01C
E03C
F07C
7DFC
7FDC
1F1C
ENDCHAR
STARTCHAR  00FC
ENCODING  252
SWIDTH  1000 0
DWIDTH  18 0
BBX  14 23 2 8
BITMAP
38E0
38E0
38E0
0000
0000
0000
E01C
E01C
E01C
E01C
E01C
E01C
E01C
E01C
E01C
E01C
E01C
E01C
E03C
F07C
7DFC
7FDC
1F1C
ENDCHAR
STARTCHAR  00FD
ENCODING  253
SWIDTH  1000 0
DWIDTH  16 0
BBX  16 29 0 2
BITMAP
00F0
00E0
01C0
0180
0000
0000
700F
700E
380E
381E
381C
1C1C
1C38
0C38
0E38
0E70
0670
0760
03E0
03E0
03C0
01C0
01C0
0380
0380
0700
3F00
3E00
3C00
ENDCHAR
STARTCHAR  00FE
ENCODING  254
SWIDTH  1000 0
DWIDTH  17 0
BBX  15 29 2 2
BITMAP
E000
E000
E000
E000
E000
E000
E7C0
EFF0
FCF0
F038
E038
E01C
E01C
E01C
E01C
E01C
E01C
E01C
E038
F038
FCF0
FFE0
E7C0
E000
E000
E000
E000
E000
E000
ENDCHAR
STARTCHAR  00FF
ENCODING  255
SWIDTH  1000 0
DWIDTH  17 0
BBX  17 29 0 2
BITMAP
0E3800
0E3800
0E3800
000000
000000
000000
700700
700F00
380E00
380E00
3C1C00
1C1C00
1C1C00
0E3800
0E3800
0E3800
077000
077000
036000
03E000
03E000
01C000
01C000
018000
038000
070000
3F0000
3E0000
3C0000
ENDCHAR
STARTCHAR  0100
ENCODING  256
SWIDTH  1000 0
DWIDTH  22 0
BBX  23 28 0 8
BITMAP
03FF00
03FF00
000000
000000
000000
007800
007800
00FC00
00FC00
00CE00
01CE00
01CE00
038700
038700
038380
070380
070380
0E01C0
0E01C0
0FFFE0
1FFFE0
1C00E0
1C0070
380070
380078
780038
700038
70003C
ENDCHAR
STARTCHAR  0101
ENCODING  257
SWIDTH  1000 0
DWIDTH  17 0
BBX  15 23 1 8
BITMAP
3FF0
3FF0
0000
0000
0000
0000
0FE0
3FF8
7C78
701C
701C
001C
07FC
3FFC
7E1C
701C
E01C
E01C
E01C
E03C
78FC
7FDC
1F9C
ENDCHAR
STARTCHAR  0102
ENCODING  258
SWIDTH  1000 0
DWIDTH  21 0
BBX  23 29 -1 8
BITMAP
018300
01C300
00FF00
007C00
000000
000000
003800
007C00
007C00
00EC00
00EE00
00CE00
01C700
01C700
038700
038380
038380
0701C0
0701C0
0701E0
0FFFE0
0FFFE0
1E00F0
1C0070
1C0078
380038
380038
38003C
70001C
ENDCHAR
STARTCHAR  0103
ENCODING  259
SWIDTH  1000 0
DWIDTH  17 0
BBX  15 23 1 8
BITMAP
1830
1EE0
0FE0
07C0
0000
0000
0FE0
3FF8
7C78
701C
701C
001C
07FC
3FFC
7E1C
701C
E01C
E01C
E01C
E03C
78FC
7FDC
1F9C
ENDCHAR
STARTCHAR  0104
ENCODING  260
SWIDTH  1000 0
DWIDTH  21 0
BBX  25 29 -1 2
BITMAP
00780000
00780000
007C0000
00FC0000
00EE0000
01CE0000
01C70000
01870000
03870000
03838000
03038000
0701C000
0701C000
0FFFC000
0FFFE000
0E00E000
1C00F000
1C007000
3C007000
38003800
38003800
78003C00
70001C00
00003000
00003000
00003000
00003C80
00003F80
00001F00
ENDCHAR
STARTCHAR  0105
ENCODING  261
SWIDTH  1000 0
DWIDTH  18 0
BBX  18 23 1 2
BITMAP
0FE000
3FF800
7C7800
701C00
701C00
001C00
07FC00
3FFC00
7E1C00
701C00
E01C00
E01C00
E01C00
E03C00
78FC00
7FDC00
1F9C00
001800
001800
001800
001CC0
001FC0
000F00
ENDCHAR
STARTCHAR  0106
ENCODING  262
SWIDTH  1000 0
DWIDTH  23 0
BBX  20 29 1 8
BITMAP
001C00
003800
003000
007000
000000
000000
01FC00
07FF00
1FFF80
1E03C0
3800E0
7800E0
700070
F00000
E00000
E00000
E00000
E00000
E00000
E00000
E00000
F00000
700070
7000F0
3800E0
3C01E0
1F8FC0
07FF00
01FC00
ENDCHAR
STARTCHAR  0107
ENCODING  263
SWIDTH  1000 0
DWIDTH  16 0
BBX  15 23 1 8
BITMAP
01E0
01C0
0380
0380
0000
0000
07E0
1FF8
3E78
781C
701C
E000
E000
E000
E000
E000
E000
E000
701C
781C
3E7C
1FF8
07E0
ENDCHAR
STARTCHAR  0108
ENCODING  264
SWIDTH  1000 0
DWIDTH  23 0
BBX  20 29 1 8
BITMAP
00F000
00F800
01DC00
038E00
000000
000000
01FC00
07FF00
1F8FC0
1C01C0
3800E0
7000F0
700070
F00000
E00000
E00000
E00000
E00000
E00000
E00000
E00000
F00000
700070
7000F0
3800E0
3C01E0
1F8FC0
07FF00
01FC00
ENDCHAR
STARTCHAR  0109
ENCODING  265
SWIDTH  1000 0
DWIDTH  16 0
BBX  15 23 1 8
BITMAP
0780
07C0
0EE0
1C70
0000
0000
07E0
1FF8
3E78
781C
701C
E000
E000
E000
E000
E000
E000
E000
701C
781C
3E7C
1FF8
07E0
ENDCHAR
STARTCHAR  010A
ENCODING  266
SWIDTH  1000 0
DWIDTH  23 0
BBX  20 29 1 8
BITMAP
007000
007000
007000
000000
000000
000000
01FC00
07FF00
0F8FC0
1C01E0
3800E0
7000F0
700070
F00000
E00000
E00000
E00000
E00000
E00000
E00000
E00000
F00000
700070
7000F0
3800E0
1C01E0
1F8FC0
07FF80
01FC00
ENDCHAR
STARTCHAR  010B
ENCODING  267
SWIDTH  1000 0
DWIDTH  16 0
BBX  15 23 1 8
BITMAP
0380
0380
0380
0000
0000
0000
07E0
1FF8
3E78
781C
701C
E000
E000
E000
E000
E000
E000
E000
701C
781C
3E7C
1FF8
07E0
ENDCHAR
STARTCHAR  010C
ENCODING  268
SWIDTH  1000 0
DWIDTH  23 0
BBX  20 29 1 8
BITMAP
038E00
01DC00
00F800
007000
000000
000000
01FC00
07FF00
1F8FC0
1C01C0
3800E0
7000F0
700070
F00000
E00000
E00000
E00000
E00000
E00000
E00000
E00000
F00000
700070
7000F0
3800E0
3C01E0
1F8FC0
07FF00
01FC00
ENDCHAR
STARTCHAR  010D
ENCODING  269
SWIDTH  1000 0
DWIDTH  16 0
BBX  15 23 1 8
BITMAP
1C70
0EE0
0FC0
0780
0000
0000
07E0
1FF0
3E78
781C
701C
E01C
E000
E000
E000
E000
E000
E000
701C
781C
3E7C
1FF8
07E0
ENDCHAR
STARTCHAR  010E
ENCODING  270
SWIDTH  1000 0
DWIDTH  24 0
BBX  19 29 3 8
BITMAP
1C7000
1CE000
0FC000
078000
038000
000000
FFF000
FFFC00
E03F00
E00780
E00380
E001C0
E001C0
E001E0
E000E0
E000E0
E000E0
E000E0
E000E0
E000E0
E000E0
E001E0
E001C0
E001C0
E00380
E00780
E03F00
FFFC00
FFF000
ENDCHAR
STARTCHAR  010F
ENCODING  271
SWIDTH  1000 0
DWIDTH  20 0
BBX  19 23 1 8
BITMAP
000EE0
000EE0
000EE0
000E60
000E60
000E60
07CEC0
1FFE80
3E7E00
781E00
700E00
E00E00
E00E00
E00E00
E00E00
E00E00
E00E00
E00E00
700E00
703E00
3C7E00
1FEE00
0FCE00
ENDCHAR
STARTCHAR  0110
ENCODING  272
SWIDTH  1000 0
DWIDTH  24 0
BBX  22 23 1 8
BITMAP
1FFC00
1FFF00
1C0FC0
1C01E0
1C00E0
1C0070
1C0070
1C0038
1C0038
1C0038
FFF038
FFF038
1C0038
1C0038
1C0038
1C0078
1C0070
1C0070
1C00E0
1C01E0
1C0FC0
1FFF00
1FFC00
ENDCHAR
STARTCHAR  0111
ENCODING  273
SWIDTH  1000 0
DWIDTH  18 0
BBX  17 23 1 8
BITMAP
000E00
00FF80
00FF80
000E00
000E00
000E00
07CE00
1FFE00
3E7E00
781E00
700E00
E00E00
E00E00
E00E00
E00E00
E00E00
E00E00
E00E00
700E00
703E00
3C7E00
1FEE00
0FCE00
ENDCHAR
STARTCHAR  0112
ENCODING  274
SWIDTH  1000 0
DWIDTH  22 0
BBX  17 28 3 8
BITMAP
1FF800
1FF800
000000
000000
000000
FFFF80
FFFF80
E00000
E00000
E00000
E00000
E00000
E00000
E00000
E00000
FFFF00
FFFF00
E00000
E00000
E00000
E00000
E00000
E00000
E00000
E00000
E00000
FFFF80
FFFF80
ENDCHAR
STARTCHAR  0113
ENCODING  275
SWIDTH  1000 0
DWIDTH  18 0
BBX  16 23 1 8
BITMAP
1FF8
1FF8
0000
0000
0000
0000
07E0
1FF8
3E7C
781C
700E
E00E
E006
FFFE
FFFF
E000
E000
E000
700E
780E
3E3C
1FF8
07E0
ENDCHAR
STARTCHAR  0114
ENCODING  276
SWIDTH  1000 0
DWIDTH  22 0
BBX  17 29 3 8
BITMAP
0C1800
0C3800
0FF000
07E000
000000
000000
FFFF80
FFFF80
E00000
E00000
E00000
E00000
E00000
E00000
E00000
E00000
FFFF00
FFFF00
E00000
E00000
E00000
E00000
E00000
E00000
E00000
E00000
E00000
FFFF80
FFFF80
ENDCHAR
STARTCHAR  0115
ENCODING  277
SWIDTH  1000 0
DWIDTH  18 0
BBX  16 23 1 8
BITMAP
1830
1EF0
0FE0
07C0
0000
0000
07E0
1FF8
3C7C
781C
700E
E00E
E00E
FFFE
FFFF
E000
E000
E000
700E
781E
3E7C
1FF8
07E0
ENDCHAR
STARTCHAR  0116
ENCODING  278
SWIDTH  1000 0
DWIDTH  22 0
BBX  17 28 3 8
BITMAP
01C000
01C000
01C000
000000
000000
FFFF80
FFFF80
E00000
E00000
E00000
E00000
E00000
E00000
E00000
E00000
FFFF00
FFFF00
E00000
E00000
E00000
E00000
E00000
E00000
E00000
E00000
E00000
FFFF80
FFFF80
ENDCHAR
STARTCHAR  0117
ENCODING  279
SWIDTH  1000 0
DWIDTH  18 0
BBX  16 23 1 8
BITMAP
0380
0380
0380
0000
0000
0000
07E0
1FF8
3C7C
781C
700E
E00E
E00E
FFFE
FFFF
E000
E000
E000
700E
781E
3E7C
1FF8
07E0
ENDCHAR
STARTCHAR  0118
ENCODING  280
SWIDTH  1000 0
DWIDTH  22 0
BBX  17 29 3 2
BITMAP
FFFF80
FFFF80
E00000
E00000
E00000
E00000
E00000
E00000
E00000
FFFF00
FFFF00
E00000
E00000
E00000
E00000
E00000
E00000
E00000
E00000
E00000
E00000
FFFF80
FFFF80
003000
003000
003000
003C80
003F80
001F00
ENDCHAR
STARTCHAR  0119
ENCODING  281
SWIDTH  1000 0
DWIDTH  18 0
BBX  16 23 1 2
BITMAP
07E0
1FF8
3C7C
701C
700E
E00E
E00E
FFFE
FFFF
E000
E000
E000
700E
781C
3E7C
1FF8
07E0
00C0
00C0
00C0
00E2
00FE
007C
ENDCHAR
STARTCHAR  011A
ENCODING  282
SWIDTH  1000 0
DWIDTH  22 0
BBX  17 29 3 8
BITMAP
0E3800
0E7000
07E000
03C000
01C000
000000
FFFF80
FFFF80
E00000
E00000
E00000
E00000
E00000
E00000
E00000
E00000
FFFF00
FFFF00
E00000
E00000
E00000
E00000
E00000
E00000
E00000
E00000
E00000
FFFF80
FFFF80
ENDCHAR
STARTCHAR  011B
ENCODING  283
SWIDTH  1000 0
DWIDTH  18 0
BBX  16 23 1 8
BITMAP
1C70
0EE0
07C0
03C0
0000
0000
07E0
1FF8
3C7C
781C
700E
E00E
E00E
FFFE
FFFF
E000
E000
E000
700E
781E
3E7C
1FF8
07E0
ENDCHAR
STARTCHAR  011C
ENCODING  284
SWIDTH  1000 0
DWIDTH  24 0
BBX  22 30 1 8
BITMAP
007000
007800
00FC00
01CE00
038E00
000000
000000
01FE00
07FF80
0F8FC0
1E01E0
3800F0
780070
700078
700000
E00000
E00000
E00000
E00FF8
E00FF8
E00038
E00038
700038
700038
780038
380078
1E00F8
0F87F8
07FFB8
01FE18
ENDCHAR
STARTCHAR  011D
ENCODING  285
SWIDTH  1000 0
DWIDTH  18 0
BBX  16 29 1 2
BITMAP
03C0
07E0
0EE0
1C70
0000
0000
07CE
1FFE
3E7E
781E
700E
E00E
E00E
E00E
E00E
E00E
E00E
E00E
700E
703E
3C7E
1FEE
0FCE
000E
700E
701C
3C7C
1FF8
0FE0
ENDCHAR
STARTCHAR  011E
ENCODING  286
SWIDTH  1000 0
DWIDTH  24 0
BBX  22 29 1 8
BITMAP
018300
00C300
00FE00
007C00
000000
000000
01FE00
07FF80
0F8FC0
1E01E0
3800F0
780070
700078
700000
E00000
E00000
E00000
E00FF8
E00FF8
E00038
E00038
700038
700038
780038
380078
1E00F8
0F87F8
07FFB8
01FE18
ENDCHAR
STARTCHAR  011F
ENCODING  287
SWIDTH  1000 0
DWIDTH  18 0
BBX  16 29 1 2
BITMAP
1C38
0FF0
07E0
0000
0000
0000
07CE
1FFE
3E7E
781E
700E
E00E
E00E
E00E
E00E
E00E
E00E
E00E
700E
703E
3C7E
1FEE
0F8E
000E
700E
701C
3C7C
1FF8
0FE0
ENDCHAR
STARTCHAR  0120
ENCODING  288
SWIDTH  1000 0
DWIDTH  24 0
BBX  22 29 1 8
BITMAP
003800
003800
003800
000000
000000
000000
01FE00
07FF80
0F87C0
1E01E0
380070
780070
700078
700000
E00000
E00000
E00000
E007F8
E007F8
E00038
E00038
700038
700038
780038
380078
1E00F8
0F87F8
07FFB8
01FE18
ENDCHAR
STARTCHAR  0121
ENCODING  289
SWIDTH  1000 0
DWIDTH  18 0
BBX  16 29 1 2
BITMAP
0380
0380
0380
0000
0000
0000
07CE
1FFE
3E7E
781E
700E
E00E
E00E
E00E
E00E
E00E
E00E
E00E
700E
703E
3C7E
1FEE
0FCE
000E
700E
701C
3C7C
1FF8
0FE0
ENDCHAR
STARTCHAR  0122
ENCODING  290
SWIDTH  1000 0
DWIDTH  24 0
BBX  22 29 1 2
BITMAP
01FE00
07FF80
0F87C0
1E01E0
380070
780070
700078
700000
E00000
E00000
E00000
E00FF8
E00FF8
E00038
E00038
700038
700038
780038
380078
1E01F8
1F87F8
07FFB8
01FE18
006000
007800
001C00
003C00
00FC00
00F000
ENDCHAR
STARTCHAR  0123
ENCODING  291
SWIDTH  1000 0
DWIDTH  18 0
BBX  16 34 1 2
BITMAP
0180
0380
0700
0600
0600
0780
0780
0780
0000
0000
0000
07CE
1FFE
3E7E
781E
700E
E00E
E00E
E00E
E00E
E00E
E00E
E00E
700E
703E
3C7E
1FEE
0FCE
000E
700E
701C
3C7C
1FF8
0FE0
ENDCHAR
STARTCHAR  0124
ENCODING  292
SWIDTH  1000 0
DWIDTH  24 0
BBX  18 29 3 8
BITMAP
01E000
03F000
03F000
073800
0E1C00
000000
E001C0
E001C0
E001C0
E001C0
E001C0
E001C0
E001C0
E001C0
E001C0
FFFFC0
FFFFC0
FFFFC0
E001C0
E001C0
E001C0
E001C0
E001C0
E001C0
E001C0
E001C0
E001C0
E001C0
E001C0
ENDCHAR
STARTCHAR  0125
ENCODING  293
SWIDTH  1000 0
DWIDTH  18 0
BBX  14 29 2 8
BITMAP
0780
0FC0
0EE0
1CE0
3870
0000
E000
E000
E000
E000
E000
E000
E3E0
EFF0
FC78
F83C
E01C
E01C
E01C
E01C
E01C
E01C
E01C
E01C
E01C
E01C
E01C
E01C
E01C
ENDCHAR
STARTCHAR  0126
ENCODING  294
SWIDTH  1000 0
DWIDTH  24 0
BBX  22 23 1 8
BITMAP
380070
380070
380070
FFFFFC
FFFFFC
380070
380070
380070
380070
380070
3FFFF0
3FFFF0
380070
380070
380070
380070
380070
380070
380070
380070
380070
380070
380070
ENDCHAR
STARTCHAR  0127
ENCODING  295
SWIDTH  1000 0
DWIDTH  18 0
BBX  16 23 0 8
BITMAP
3800
3800
FFC0
FFC0
3800
3800
38F8
3BFC
3F1E
3E0F
3807
3807
3807
3807
3807
3807
3807
3807
3807
3807
3807
3807
3807
ENDCHAR
STARTCHAR  0128
ENCODING  296
SWIDTH  1000 0
DWIDTH  9 0
BBX  11 29 -1 8
BITMAP
0000
3C60
7FE0
67C0
0000
0000
0E00
0E00
0E00
0E00
0E00
0E00
0E00
0E00
0E00
0E00
0E00
0E00
0E00
0E00
0E00
0E00
0E00
0E00
0E00
0E00
0E00
0E00
0E00
ENDCHAR
STARTCHAR  0129
ENCODING  297
SWIDTH  1000 0
DWIDTH  7 0
BBX  11 23 -2 8
BITMAP
3CC0
7FC0
6FC0
0000
0000
0000
0E00
0E00
0E00
0E00
0E00
0E00
0E00
0E00
0E00
0E00
0E00
0E00
0E00
0E00
0E00
0E00
0E00
ENDCHAR
STARTCHAR  012A
ENCODING  298
SWIDTH  1000 0
DWIDTH  10 0
BBX  10 28 0 8
BITMAP
FFC0
FFC0
0000
0000
0000
1C00
1C00
1C00
1C00
1C00
1C00
1C00
1C00
1C00
1C00
1C00
1C00
1C00
1C00
1C00
1C00
1C00
1C00
1C00
1C00
1C00
1C00
1C00
ENDCHAR
STARTCHAR  012B
ENCODING  299
SWIDTH  1000 0
DWIDTH  8 0
BBX  10 23 -1 8
BITMAP
0000
FFC0
FFC0
0000
0000
0000
1C00
1C00
1C00
1C00
1C00
1C00
1C00
1C00
1C00
1C00
1C00
1C00
1C00
1C00
1C00
1C00
1C00
ENDCHAR
STARTCHAR  012C
ENCODING  300
SWIDTH  1000 0
DWIDTH  9 0
BBX  11 29 -1 8
BITMAP
60C0
71C0
3F80
1F00
0000
0000
0E00
0E00
0E00
0E00
0E00
0E00
0E00
0E00
0E00
0E00
0E00
0E00
0E00
0E00
0E00
0E00
0E00
0E00
0E00
0E00
0E00
0E00
0E00
ENDCHAR
STARTCHAR  012D
ENCODING  301
SWIDTH  1000 0
DWIDTH  7 0
BBX  11 23 -2 8
BITMAP
60C0
7BC0
3F80
1F00
0000
0000
0E00
0E00
0E00
0E00
0E00
0E00
0E00
0E00
0E00
0E00
0E00
0E00
0E00
0E00
0E00
0E00
0E00
ENDCHAR
STARTCHAR  012E
ENCODING  302
SWIDTH  1000 0
DWIDTH  9 0
BBX  8 29 3 2
BITMAP
E0
E0
E0
E0
E0
E0
E0
E0
E0
E0
E0
E0
E0
E0
E0
E0
E0
E0
E0
E0
E0
E0
E0
60
60
60
73
7F
3C
ENDCHAR
STARTCHAR  012F
ENCODING  303
SWIDTH  1000 0
DWIDTH  7 0
BBX  7 29 2 2
BITMAP
E0
E0
E0
00
00
00
E0
E0
E0
E0
E0
E0
E0
E0
E0
E0
E0
E0
E0
E0
E0
E0
E0
E0
C0
C0
F2
FE
7C
ENDCHAR
STARTCHAR  0130
ENCODING  304
SWIDTH  1000 0
DWIDTH  9 0
BBX  4 28 3 8
BITMAP
E0
E0
E0
00
00
E0
E0
E0
E0
E0
E0
E0
E0
E0
E0
E0
E0
E0
E0
E0
E0
E0
E0
E0
E0
E0
E0
E0
ENDCHAR
STARTCHAR  0131
ENCODING  305
SWIDTH  1000 0
DWIDTH  7 0
BBX  4 17 2 8
BITMAP
E0
E0
E0
E0
E0
E0
E0
E0
E0
E0
E0
E0
E0
E0
E0
E0
E0
ENDCHAR
STARTCHAR  0132
ENCODING  306
SWIDTH  1000 0
DWIDTH  25 0
BBX  20 23 3 8
BITMAP
E000E0
E000E0
E000E0
E000E0
E000E0
E000E0
E000E0
E000E0
E000E0
E000E0
E000E0
E000E0
E000E0
E000E0
E000E0
E000E0
E1C0E0
E1C0E0
E1C0E0
E1E1C0
E0F3C0
E07F80
E03F00
ENDCHAR
STARTCHAR  0133
ENCODING  307
SWIDTH  1000 0
DWIDTH  14 0
BBX  11 29 2 2
BITMAP
E1C0
E1C0
E1C0
0000
0000
0000
E1C0
E1C0
E1C0
E1C0
E1C0
E1C0
E1C0
E1C0
E1C0
E1C0
E1C0
E1C0
E1C0
E1C0
E1C0
E1C0
E1C0
01C0
01C0
01C0
0BC0
0F80
0F00
ENDCHAR
STARTCHAR  0134
ENCODING  308
SWIDTH  1000 0
DWIDTH  17 0
BBX  17 29 1 8
BITMAP
003800
007C00
00EE00
01C700
000000
000000
003800
003800
003800
003800
003800
003800
003800
003800
003800
003800
003800
003800
003800
003800
003800
003800
E03800
E03800
E03800
F07000
78F000
3FE000
1F8000
ENDCHAR
STARTCHAR  0135
ENCODING  309
SWIDTH  1000 0
DWIDTH  7 0
BBX  11 29 -2 2
BITMAP
1F00
1F00
3B80
71C0
0000
0000
0E00
0E00
0E00
0E00
0E00
0E00
0E00
0E00
0E00
0E00
0E00
0E00
0E00
0E00
0E00
0E00
0E00
0E00
0E00
0E00
DE00
FC00
F800
ENDCHAR
STARTCHAR  0136
ENCODING  310
SWIDTH  1000 0
DWIDTH  22 0
BBX  19 29 3 2
BITMAP
E007C0
E00F00
E00E00
E01C00
E03800
E07000
E0E000
E1C000
E38000
E70000
EF8000
FFC000
F9C000
F0E000
F0F000
E07800
E03C00
E01C00
E01E00
E00F00
E00780
E00780
E003C0
01E000
00F000
007000
00F000
03F000
03C000
ENDCHAR
STARTCHAR  0137
ENCODING  311
SWIDTH  1000 0
DWIDTH  16 0
BBX  14 29 2 2
BITMAP
E000
E000
E000
E000
E000
E000
E078
E0F0
E1C0
E380
E700
EE00
FE00
FE00
FF00
F780
E380
E1C0
E1E0
E0E0
E070
E078
E038
0780
01C0
01C0
03C0
0FC0
0F00
ENDCHAR
STARTCHAR  0138
ENCODING  312
SWIDTH  1000 0
DWIDTH  16 0
BBX  14 17 2 8
BITMAP
E078
E0F0
E1E0
E3C0
E780
EF00
FE00
FF00
FF00
F380
E3C0
E1C0
E1E0
E0F0
E070
E078
E038
ENDCHAR
STARTCHAR  0139
ENCODING  313
SWIDTH  1000 0
DWIDTH  18 0
BBX  14 29 3 8
BITMAP
0F00
0E00
1C00
1800
0000
0000
E000
E000
E000
E000
E000
E000
E000
E000
E000
E000
E000
E000
E000
E000
E000
E000
E000
E000
E000
E000
FFFC
FFFC
FFFC
ENDCHAR
STARTCHAR  013A
ENCODING  314
SWIDTH  1000 0
DWIDTH  7 0
BBX  7 29 0 8
BITMAP
1C
38
38
70
00
00
38
38
38
38
38
38
38
38
38
38
38
38
38
38
38
38
38
38
38
38
38
38
38
ENDCHAR
STARTCHAR  013B
ENCODING  315
SWIDTH  1000 0
DWIDTH  18 0
BBX  14 29 3 2
BITMAP
E000
E000
E000
E000
E000
E000
E000
E000
E000
E000
E000
E000
E000
E000
E000
E000
E000
E000
E000
E000
E000
FFFC
FFFC
0300
03C0
00E0
01E0
0FE0
0F80
ENDCHAR
STARTCHAR  013C
ENCODING  316
SWIDTH  1000 0
DWIDTH  7 0
BBX  6 29 1 2
BITMAP
70
70
70
70
70
70
70
70
70
70
70
70
70
70
70
70
70
70
70
70
70
70
70
60
78
1C
1C
FC
F0
ENDCHAR
STARTCHAR  013D
ENCODING  317
SWIDTH  1000 0
DWIDTH  18 0
BBX  14 23 3 8
BITMAP
E0F0
E0F0
E0F0
E030
E030
E070
E0E0
E0C0
E000
E000
E000
E000
E000
E000
E000
E000
E000
E000
E000
E000
FFFC
FFFC
FFFC
ENDCHAR
STARTCHAR  013E
ENCODING  318
SWIDTH  1000 0
DWIDTH  9 0
BBX  7 23 2 8
BITMAP
EE
EE
EE
E6
E6
E6
EC
E8
E0
E0
E0
E0
E0
E0
E0
E0
E0
E0
E0
E0
E0
E0
E0
ENDCHAR
STARTCHAR  013F
ENCODING  319
SWIDTH  1000 0
DWIDTH  18 0
BBX  14 23 3 8
BITMAP
E000
E000
E000
E000
E000
E000
E000
E000
E000
E000
E070
E070
E070
E000
E000
E000
E000
E000
E000
E000
FFFC
FFFC
FFFC
ENDCHAR
STARTCHAR  0140
ENCODING  320
SWIDTH  1000 0
DWIDTH  12 0
BBX  10 23 1 8
BITMAP
E000
E000
E000
E000
E000
E000
E000
E000
E000
E000
E1C0
E1C0
E1C0
E000
E000
E000
E000
E000
E000
E000
E000
E000
E000
ENDCHAR
STARTCHAR  0141
ENCODING  321
SWIDTH  1000 0
DWIDTH  18 0
BBX  17 23 0 8
BITMAP
1C0000
1C0000
1C0000
1C0000
1C0000
1C2000
1C6000
1DE000
1F8000
1F0000
1E0000
1C0000
3C0000
FC0000
DC0000
9C0000
1C0000
1C0000
1C0000
1C0000
1FFF80
1FFF80
1FFF80
ENDCHAR
STARTCHAR  0142
ENCODING  322
SWIDTH  1000 0
DWIDTH  9 0
BBX  7 23 1 8
BITMAP
38
38
38
38
38
38
38
38
3A
3E
3C
38
78
F8
B8
38
38
38
38
38
38
38
38
ENDCHAR
STARTCHAR  0143
ENCODING  323
SWIDTH  1000 0
DWIDTH  24 0
BBX  19 29 3 8
BITMAP
00F000
00E000
01C000
018000
000000
000000
F001C0
F001C0
F801C0
FC01C0
FC01C0
FE01C0
EE01C0
E701C0
E781C0
E381C0
E1C1C0
E1E1C0
E0E1C0
E071C0
E079C0
E039C0
E01DC0
E01FC0
E00FC0
E007C0
E007C0
E003C0
E003C0
ENDCHAR
STARTCHAR  0144
ENCODING  324
SWIDTH  1000 0
DWIDTH  18 0
BBX  14 23 2 8
BITMAP
01E0
03C0
0380
0700
0000
0000
E3E0
EFF0
FEF8
F83C
F01C
E01C
E01C
E01C
E01C
E01C
E01C
E01C
E01C
E01C
E01C
E01C
E01C
ENDCHAR
STARTCHAR  0145
ENCODING  325
SWIDTH  1000 0
DWIDTH  24 0
BBX  19 29 3 2
BITMAP
F001C0
F001C0
F801C0
FC01C0
FC01C0
FE01C0
EE01C0
E701C0
E781C0
E381C0
E1C1C0
E1E1C0
E0E1C0
E071C0
E079C0
E039C0
E01DC0
E01FC0
E00FC0
E007C0
E007C0
E003C0
E001C0
00F000
007800
003800
007800
03F800
03E000
ENDCHAR
STARTCHAR  0146
ENCODING  326
SWIDTH  1000 0
DWIDTH  18 0
BBX  14 23 2 2
BITMAP
E3E0
EFF0
FC78
F83C
E01C
E01C
E01C
E01C
E01C
E01C
E01C
E01C
E01C
E01C
E01C
E01C
E01C
0780
03C0
01C0
03C0
0FC0
0F00
ENDCHAR
STARTCHAR  0147
ENCODING  327
SWIDTH  1000 0
DWIDTH  24 0
BBX  19 29 3 8
BITMAP
0E3800
077000
037000
03E000
01C000
000000
F001C0
F001C0
F801C0
FC01C0
FC01C0
FE01C0
EE01C0
E701C0
E781C0
E381C0
E1C1C0
E1E1C0
E0E1C0
E071C0
E079C0
E039C0
E01DC0
E01FC0
E00FC0
E007C0
E007C0
E003C0
E003C0
ENDCHAR
STARTCHAR  0148
ENCODING  328
SWIDTH  1000 0
DWIDTH  18 0
BBX  14 23 2 8
BITMAP
38F0
1CE0
0FC0
0780
0000
0000
E3E0
EFF0
FC78
F83C
E01C
E01C
E01C
E01C
E01C
E01C
E01C
E01C
E01C
E01C
E01C
E01C
E01C
ENDCHAR
STARTCHAR  0149
ENCODING  329
SWIDTH  1000 0
DWIDTH  21 0
BBX  20 23 0 8
BITMAP
F00000
F00000
F00000
300000
300000
600000
E39F00
03BFC0
03F3C0
03C1E0
0380E0
0380E0
0380E0
0380E0
0380E0
0380E0
0380E0
0380E0
0380E0
0380E0
0380E0
0380E0
0380E0
ENDCHAR
STARTCHAR  014A
ENCODING  330
SWIDTH  1000 0
DWIDTH  24 0
BBX  19 29 3 2
BITMAP
F001C0
F001C0
F801C0
FC01C0
FC01C0
FE01C0
EE01C0
E701C0
E781C0
E381C0
E1C1C0
E1E1C0
E0E1C0
E071C0
E079C0
E039C0
E01DC0
E01FC0
E00FC0
E007C0
E007C0
E003C0
E003C0
0001C0
0001C0
0001C0
0017C0
001F80
001F00
ENDCHAR
STARTCHAR  014B
ENCODING  331
SWIDTH  1000 0
DWIDTH  18 0
BBX  14 23 2 2
BITMAP
E3E0
EFF8
FC78
F83C
E01C
E01C
E01C
E01C
E01C
E01C
E01C
E01C
E01C
E01C
E01C
E01C
E01C
001C
001C
001C
003C
00F8
00F0
ENDCHAR
STARTCHAR  014C
ENCODING  332
SWIDTH  1000 0
DWIDTH  24 0
BBX  22 29 1 8
BITMAP
000000
03FF00
03FF00
000000
000000
000000
01FC00
07FF80
0F87C0
1E01E0
3C0070
780078
700038
700038
E0001C
E0001C
E0001C
E0001C
E0001C
E0001C
E0001C
700038
700038
780078
380070
1E01E0
0F87C0
07FF80
01FE00
ENDCHAR
STARTCHAR  014D
ENCODING  333
SWIDTH  1000 0
DWIDTH  18 0
BBX  16 23 1 8
BITMAP
1FF8
1FF8
0000
0000
0000
0000
07E0
1FF8
3E7C
781E
700E
E00F
E007
E007
E007
E007
E007
E007
700E
781E
3E7C
1FF8
07E0
ENDCHAR
STARTCHAR  014E
ENCODING  334
SWIDTH  1000 0
DWIDTH  24 0
BBX  22 29 1 8
BITMAP
030300
018600
01FE00
00FC00
000000
000000
01FC00
07FF80
0F87C0
1E01E0
3C0070
780078
700038
700038
E0001C
E0001C
E0001C
E0001C
E0001C
E0001C
E0001C
700038
700038
780078
380070
1E01E0
0F87C0
07FF80
01FE00
ENDCHAR
STARTCHAR  014F
ENCODING  335
SWIDTH  1000 0
DWIDTH  18 0
BBX  16 23 1 8
BITMAP
1818
0E70
0FF0
03C0
0000
0000
07E0
1FF8
3E7C
781E
700E
E00F
E007
E007
E007
E007
E007
E00F
700E
781E
3E7C
1FF8
07E0
ENDCHAR
STARTCHAR  0150
ENCODING  336
SWIDTH  1000 0
DWIDTH  24 0
BBX  22 29 1 8
BITMAP
00F780
01E700
01CE00
038C00
000000
000000
01FC00
07FF80
0F87C0
1E01E0
3C0070
780078
700038
700038
E0001C
E0001C
E0001C
E0001C
E0001C
E0001C
E0001C
700038
700038
780078
380070
1E01E0
0F87C0
07FF80
01FE00
ENDCHAR
STARTCHAR  0151
ENCODING  337
SWIDTH  1000 0
DWIDTH  18 0
BBX  16 23 1 8
BITMAP
079C
0738
0E38
0C70
0000
0000
07E0
1FF8
3E7C
781E
700E
E00F
E007
E007
E007
E007
E007
E007
700E
781E
3E7C
1FF8
07E0
ENDCHAR
STARTCHAR  0152
ENCODING  338
SWIDTH  1000 0
DWIDTH  32 0
BBX  29 23 1 8
BITMAP
03F8FFF8
0FFEFFF8
1F1FE000
3C07E000
3803E000
7001E000
7001E000
E000E000
E000E000
E000E000
E000FFF0
E000FFF0
E000E000
E000E000
E000E000
E000E000
7001E000
7001E000
3803E000
3C07E000
1F1FE000
0FFEFFF8
03F8FFF8
ENDCHAR
STARTCHAR  0153
ENCODING  339
SWIDTH  1000 0
DWIDTH  30 0
BBX  28 17 1 8
BITMAP
07E03E00
1FF8FF80
3E7DE3C0
781F81E0
700F80E0
E00F00F0
E0070070
E007FFF0
E007FFF0
E0070000
E0070000
E0070000
700F80F0
781FC0E0
3E7DF3E0
1FF8FFC0
07E03F00
ENDCHAR
STARTCHAR  0154
ENCODING  340
SWIDTH  1000 0
DWIDTH  23 0
BBX  19 29 3 8
BITMAP
01E000
01C000
038000
030000
070000
000000
FFFC00
FFFF00
FFFF80
E00380
E001C0
E001C0
E001C0
E001C0
E001C0
E00380
E00F80
FFFE00
FFF800
E01E00
E00E00
E00700
E00700
E00380
E00380
E003C0
E001C0
E001C0
E001E0
ENDCHAR
STARTCHAR  0155
ENCODING  341
SWIDTH  1000 0
DWIDTH  11 0
BBX  9 23 2 8
BITMAP
0E00
1C00
1800
3800
0000
0000
E780
EF80
FF80
F800
F000
E000
E000
E000
E000
E000
E000
E000
E000
E000
E000
E000
E000
ENDCHAR
STARTCHAR  0156
ENCODING  342
SWIDTH  1000 0
DWIDTH  23 0
BBX  19 29 3 2
BITMAP
FFFC00
FFFF00
E00F80
E00380
E001C0
E001C0
E001C0
E001C0
E003C0
E00780
FFFF00
FFFC00
E03C00
E00E00
E00700
E00700
E00380
E00380
E00380
E001C0
E001C0
E001C0
E001E0
00E000
007800
003800
007800
03F000
03E000
ENDCHAR
STARTCHAR  0157
ENCODING  343
SWIDTH  1000 0
DWIDTH  11 0
BBX  10 23 1 2
BITMAP
73C0
77C0
7E40
7800
7000
7000
7000
7000
7000
7000
7000
7000
7000
7000
7000
7000
7000
3000
3C00
0E00
1E00
FE00
F800
ENDCHAR
STARTCHAR  0158
ENCODING  344
SWIDTH  1000 0
DWIDTH  23 0
BBX  19 29 3 8
BITMAP
1C7000
0EE000
06E000
07C000
038000
000000
FFFC00
FFFF00
E00F80
E00380
E001C0
E001C0
E001C0
E001C0
E001C0
E00380
E00F80
FFFE00
FFF800
E01E00
E00E00
E00700
E00700
E00380
E00380
E003C0
E001C0
E001C0
E001E0
ENDCHAR
STARTCHAR  0159
ENCODING  345
SWIDTH  1000 0
DWIDTH  11 0
BBX  11 23 0 8
BITMAP
71C0
3B80
1F00
1F00
0000
0000
39E0
3BE0
3F20
3C00
3800
3800
3800
3800
3800
3800
3800
3800
3800
3800
3800
3800
3800
ENDCHAR
STARTCHAR  015A
ENCODING  346
SWIDTH  1000 0
DWIDTH  21 0
BBX  18 29 1 8
BITMAP
00F000
00E000
01C000
018000
000000
000000
03F000
0FFE00
3FFF00
3C0F80
780380
700380
700380
700000
7C0000
3F8000
1FF800
07FE00
00FF00
000F80
0003C0
0001C0
6001C0
7001C0
7001C0
380380
3F1F00
1FFE00
03F800
ENDCHAR
STARTCHAR  015B
ENCODING  347
SWIDTH  1000 0
DWIDTH  16 0
BBX  14 23 1 8
BITMAP
01E0
03C0
0380
0700
0000
0000
1FC0
7FF0
78F8
E038
E038
E000
FC00
7FC0
1FF0
03F8
003C
001C
E01C
F03C
7878
3FF0
1FC0
ENDCHAR
STARTCHAR  015C
ENCODING  348
SWIDTH  1000 0
DWIDTH  21 0
BBX  18 29 1 8
BITMAP
01E000
03F000
073000
073800
000000
000000
03F800
0FFE00
3E1F00
380780
700380
700380
700380
780000
7C0000
3FC000
1FFC00
07FF00
00FF80
000F80
0003C0
0001C0
6001C0
7001C0
7001C0
380380
3F1F00
0FFE00
03F800
ENDCHAR
STARTCHAR  015D
ENCODING  349
SWIDTH  1000 0
DWIDTH  16 0
BBX  14 23 1 8
BITMAP
0F00
1F80
1DC0
39E0
0000
0000
1FC0
7FF0
78F8
E038
E038
E000
FC00
7FC0
1FF0
03F8
003C
001C
E01C
F03C
7878
3FF0
1FC0
ENDCHAR
STARTCHAR  015E
ENCODING  350
SWIDTH  1000 0
DWIDTH  21 0
BBX  18 29 1 2
BITMAP
03F800
0FFE00
3E1F00
380780
700380
700380
700380
780000
7C0000
3FC000
1FF800
07FE00
00FF80
000F80
0003C0
0001C0
6001C0
7001C0
7001C0
380380
3F1F80
0FFF00
03FC00
006000
007800
001800
003800
01F800
01E000
ENDCHAR
STARTCHAR  015F
ENCODING  351
SWIDTH  1000 0
DWIDTH  16 0
BBX  14 23 1 2
BITMAP
1FC0
3FF0
78F8
E038
E038
E000
FC00
7FC0
3FF0
03F8
007C
001C
E01C
E01C
7838
7FF0
1FE0
0300
03C0
00E0
01E0
0FE0
0F80
ENDCHAR
STARTCHAR  0160
ENCODING  352
SWIDTH  1000 0
DWIDTH  21 0
BBX  18 29 1 8
BITMAP
073800
073000
03F000
01E000
000000
000000
03F800
0FFE00
3E1F00
380780
700380
700380
700380
780000
7C0000
3FC000
1FFC00
07FF00
00FF80
000F80
0003C0
0001C0
6001C0
7001C0
7001C0
380380
3F1F00
0FFE00
03F800
ENDCHAR
STARTCHAR  0161
ENCODING  353
SWIDTH  1000 0
DWIDTH  16 0
BBX  14 23 1 8
BITMAP
38E0
19C0
1F80
0F00
0000
0000
1FC0
7FF0
78F8
E038
E038
E000
FC00
7FC0
1FF0
03F8
003C
001C
E01C
F03C
7878
3FF0
1FC0
ENDCHAR
STARTCHAR  0162
ENCODING  354
SWIDTH  1000 0
DWIDTH  20 0
BBX  18 29 1 2
BITMAP
FFFFC0
FFFFC0
00E000
00E000
00E000
00E000
00E000
00E000
00E000
00E000
00E000
00E000
00E000
00E000
00E000
00E000
00E000
00E000
00E000
00E000
00E000
00E000
00E000
00C000
00F000
003800
007800
01F800
01E000
ENDCHAR
STARTCHAR  0163
ENCODING  355
SWIDTH  1000 0
DWIDTH  10 0
BBX  9 28 1 2
BITMAP
3800
3800
3800
3800
3800
FF00
FF00
3800
3800
3800
3800
3800
3800
3800
3800
3800
3800
3800
3800
3C00
1F00
0F00
0C00
0F00
0380
0780
3F80
3E00
ENDCHAR
STARTCHAR  0164
ENCODING  356
SWIDTH  1000 0
DWIDTH  20 0
BBX  18 29 1 8
BITMAP
071C00
03B800
03B000
01F000
00E000
000000
FFFFC0
FFFFC0
00E000
00E000
00E000
00E000
00E000
00E000
00E000
00E000
00E000
00E000
00E000
00E000
00E000
00E000
00E000
00E000
00E000
00E000
00E000
00E000
00E000
ENDCHAR
STARTCHAR  0165
ENCODING  357
SWIDTH  1000 0
DWIDTH  12 0
BBX  11 24 1 8
BITMAP
00E0
00E0
00E0
3860
38E0
38C0
3800
FF00
FF00
3800
3800
3800
3800
3800
3800
3800
3800
3800
3800
3800
3800
3C00
1F00
0F00
ENDCHAR
STARTCHAR  0166
ENCODING  358
SWIDTH  1000 0
DWIDTH  20 0
BBX  18 23 1 8
BITMAP
FFFFC0
FFFFC0
00E000
00E000
00E000
00E000
00E000
00E000
00E000
3FFF80
3FFF80
00E000
00E000
00E000
00E000
00E000
00E000
00E000
00E000
00E000
00E000
00E000
00E000
ENDCHAR
STARTCHAR  0167
ENCODING  359
SWIDTH  1000 0
DWIDTH  10 0
BBX  8 21 1 8
BITMAP
38
38
38
38
FF
FF
38
38
38
38
FE
FE
38
38
38
38
38
38
3C
3F
0F
ENDCHAR
STARTCHAR  0168
ENCODING  360
SWIDTH  1000 0
DWIDTH  24 0
BBX  18 29 3 8
BITMAP
078C00
0FCC00
0EFC00
0C7800
000000
000000
E001C0
E001C0
E001C0
E001C0
E001C0
E001C0
E001C0
E001C0
E001C0
E001C0
E001C0
E001C0
E001C0
E001C0
E001C0
E001C0
E001C0
F003C0
700380
780780
3F3F00
1FFE00
07F800
ENDCHAR
STARTCHAR  0169
ENCODING  361
SWIDTH  1000 0
DWIDTH  18 0
BBX  14 23 2 8
BITMAP
1E30
3FF0
33E0
0000
0000
0000
E01C
E01C
E01C
E01C
E01C
E01C
E01C
E01C
E01C
E01C
E01C
E01C
E03C
F07C
7DFC
7FDC
1F1C
ENDCHAR
STARTCHAR  016A
ENCODING  362
SWIDTH  1000 0
DWIDTH  24 0
BBX  18 29 3 8
BITMAP
000000
0FFC00
0FFC00
000000
000000
000000
E001C0
E001C0
E001C0
E001C0
E001C0
E001C0
E001C0
E001C0
E001C0
E001C0
E001C0
E001C0
E001C0
E001C0
E001C0
E001C0
E001C0
F003C0
700380
780780
3F3F00
1FFE00
07F800
ENDCHAR
STARTCHAR  016B
ENCODING  363
SWIDTH  1000 0
DWIDTH  18 0
BBX  14 23 2 8
BITMAP
3FF0
3FF0
0000
0000
0000
0000
E01C
E01C
E01C
E01C
E01C
E01C
E01C
E01C
E01C
E01C
E01C
E01C
E03C
F07C
7DFC
7FDC
1F1C
ENDCHAR
STARTCHAR  016C
ENCODING  364
SWIDTH  1000 0
DWIDTH  24 0
BBX  18 29 3 8
BITMAP
0C0C00
061800
07F800
03F000
000000
000000
E001C0
E001C0
E001C0
E001C0
E001C0
E001C0
E001C0
E001C0
E001C0
E001C0
E001C0
E001C0
E001C0
E001C0
E001C0
E001C0
E001C0
F003C0
700380
780780
3FFF00
1FFE00
07F800
ENDCHAR
STARTCHAR  016D
ENCODING  365
SWIDTH  1000 0
DWIDTH  18 0
BBX  14 23 2 8
BITMAP
3030
1CF0
1FE0
0780
0000
0000
E01C
E01C
E01C
E01C
E01C
E01C
E01C
E01C
E01C
E01C
E01C
E01C
E03C
F07C
7DFC
7FDC
1F1C
ENDCHAR
STARTCHAR  016E
ENCODING  366
SWIDTH  1000 0
DWIDTH  24 0
BBX  18 29 3 8
BITMAP
01E000
033000
021000
021000
033000
01E000
E001C0
E001C0
E001C0
E001C0
E001C0
E001C0
E001C0
E001C0
E001C0
E001C0
E001C0
E001C0
E001C0
E001C0
E001C0
E001C0
E001C0
F003C0
700380
780780
3F3F00
1FFE00
07F800
ENDCHAR
STARTCHAR  016F
ENCODING  367
SWIDTH  1000 0
DWIDTH  18 0
BBX  14 24 2 8
BITMAP
0700
0880
0880
0880
0700
0000
0000
E01C
E01C
E01C
E01C
E01C
E01C
E01C
E01C
E01C
E01C
E01C
E01C
E03C
F07C
7DFC
7FDC
1F1C
ENDCHAR
STARTCHAR  0170
ENCODING  368
SWIDTH  1000 0
DWIDTH  24 0
BBX  18 29 3 8
BITMAP
03CE00
039C00
071C00
063800
000000
000000
E001C0
E001C0
E001C0
E001C0
E001C0
E001C0
E001C0
E001C0
E001C0
E001C0
E001C0
E001C0
E001C0
E001C0
E001C0
E001C0
E001C0
F003C0
700380
780780
3F3F00
1FFE00
07F800
ENDCHAR
STARTCHAR  0171
ENCODING  369
SWIDTH  1000 0
DWIDTH  18 0
BBX  15 23 2 8
BITMAP
0F3C
0E78
1C70
18E0
0000
0000
E01C
E01C
E01C
E01C
E01C
E01C
E01C
E01C
E01C
E01C
E01C
E01C
E03C
F07C
7DFC
7FDC
1F1C
ENDCHAR
STARTCHAR  0172
ENCODING  370
SWIDTH  1000 0
DWIDTH  24 0
BBX  18 29 3 2
BITMAP
E001C0
E001C0
E001C0
E001C0
E001C0
E001C0
E001C0
E001C0
E001C0
E001C0
E001C0
E001C0
E001C0
E001C0
E001C0
E001C0
E001C0
F003C0
700380
780780
3F3F00
1FFE00
07F000
00C000
00C000
00C000
00E600
00FE00
007C00
ENDCHAR
STARTCHAR  0173
ENCODING  371
SWIDTH  1000 0
DWIDTH  18 0
BBX  17 23 2 2
BITMAP
E01C00
E01C00
E01C00
E01C00
E01C00
E01C00
E01C00
E01C00
E01C00
E01C00
E01C00
E01C00
E03C00
F07C00
7DFC00
7FDC00
1F1C00
001000
003000
003000
003C80
003F80
001F00
ENDCHAR
STARTCHAR  0174
ENCODING  372
SWIDTH  1000 0
DWIDTH  30 0
BBX  30 29 0 8
BITMAP
00078000
000FC000
000EE000
001CE000
00387000
00000000
7007801C
7007803C
7007C038
700FC038
380EC038
380CC070
380CE070
381CE070
1C1C6070
1C1870E0
1C3870E0
0C3870E0
0E3830C0
0E3039C0
0E7039C0
067019C0
07601980
07E01F80
07E01F80
03E00F80
03C00F00
03C00F00
01C00F00
ENDCHAR
STARTCHAR  0175
ENCODING  373
SWIDTH  1000 0
DWIDTH  23 0
BBX  23 23 0 8
BITMAP
003800
007C00
00EE00
01C700
000000
000000
F0380E
70381E
707C1C
707C1C
707C1C
386C38
38EE38
38EE38
18C630
1DC770
1DC770
0DC370
0D83E0
0F83E0
0F83E0
0701C0
0701C0
ENDCHAR
STARTCHAR  0176
ENCODING  374
SWIDTH  1000 0
DWIDTH  21 0
BBX  22 29 0 8
BITMAP
007000
00F800
01DC00
038E00
038E00
000000
F00078
7800F0
3800E0
3C01E0
1E03C0
0E0380
0F0780
078F00
038E00
03DE00
01DC00
00F800
00F800
007000
007000
007000
007000
007000
007000
007000
007000
007000
007000
ENDCHAR
STARTCHAR  0177
ENCODING  375
SWIDTH  1000 0
DWIDTH  16 0
BBX  16 29 0 2
BITMAP
03C0
07E0
0770
0E38
0000
0000
700F
700E
380E
381E
381C
1C1C
1C38
0C38
0E38
0E70
0670
0760
03E0
03E0
03C0
01C0
01C0
0380
0380
0700
3F00
3E00
3C00
ENDCHAR
STARTCHAR  0178
ENCODING  376
SWIDTH  1000 0
DWIDTH  21 0
BBX  23 28 -1 8
BITMAP
01C700
01C700
01C700
000000
000000
78003C
380078
1C0070
1E00F0
0E01E0
0701C0
0783C0
038380
01C700
01EF00
00EE00
007C00
003C00
003800
003800
003800
003800
003800
003800
003800
003800
003800
003800
ENDCHAR
STARTCHAR  0179
ENCODING  377
SWIDTH  1000 0
DWIDTH  20 0
BBX  18 29 1 8
BITMAP
007800
007000
00E000
00C000
01C000
000000
3FFFC0
3FFFC0
3FFFC0
0003C0
000780
000F00
001E00
001C00
003C00
007800
00F000
01E000
01E000
03C000
078000
0F0000
1E0000
1E0000
3C0000
780000
F00000
FFFFC0
FFFFC0
ENDCHAR
STARTCHAR  017A
ENCODING  378
SWIDTH  1000 0
DWIDTH  17 0
BBX  15 23 1 8
BITMAP
01E0
03C0
0380
0700
0000
0000
FFFC
FFFC
FFFC
0078
00F0
00E0
01E0
03C0
0780
0F00
1E00
1C00
3800
7000
F000
FFFE
FFFE
ENDCHAR
STARTCHAR  017B
ENCODING  379
SWIDTH  1000 0
DWIDTH  20 0
BBX  18 28 1 8
BITMAP
00E000
00E000
00E000
000000
000000
3FFFC0
3FFFC0
0003C0
000780
000700
000F00
001E00
003C00
007800
007800
00F000
01E000
03C000
038000
078000
0F0000
1E0000
3C0000
3C0000
780000
F00000
FFFFC0
FFFFC0
ENDCHAR
STARTCHAR  017C
ENCODING  380
SWIDTH  1000 0
DWIDTH  17 0
BBX  15 23 1 8
BITMAP
0380
0380
0380
0000
0000
0000
FFFC
FFFC
003C
0078
0070
00E0
01E0
03C0
0780
0F00
0E00
1C00
3C00
7800
F000
FFFE
FFFE
ENDCHAR
STARTCHAR  017D
ENCODING  381
SWIDTH  1000 0
DWIDTH  20 0
BBX  18 29 1 8
BITMAP
071C00
03B800
01F800
01F000
00E000
000000
3FFFC0
3FFFC0
0003C0
000380
000700
000F00
001E00
003C00
003800
007800
00F000
01E000
03C000
03C000
078000
0F0000
1E0000
3E0000
3C0000
780000
F00000
FFFFC0
FFFFC0
ENDCHAR
STARTCHAR  017E
ENCODING  382
SWIDTH  1000 0
DWIDTH  17 0
BBX  15 23 1 8
BITMAP
3CF0
1CE0
0FC0
0780
0000
0000
FFFC
FFFC
003C
0078
00F0
01E0
01C0
03C0
0780
0F00
1E00
1C00
3800
7000
F000
FFFE
FFFE
ENDCHAR
STARTCHAR  017F
ENCODING  383
SWIDTH  1000 0
DWIDTH  8 0
BBX  7 23 2 8
BITMAP
3E
7E
F0
E0
E0
E0
E0
E0
E0
E0
E0
E0
E0
E0
E0
E0
E0
E0
E0
E0
E0
E0
E0
ENDCHAR
STARTCHAR  0180
ENCODING  384
SWIDTH  1000 0
DWIDTH  18 0
BBX  17 23 1 8
BITMAP
380000
FFC000
FFC000
380000
380000
380000
39F000
3BFC00
3F3E00
3C0E00
380E00
380700
380700
380700
380700
380700
380700
380700
380E00
3C0E00
3F3C00
3FF800
39F000
ENDCHAR
STARTCHAR  0181
ENCODING  385
SWIDTH  1000 0
DWIDTH  24 0
BBX  23 23 0 8
BITMAP
3FFF80
7FFFE0
F701F0
E70078
E70038
E70038
E70038
070038
070070
0700F0
07FFE0
07FFE0
0700F0
070038
07001C
07001C
07001C
07001C
07001C
070038
0701F8
07FFF0
07FF80
ENDCHAR
STARTCHAR  0182
ENCODING  386
SWIDTH  1000 0
DWIDTH  21 0
BBX  18 23 3 8
BITMAP
FFFE00
FFFE00
E00000
E00000
E00000
E00000
E00000
E00000
E00000
E00000
FFF000
FFFE00
E03F00
E00700
E00380
E00380
E00380
E00380
E00380
E00700
E03F00
FFFE00
FFF000
ENDCHAR
STARTCHAR  0183
ENCODING  387
SWIDTH  1000 0
DWIDTH  17 0
BBX  15 23 2 8
BITMAP
FFF0
FFF0
E000
E000
E000
E000
E7C0
EFF0
FCF8
F038
E018
E01C
E01C
E00C
E00C
E00C
E01C
E01C
E018
F038
FC70
FFE0
E7C0
ENDCHAR
STARTCHAR  0184
ENCODING  388
SWIDTH  1000 0
DWIDTH  21 0
BBX  21 23 0 8
BITMAP
040000
0C0000
1C0000
7C0000
FC0000
7C0000
3C0000
1C0000
1C0000
1C0000
1FFE00
1FFFC0
1C03E0
1C00E0
1C0070
1C0070
1C0070
1C0070
1C00F0
1C01E0
1FFFE0
1FFFC0
1FFE00
ENDCHAR
STARTCHAR  0185
ENCODING  389
SWIDTH  1000 0
DWIDTH  18 0
BBX  17 23 1 8
BITMAP
080000
180000
780000
F80000
F80000
780000
39F000
3BFC00
3F3E00
3C0E00
380E00
380700
380700
380700
380700
380700
380700
380700
380E00
3C0E00
3F3C00
3FF800
39F000
ENDCHAR
STARTCHAR  0186
ENCODING  390
SWIDTH  1000 0
DWIDTH  23 0
BBX  21 23 1 8
BITMAP
03F800
0FFE00
3F1F80
7803C0
7001C0
F000E0
E000E0
0000F0
000070
000070
000070
000070
000070
000070
000070
0000F0
E000E0
7000E0
7001C0
7803C0
3F1F80
0FFE00
03F800
ENDCHAR
STARTCHAR  0187
ENCODING  391
SWIDTH  1000 0
DWIDTH  23 0
BBX  25 25 1 8
BITMAP
00000F00
00001F80
01FC3980
07FFB000
1F8FF000
1C01F000
3800F000
7800F000
70007000
F0000000
E0000000
E0000000
E0000000
E0000000
E0000000
E0000000
E0000000
F0000000
70007000
7000F000
3800E000
1C01E000
1F8FC000
07FF8000
01FC0000
ENDCHAR
STARTCHAR  0188
ENCODING  392
SWIDTH  1000 0
DWIDTH  16 0
BBX  19 21 1 8
BITMAP
000000
0003E0
0007E0
000E20
07CC00
1FFC00
3C7C00
783C00
701C00
E00000
E00000
E00000
E00000
E00000
E00000
E00000
701C00
783C00
3E7800
1FF000
07C000
ENDCHAR
STARTCHAR  0189
ENCODING  393
SWIDTH  1000 0
DWIDTH  24 0
BBX  22 23 1 8
BITMAP
1FFC00
1FFF00
1C0FC0
1C01E0
1C00E0
1C0070
1C0070
1C0038
1C0038
1C0038
FFF038
FFF038
1C0038
1C0038
1C0038
1C0078
1C0070
1C0070
1C00E0
1C01E0
1C0FC0
1FFF00
1FFC00
ENDCHAR
STARTCHAR  018A
ENCODING  394
SWIDTH  1000 0
DWIDTH  26 0
BBX  25 23 0 8
BITMAP
3FFF8000
7FFFE000
F701F800
E7003C00
E7001C00
E7000E00
E7000E00
07000700
07000700
07000700
07000700
07000700
07000700
07000700
07000700
07000F00
07000E00
07000E00
07001C00
07003C00
0701F800
07FFE000
07FF8000
ENDCHAR
STARTCHAR  018B
ENCODING  395
SWIDTH  1000 0
DWIDTH  21 0
BBX  18 23 1 8
BITMAP
1FFF80
1FFF80
000380
000380
000380
000380
000380
000380
000380
000380
07FF80
3FFF80
7C0380
700380
E00380
E00380
E00380
E00380
E00380
700380
7E0380
3FFF80
07FF80
ENDCHAR
STARTCHAR  018C
ENCODING  396
SWIDTH  1000 0
DWIDTH  18 0
BBX  16 23 1 8
BITMAP
1FFE
1FFE
000E
000E
000E
000E
07CE
1FFE
3C7E
781E
700E
E00E
E00E
E00E
E00E
E00E
E00E
E00E
700E
703E
3C7E
1FEE
0FCE
ENDCHAR
STARTCHAR  018D
ENCODING  397
SWIDTH  1000 0
DWIDTH  18 0
BBX  16 23 1 2
BITMAP
07E0
1FF8
3E7C
781E
700E
E00F
E007
E007
E007
E007
E007
F00F
700E
781E
3FFC
1FF0
0780
03C0
01E0
0070
0038
7FFC
7FFC
ENDCHAR
STARTCHAR  018E
ENCODING  398
SWIDTH  1000 0
DWIDTH  22 0
BBX  18 23 2 8
BITMAP
7FFF80
7FFF80
000380
000380
000380
000380
000380
000380
000380
000380
7FFF80
7FFF80
000380
000380
000380
000380
000380
000380
000380
000380
000380
FFFF80
FFFF80
ENDCHAR
STARTCHAR  018F
ENCODING  399
SWIDTH  1000 0
DWIDTH  24 0
BBX  22 23 1 8
BITMAP
01FE00
07FF80
1F87C0
0E01E0
000070
000078
000038
000038
00001C
00001C
FFFFFC
FFFFFC
E0001C
E0001C
E0001C
700038
700038
780078
3C0070
1E01E0
0F87C0
07FF80
01FE00
ENDCHAR
STARTCHAR  0190
ENCODING  400
SWIDTH  1000 0
DWIDTH  21 0
BBX  18 23 2 8
BITMAP
07F000
1FFE00
3E1F00
780700
700780
700000
700000
780000
3C0000
0FE000
1FE000
3E0000
780000
F00000
E00000
E00000
E00000
E00380
F00780
780700
3E3F00
1FFC00
07F000
ENDCHAR
STARTCHAR  0191
ENCODING  401
SWIDTH  1000 0
DWIDTH  20 0
BBX  20 29 -1 2
BITMAP
0FFFF0
0FFFF0
0E0000
0E0000
0E0000
0E0000
0E0000
0E0000
0E0000
0E0000
0FFFC0
0FFFC0
0E0000
0E0000
0E0000
0E0000
0E0000
0E0000
0E0000
0E0000
0E0000
0E0000
0E0000
0E0000
0E0000
0E0000
9E0000
FC0000
F80000
ENDCHAR
STARTCHAR  0192
ENCODING  402
SWIDTH  1000 0
DWIDTH  18 0
BBX  16 29 1 2
BITMAP
003F
007F
0071
00E0
00E0
00E0
07FC
0FFC
01C0
01C0
01C0
01C0
01C0
0380
0380
0380
0380
0380
0380
0700
0700
0700
0700
0700
0700
0E00
8E00
FE00
F800
ENDCHAR
STARTCHAR  0193
ENCODING  403
SWIDTH  1000 0
DWIDTH  24 0
BBX  26 25 1 8
BITMAP
00000780
00000FC0
01FE1CC0
07FF9800
0F87D800
1E01F800
38007800
78007800
70007800
F0000000
E0000000
E0000000
E0000000
E00FF800
E00FF800
E0003800
E0003800
70003800
70003800
78003800
38007800
1E00F800
0F87F800
07FFB800
01FE1800
ENDCHAR
STARTCHAR  0194
ENCODING  404
SWIDTH  1000 0
DWIDTH  22 0
BBX  22 29 0 2
BITMAP
700038
700038
380070
380070
1C00E0
1C00E0
0E01C0
0E01C0
070380
070380
038700
038700
01CE00
01CE00
00FC00
00FC00
007800
007800
007800
007800
00FC00
00FC00
01FE00
01CE00
01CE00
01CE00
01FE00
00FC00
007800
ENDCHAR
STARTCHAR  0195
ENCODING  405
SWIDTH  1000 0
DWIDTH  28 0
BBX  25 23 2 8
BITMAP
E0000000
E0000000
E0000000
E0000000
E0000000
E0000000
E3E00700
EFF00700
FC780700
F83C0700
E01C0700
E01C0700
E01C0700
E01C0700
E01C0700
E01C0700
E01C0700
E01C0700
E01C0700
E00E0E00
E00FBE00
E007FC00
E001F000
ENDCHAR
STARTCHAR  0196
ENCODING  406
SWIDTH  1000 0
DWIDTH  7 0
BBX  4 23 2 8
BITMAP
E0
E0
E0
E0
E0
E0
E0
E0
E0
E0
E0
E0
E0
E0
E0
E0
E0
E0
E0
E0
E0
E0
E0
ENDCHAR
STARTCHAR  0197
ENCODING  407
SWIDTH  1000 0
DWIDTH  10 0
BBX  8 23 1 8
BITMAP
1C
1C
1C
1C
1C
1C
1C
1C
1C
FF
FF
1C
1C
1C
1C
1C
1C
1C
1C
1C
1C
1C
1C
ENDCHAR
STARTCHAR  0198
ENCODING  408
SWIDTH  1000 0
DWIDTH  22 0
BBX  21 23 3 8
BITMAP
E003C0
E007E0
E00F70
E01E30
E03C00
E07800
E0F000
E1E000
E3C000
E78000
EFC000
FFC000
FDE000
F8F000
F07000
E07800
E03C00
E01E00
E00E00
E00F00
E00780
E003C0
E003C0
ENDCHAR
STARTCHAR  0199
ENCODING  409
SWIDTH  1000 0
DWIDTH  16 0
BBX  14 23 2 8
BITMAP
3E00
7E00
F000
E000
E000
E000
E078
E0F0
E1E0
E3C0
E780
EF00
FE00
FF00
FF00
F380
E3C0
E1C0
E0E0
E0F0
E070
E078
E03C
ENDCHAR
STARTCHAR  019A
ENCODING  410
SWIDTH  1000 0
DWIDTH  9 0
BBX  7 23 1 8
BITMAP
38
38
38
38
38
38
38
38
38
FE
FE
38
38
38
38
38
38
38
38
38
38
38
38
ENDCHAR
STARTCHAR  019B
ENCODING  411
SWIDTH  1000 0
DWIDTH  16 0
BBX  16 23 0 8
BITMAP
3C60
3EE0
0F80
0F00
1F80
7180
61C0
01C0
03C0
03E0
07E0
0770
0670
0E70
0E38
1C38
1C38
1C1C
381C
380E
380E
700E
7007
ENDCHAR
STARTCHAR  019C
ENCODING  412
SWIDTH  1000 0
DWIDTH  27 0
BBX  23 23 2 8
BITMAP
E0380E
E0380E
E0380E
E0380E
E0380E
E0380E
E0380E
E0380E
E0380E
E0380E
E0380E
E0380E
E0380E
E0380E
E0380E
E0380E
E0380E
E0380E
E0781E
F0F83E
7BDEFE
7F9FEE
1E078E
ENDCHAR
STARTCHAR  019D
ENCODING  413
SWIDTH  1000 0
DWIDTH  24 0
BBX  23 29 -1 2
BITMAP
0F001C
0F001C
0F801C
0FC01C
0FC01C
0FE01C
0EE01C
0E701C
0E781C
0E381C
0E1C1C
0E1E1C
0E0E1C
0E071C
0E079C
0E039C
0E01DC
0E01FC
0E00FC
0E007C
0E007C
0E003C
0E003C
0E0000
0E0000
0E0000
DE0000
FC0000
F80000
ENDCHAR
STARTCHAR  019E
ENCODING  414
SWIDTH  1000 0
DWIDTH  18 0
BBX  14 23 2 2
BITMAP
E3E0
EFF8
FC78
F83C
E01C
E01C
E01C
E01C
E01C
E01C
E01C
E01C
E01C
E01C
E01C
E01C
E01C
001C
001C
001C
001C
001C
001C
ENDCHAR
STARTCHAR  019F
ENCODING  415
SWIDTH  1000 0
DWIDTH  24 0
BBX  22 23 1 8
BITMAP
01FE00
07FF80
0F87C0
1E01E0
380070
780078
700038
600038
E0001C
E0001C
FFFFFC
FFFFFC
E0001C
E0001C
E0001C
700038
700038
780078
380070
1E01E0
0F87C0
07FF80
01FE00
ENDCHAR
STARTCHAR  01A0
ENCODING  416
SWIDTH  1000 0
DWIDTH  24 0
BBX  22 27 1 8
BITMAP
00001C
00001C
00001C
00000C
01FE0C
07FFCC
0F87FC
1E01F8
3C0070
780078
700038
700038
E0001C
E0001C
E0001C
E0001C
E0001C
E0001C
E0001C
700038
700038
780078
380070
1E01E0
0F87C0
07FF80
01FE00
ENDCHAR
STARTCHAR  01A1
ENCODING  417
SWIDTH  1000 0
DWIDTH  17 0
BBX  16 21 1 8
BITMAP
000E
000E
000E
0006
07C6
1FFE
3EF8
783C
701C
E00E
E00E
E00E
E00E
E00E
E00E
E00E
701C
783C
3EF8
1FF0
07C0
ENDCHAR
STARTCHAR  01A2
ENCODING  418
SWIDTH  1000 0
DWIDTH  28 0
BBX  24 29 1 2
BITMAP
01FE03
07FFFF
1F8FFF
3C01FF
3801C7
7801C7
7001C7
F001C7
E001C7
E001C7
E001C7
E001C7
E001C7
E001C7
E001C7
F001C7
7001C7
7801C7
3801C7
3C01C7
1F8FC7
07FF87
01FC07
000007
000007
000007
000007
000007
000007
ENDCHAR
STARTCHAR  01A3
ENCODING  419
SWIDTH  1000 0
DWIDTH  22 0
BBX  20 23 1 2
BITMAP
07E0E0
1FFFE0
3E7FE0
7838E0
7038E0
E038E0
E038E0
E038E0
E038E0
E038E0
E038E0
E038E0
7038E0
7838E0
3E78E0
1FF8E0
07E0E0
0000E0
0000E0
0000E0
0000E0
0000E0
0000E0
ENDCHAR
STARTCHAR  01A4
ENCODING  420
SWIDTH  1000 0
DWIDTH  23 0
BBX  23 23 0 8
BITMAP
3FFFC0
7FFFF0
F700F8
E70038
E7001C
E7001C
07001C
07001C
07001C
07003C
070078
07FFF0
07FFC0
070000
070000
070000
070000
070000
070000
070000
070000
070000
070000
ENDCHAR
STARTCHAR  01A5
ENCODING  421
SWIDTH  1000 0
DWIDTH  17 0
BBX  15 29 2 2
BITMAP
3E00
7E00
F000
E000
E000
E000
E7C0
EFF0
FCF8
F038
E038
E01C
E01C
E01C
E01C
E01C
E01C
E01C
E038
F038
FCF0
FFE0
E7C0
E000
E000
E000
E000
E000
E000
ENDCHAR
STARTCHAR  01A6
ENCODING  422
SWIDTH  1000 0
DWIDTH  21 0
BBX  19 26 3 5
BITMAP
E00000
E00000
E00000
FFFC00
FFFE00
E00F00
E00700
E00380
E00380
E00380
E00380
E00380
E00700
E03F00
FFFE00
FFF800
E0F000
E07800
E03800
E03C00
E01E00
E00E00
E00F00
000780
0003C0
0003C0
ENDCHAR
STARTCHAR  01A7
ENCODING  423
SWIDTH  1000 0
DWIDTH  22 0
BBX  18 23 2 8
BITMAP
07F000
1FFC00
3E1F00
780700
700380
700380
700380
000780
000F80
00FF00
0FFE00
3FF800
7FC000
7C0000
F00000
E00000
E001C0
E003C0
E00380
700780
3C3F00
1FFE00
07F000
ENDCHAR
STARTCHAR  01A8
ENCODING  424
SWIDTH  1000 0
DWIDTH  16 0
BBX  14 17 1 8
BITMAP
0FE0
3FF8
7C78
701C
701C
003C
00FC
0FF8
3FE0
7F00
F000
E000
E01C
F03C
7878
3FF0
0FE0
ENDCHAR
STARTCHAR  01A9
ENCODING  425
SWIDTH  1000 0
DWIDTH  20 0
BBX  17 23 1 8
BITMAP
FFFF00
FFFF00
E00000
700000
380000
1C0000
1E0000
0F0000
078000
03C000
01E000
01E000
03C000
078000
070000
0F0000
1E0000
3C0000
780000
700000
E00000
FFFF80
FFFF80
ENDCHAR
STARTCHAR  01AA
ENCODING  426
SWIDTH  1000 0
DWIDTH  13 0
BBX  14 29 0 2
BITMAP
3E00
7F00
E380
C1C0
C1C0
E3C0
7FC0
3FC0
01C0
01C0
01C0
01C0
01C0
01C0
01C0
01C0
01C0
01C0
01C0
01C0
01C0
01C0
01C0
01C0
01C0
01C0
01E0
00FC
007C
ENDCHAR
STARTCHAR  01AB
ENCODING  427
SWIDTH  1000 0
DWIDTH  10 0
BBX  9 28 1 2
BITMAP
3800
3800
3800
3800
3800
FF00
FF00
3800
3800
3800
3800
3800
3800
3800
3800
3800
3800
3800
3800
3F00
1F00
0700
0700
0700
0700
2F00
3E00
3C00
ENDCHAR
STARTCHAR  01AC
ENCODING  428
SWIDTH  1000 0
DWIDTH  21 0
BBX  19 23 1 8
BITMAP
3FFFE0
7FFFE0
F0E000
E0E000
E0E000
E0E000
00E000
00E000
00E000
00E000
00E000
00E000
00E000
00E000
00E000
00E000
00E000
00E000
00E000
00E000
00E000
00E000
00E000
ENDCHAR
STARTCHAR  01AD
ENCODING  429
SWIDTH  1000 0
DWIDTH  10 0
BBX  9 23 1 8
BITMAP
0F80
1F80
3C00
3800
3800
3800
FF00
FF00
3800
3800
3800
3800
3800
3800
3800
3800
3800
3800
3800
3800
3C00
3F00
0F00
ENDCHAR
STARTCHAR  01AE
ENCODING  430
SWIDTH  1000 0
DWIDTH  20 0
BBX  18 29 1 2
BITMAP
FFFFC0
FFFFC0
00E000
00E000
00E000
00E000
00E000
00E000
00E000
00E000
00E000
00E000
00E000
00E000
00E000
00E000
00E000
00E000
00E000
00E000
00E000
00E000
00E000
00E000
00E000
00E000
00F000
007C00
003C00
ENDCHAR
STARTCHAR  01AF
ENCODING  431
SWIDTH  1000 0
DWIDTH  24 0
BBX  20 29 3 8
BITMAP
0000F0
0000F0
0000F0
000030
000030
000070
E001E0
E001C0
E001C0
E001C0
E001C0
E001C0
E001C0
E001C0
E001C0
E001C0
E001C0
E001C0
E001C0
E001C0
E001C0
E001C0
E001C0
F003C0
700380
780780
3F3F00
1FFE00
07F800
ENDCHAR
STARTCHAR  01B0
ENCODING  432
SWIDTH  1000 0
DWIDTH  18 0
BBX  15 22 2 8
BITMAP
000E
000E
000E
0006
0006
E01E
E01C
E01C
E01C
E01C
E01C
E01C
E01C
E01C
E01C
E01C
E01C
E03C
F07C
7DFC
7FDC
1F1C
ENDCHAR
STARTCHAR  01B1
ENCODING  433
SWIDTH  1000 0
DWIDTH  25 0
BBX  21 23 2 8
BITMAP
FF8FF8
FF8FF8
078F00
0E0380
1C01C0
3800E0
700070
700070
F00078
E00038
E00038
E00038
E00038
E00038
E00038
E00038
700070
700070
3800E0
3C01E0
1F8FC0
07FF00
01FC00
ENDCHAR
STARTCHAR  01B2
ENCODING  434
SWIDTH  1000 0
DWIDTH  24 0
BBX  18 23 3 8
BITMAP
E03F00
E03F80
E023C0
E001C0
E001C0
E001C0
E001C0
E001C0
E001C0
E001C0
E001C0
E001C0
E001C0
E001C0
E00380
E00380
E00380
F00380
700700
780F00
3F3E00
1FFC00
07F000
ENDCHAR
STARTCHAR  01B3
ENCODING  435
SWIDTH  1000 0
DWIDTH  25 0
BBX  25 23 1 8
BITMAP
3E000F00
7F001E00
F3801C00
E3803C00
E1C07800
E1E07000
00E0F000
0071E000
0071C000
003BC000
003F8000
001F0000
000E0000
000E0000
000E0000
000E0000
000E0000
000E0000
000E0000
000E0000
000E0000
000E0000
000E0000
ENDCHAR
STARTCHAR  01B4
ENCODING  436
SWIDTH  1000 0
DWIDTH  16 0
BBX  23 29 0 2
BITMAP
0000F0
0001FC
0003DE
000384
000380
000700
700700
700E00
380E00
380E00
381C00
1C1C00
1C1C00
0C3800
0E3800
0E7000
067000
077000
03E000
03E000
03C000
01C000
01C000
038000
038000
070000
3F0000
3E0000
3C0000
ENDCHAR
STARTCHAR  01B5
ENCODING  437
SWIDTH  1000 0
DWIDTH  20 0
BBX  18 23 1 8
BITMAP
3FFFC0
3FFFC0
0003C0
000780
000F00
000F00
001E00
003C00
007800
007000
3FFF00
3FFF00
03C000
078000
070000
0E0000
1C0000
3C0000
380000
700000
E00000
FFFFC0
FFFFC0
ENDCHAR
STARTCHAR  01B6
ENCODING  438
SWIDTH  1000 0
DWIDTH  17 0
BBX  15 17 1 8
BITMAP
FFFC
FFFC
003C
0078
00F0
00F0
01E0
7FF8
7FF8
0F00
1E00
3C00
3800
7800
F000
FFFE
FFFE
ENDCHAR
STARTCHAR  01B7
ENCODING  439
SWIDTH  1000 0
DWIDTH  19 0
BBX  16 29 1 2
BITMAP
7FFF
7FFF
000F
001E
003C
003C
0078
00F0
01E0
03C0
03C0
07F0
07F8
00FC
001E
000E
000F
0007
0007
0007
0007
0007
0007
000E
001E
C01C
F8F8
FFF0
1FC0
ENDCHAR
STARTCHAR  01B8
ENCODING  440
SWIDTH  1000 0
DWIDTH  17 0
BBX  16 29 1 2
BITMAP
FFFE
FFFE
F000
7800
3800
1C00
1E00
0F00
0780
0380
03C0
0FE0
1FE0
3F00
7800
7000
F000
E000
E000
E000
E000
E000
E000
7000
7000
3803
3F1F
0FFF
03F8
ENDCHAR
STARTCHAR  01B9
ENCODING  441
SWIDTH  1000 0
DWIDTH  15 0
BBX  14 23 1 2
BITMAP
FFF0
FFF0
F000
7800
3800
1C00
0E00
0F00
1F00
3C00
7800
7000
E000
E000
E000
E000
E000
E000
7000
780C
3E3C
1FFC
07E0
ENDCHAR
STARTCHAR  01BA
ENCODING  442
SWIDTH  1000 0
DWIDTH  15 0
BBX  13 23 1 2
BITMAP
7FF8
7FF8
0038
0070
00E0
01C0
03C0
07F0
0070
0038
0038
0038
00F8
0FF0
3FE0
7F00
F000
E000
E008
E018
78F8
3FF8
0FC0
ENDCHAR
STARTCHAR  01BB
ENCODING  443
SWIDTH  1000 0
DWIDTH  18 0
BBX  15 23 1 8
BITMAP
0FE0
1FF8
7C7C
701C
F00E
E00E
000E
000E
001E
001C
FFFE
FFFE
00F0
01E0
07C0
0F80
1E00
3C00
3800
7000
F000
FFFE
FFFE
ENDCHAR
STARTCHAR  01BC
ENCODING  444
SWIDTH  1000 0
DWIDTH  18 0
BBX  16 23 1 8
BITMAP
FFFE
FFFE
7000
7000
7000
7000
7000
7000
77F0
7FFC
783C
700E
000F
0007
0007
0007
0007
6007
700E
781E
3E7C
1FF8
07E0
ENDCHAR
STARTCHAR  01BD
ENCODING  445
SWIDTH  1000 0
DWIDTH  15 0
BBX  14 17 1 8
BITMAP
FFF8
FFF8
3800
3800
3800
3800
3FC0
3FF0
01F0
0038
0038
0038
0038
C078
F0F0
FFE0
3F80
ENDCHAR
STARTCHAR  01BE
ENCODING  446
SWIDTH  1000 0
DWIDTH  17 0
BBX  16 21 1 8
BITMAP
3800
3800
3800
3800
FF00
FF00
3800
3800
3800
3C00
3F80
1FF0
07FC
00FE
001E
000E
380E
380E
1E3C
1FF8
07E0
ENDCHAR
STARTCHAR  01BF
ENCODING  447
SWIDTH  1000 0
DWIDTH  17 0
BBX  15 23 2 2
BITMAP
E7E0
FFF0
FCF8
F038
E01C
E01C
E01C
E01C
E01C
E01C
E03C
E038
E038
E070
E0E0
E1E0
E3C0
EF80
FE00
FC00
F000
E000
E000
ENDCHAR
STARTCHAR  01C0
ENCODING  448
SWIDTH  1000 0
DWIDTH  9 0
BBX  4 29 3 2
BITMAP
E0
E0
E0
E0
E0
E0
E0
E0
E0
E0
E0
E0
E0
E0
E0
E0
E0
E0
E0
E0
E0
E0
E0
E0
E0
E0
E0
E0
E0
ENDCHAR
STARTCHAR  01C1
ENCODING  449
SWIDTH  1000 0
DWIDTH  9 0
BBX  7 29 1 2
BITMAP
EE
EE
EE
EE
EE
EE
EE
EE
EE
EE
EE
EE
EE
EE
EE
EE
EE
EE
EE
EE
EE
EE
EE
EE
EE
EE
EE
EE
EE
ENDCHAR
STARTCHAR  01C2
ENCODING  450
SWIDTH  1000 0
DWIDTH  23 0
BBX  17 29 3 2
BITMAP
01C000
01C000
01C000
01C000
01C000
01C000
01C000
01C000
01C000
FFFF80
FFFF80
01C000
01C000
01C000
01C000
FFFF80
FFFF80
01C000
01C000
01C000
01C000
01C000
01C000
01C000
01C000
01C000
01C000
01C000
01C000
ENDCHAR
STARTCHAR  01C3
ENCODING  451
SWIDTH  1000 0
DWIDTH  9 0
BBX  4 23 3 8
BITMAP
E0
E0
E0
E0
E0
E0
E0
E0
E0
E0
E0
E0
E0
E0
E0
E0
E0
00
00
00
E0
E0
E0
ENDCHAR
STARTCHAR  01C4
ENCODING  452
SWIDTH  1000 0
DWIDTH  42 0
BBX  38 29 3 8
BITMAP
000000E380
0000007700
0000003F00
0000003E00
0000001C00
0000000000
FFF007FFF8
FFFC07FFF8
E03F000078
E007800070
E0038000E0
E001C001E0
E001C003C0
E001E00380
E000E00700
E000E00F00
E000E01E00
E000E01C00
E000E03800
E000E07800
E000E0F000
E001E0E000
E001C1C000
E001C3C000
E003838000
E007870000
E03F0E0000
FFFC0FFFFC
FFF00FFFFC
ENDCHAR
STARTCHAR  01C5
ENCODING  453
SWIDTH  1000 0
DWIDTH  39 0
BBX  35 23 3 8
BITMAP
FFF003CF00
FFFC01FE00
E03F00FC00
E007807800
E003800000
E001C00000
E001CFFFC0
E001EFFFC0
E000E003C0
E000E00780
E000E00F00
E000E01E00
E000E01C00
E000E03C00
E000E07800
E001E0F000
E001C1E000
E001C1C000
E003838000
E007870000
E03F0F0000
FFFC0FFFE0
FFF00FFFE0
ENDCHAR
STARTCHAR  01C6
ENCODING  454
SWIDTH  1000 0
DWIDTH  34 0
BBX  32 23 1 8
BITMAP
000E1E78
000E0E70
000E07E0
000E03C0
000E0000
000E0000
07CE7FFE
1FFE7FFE
3E7E001E
781E003C
700E0078
E00E00F0
E00E00E0
E00E01E0
E00E03C0
E00E0780
E00E0F00
E00E0E00
700E1C00
701E3800
3C7E7800
1FEE7FFF
0FCE7FFF
ENDCHAR
STARTCHAR  01C7
ENCODING  455
SWIDTH  1000 0
DWIDTH  34 0
BBX  29 23 3 8
BITMAP
E0000070
E0000070
E0000070
E0000070
E0000070
E0000070
E0000070
E0000070
E0000070
E0000070
E0000070
E0000070
E0000070
E0000070
E0000070
E0000070
E000E070
E000E070
E000E070
E000F0E0
FFFC79E0
FFFC3FC0
FFFC1F80
ENDCHAR
STARTCHAR  01C8
ENCODING  456
SWIDTH  1000 0
DWIDTH  25 0
BBX  21 29 3 2
BITMAP
E00070
E00070
E00070
E00000
E00000
E00000
E00070
E00070
E00070
E00070
E00070
E00070
E00070
E00070
E00070
E00070
E00070
E00070
E00070
E00070
FFFC70
FFFC70
FFFC70
000070
000070
000070
0002F0
0003E0
0003C0
ENDCHAR
STARTCHAR  01C9
ENCODING  457
SWIDTH  1000 0
DWIDTH  13 0
BBX  10 29 2 2
BITMAP
E380
E380
E380
E000
E000
E000
E380
E380
E380
E380
E380
E380
E380
E380
E380
E380
E380
E380
E380
E380
E380
E380
E380
0380
0380
0380
1780
1F00
1E00
ENDCHAR
STARTCHAR  01CA
ENCODING  458
SWIDTH  1000 0
DWIDTH  39 0
BBX  33 23 3 8
BITMAP
F001C00380
F001C00380
F801C00380
FC01C00380
FC01C00380
FE01C00380
EE01C00380
E701C00380
E781C00380
E381C00380
E1C1C00380
E1E1C00380
E0E1C00380
E071C00380
E079C00380
E039C00380
E01DCE0380
E01FCE0380
E00FCE0380
E007CF0700
E007C78F00
E003C3FE00
E003C1F800
ENDCHAR
STARTCHAR  01CB
ENCODING  459
SWIDTH  1000 0
DWIDTH  29 0
BBX  25 29 3 2
BITMAP
F001C700
F001C700
F801C700
FC01C000
FC01C000
EE01C000
EE01C700
E701C700
E381C700
E381C700
E1C1C700
E1E1C700
E0E1C700
E071C700
E079C700
E039C700
E01DC700
E01FC700
E00FC700
E007C700
E007C700
E003C700
E003C700
00000700
00000700
00000700
00002F00
00003E00
00003C00
ENDCHAR
STARTCHAR  01CC
ENCODING  460
SWIDTH  1000 0
DWIDTH  24 0
BBX  20 29 2 2
BITMAP
000070
000070
000070
000000
000000
000000
E3E070
EFF070
FC7870
F83C70
E01C70
E01C70
E01C70
E01C70
E01C70
E01C70
E01C70
E01C70
E01C70
E01C70
E01C70
E01C70
E01C70
000070
000070
000070
0002F0
0003E0
0003C0
ENDCHAR
STARTCHAR  01CD
ENCODING  461
SWIDTH  1000 0
DWIDTH  21 0
BBX  23 29 -1 8
BITMAP
01C700
00EE00
00EC00
007C00
003800
000000
003800
007C00
007C00
00EC00
00EE00
00CE00
01C700
01C700
038700
038380
038380
0701C0
0701C0
0701E0
0FFFE0
0FFFE0
1E00F0
1C0070
1C0078
380038
380038
38003C
70001C
ENDCHAR
STARTCHAR  01CE
ENCODING  462
SWIDTH  1000 0
DWIDTH  17 0
BBX  15 23 1 8
BITMAP
1C70
0EE0
07C0
0380
0000
0000
0FE0
3FF8
7C78
701C
701C
001C
07FC
3FFC
7E1C
701C
E01C
E01C
E01C
E03C
78FC
7FDC
1F9C
ENDCHAR
STARTCHAR  01CF
ENCODING  463
SWIDTH  1000 0
DWIDTH  9 0
BBX  11 29 -1 8
BITMAP
71C0
3B80
3B80
1F00
0E00
0000
0E00
0E00
0E00
0E00
0E00
0E00
0E00
0E00
0E00
0E00
0E00
0E00
0E00
0E00
0E00
0E00
0E00
0E00
0E00
0E00
0E00
0E00
0E00
ENDCHAR
STARTCHAR  01D0
ENCODING  464
SWIDTH  1000 0
DWIDTH  7 0
BBX  11 23 -2 8
BITMAP
71C0
3B80
1F00
0E00
0000
0000
0E00
0E00
0E00
0E00
0E00
0E00
0E00
0E00
0E00
0E00
0E00
0E00
0E00
0E00
0E00
0E00
0E00
ENDCHAR
STARTCHAR  01D1
ENCODING  465
SWIDTH  1000 0
DWIDTH  24 0
BBX  22 29 1 8
BITMAP
03CF00
01CE00
00FC00
007800
000000
000000
01FC00
07FF80
0F87C0
1E01E0
3C0070
780078
700038
700038
E0001C
E0001C
E0001C
E0001C
E0001C
E0001C
E0001C
700038
700038
780078
380070
1E01E0
0F87C0
07FF80
01FE00
ENDCHAR
STARTCHAR  01D2
ENCODING  466
SWIDTH  1000 0
DWIDTH  18 0
BBX  16 23 1 8
BITMAP
1E78
0E70
07E0
03C0
0000
0000
07E0
1FF8
3E7C
781E
700E
E00F
E007
E007
E007
E007
E007
E007
700E
781E
3E7C
1FF8
07E0
ENDCHAR
STARTCHAR  01D3
ENCODING  467
SWIDTH  1000 0
DWIDTH  24 0
BBX  18 29 3 8
BITMAP
071C00
03B800
01F000
01E000
000000
000000
E001C0
E001C0
E001C0
E001C0
E001C0
E001C0
E001C0
E001C0
E001C0
E001C0
E001C0
E001C0
E001C0
E001C0
E001C0
E001C0
E001C0
F003C0
700380
780780
3FFF00
1FFE00
07F800
ENDCHAR
STARTCHAR  01D4
ENCODING  468
SWIDTH  1000 0
DWIDTH  18 0
BBX  14 23 2 8
BITMAP
3CF0
1CE0
0FC0
0780
0000
0000
E01C
E01C
E01C
E01C
E01C
E01C
E01C
E01C
E01C
E01C
E01C
E01C
E03C
F07C
7DFC
7FDC
1F1C
ENDCHAR
STARTCHAR  01D5
ENCODING  469
SWIDTH  1000 0
DWIDTH  24 0
BBX  18 29 3 8
BITMAP
0FFC00
0FFC00
000000
0E3800
0E3800
000000
E001C0
E001C0
E001C0
E001C0
E001C0
E001C0
E001C0
E001C0
E001C0
E001C0
E001C0
E001C0
E001C0
E001C0
E001C0
E001C0
E001C0
F003C0
700380
780780
3F3F00
1FFE00
07F800
ENDCHAR
STARTCHAR  01D6
ENCODING  470
SWIDTH  1000 0
DWIDTH  18 0
BBX  14 27 2 8
BITMAP
3FF0
3FF0
0000
0000
38E0
38E0
38E0
0000
0000
0000
E01C
E01C
E01C
E01C
E01C
E01C
E01C
E01C
E01C
E01C
E01C
E01C
E03C
F07C
7DFC
7FDC
1F1C
ENDCHAR
STARTCHAR  01D7
ENCODING  471
SWIDTH  1000 0
DWIDTH  24 0
BBX  18 30 3 8
BITMAP
000000
007000
00E000
000000
071C00
071C00
000000
E001C0
E001C0
E001C0
E001C0
E001C0
E001C0
E001C0
E001C0
E001C0
E001C0
E001C0
E001C0
E001C0
E001C0
E001C0
E001C0
E001C0
F003C0
700380
780780
3F3F00
1FFE00
07F800
ENDCHAR
STARTCHAR  01D8
ENCODING  472
SWIDTH  1000 0
DWIDTH  18 0
BBX  14 27 2 8
BITMAP
03C0
0380
0700
0000
38E0
38E0
38E0
0000
0000
0000
E01C
E01C
E01C
E01C
E01C
E01C
E01C
E01C
E01C
E01C
E01C
E01C
E03C
F07C
7DFC
7FDC
1F1C
ENDCHAR
STARTCHAR  01D9
ENCODING  473
SWIDTH  1000 0
DWIDTH  24 0
BBX  18 29 3 8
BITMAP
073800
01F000
000000
071C00
071C00
000000
E001C0
E001C0
E001C0
E001C0
E001C0
E001C0
E001C0
E001C0
E001C0
E001C0
E001C0
E001C0
E001C0
E001C0
E001C0
E001C0
E001C0
F003C0
700380
780780
3F3F00
1FFE00
07F800
ENDCHAR
STARTCHAR  01DA
ENCODING  474
SWIDTH  1000 0
DWIDTH  18 0
BBX  14 30 2 8
BITMAP
78F0
38E0
1DC0
0F80
0700
0000
0000
38E0
38E0
38E0
0000
0000
0000
E01C
E01C
E01C
E01C
E01C
E01C
E01C
E01C
E01C
E01C
E01C
E01C
E03C
F07C
7DFC
7FDC
1F1C
ENDCHAR
STARTCHAR  01DB
ENCODING  475
SWIDTH  1000 0
DWIDTH  24 0
BBX  18 30 3 8
BITMAP
000000
01C000
00E000
000000
071C00
071C00
000000
E001C0
E001C0
E001C0
E001C0
E001C0
E001C0
E001C0
E001C0
E001C0
E001C0
E001C0
E001C0
E001C0
E001C0
E001C0
E001C0
E001C0
F003C0
700380
780780
3F3F00
1FFE00
07F800
ENDCHAR
STARTCHAR  01DC
ENCODING  476
SWIDTH  1000 0
DWIDTH  18 0
BBX  14 27 2 8
BITMAP
0E00
0600
0700
0000
38E0
38E0
38E0
0000
0000
0000
E01C
E01C
E01C
E01C
E01C
E01C
E01C
E01C
E01C
E01C
E01C
E01C
E03C
F07C
7DFC
7FDC
1F1C
ENDCHAR
STARTCHAR  01DD
ENCODING  477
SWIDTH  1000 0
DWIDTH  18 0
BBX  17 17 1 8
BITMAP
07E000
1FF800
3E7C00
781E00
700E00
000700
000700
000700
FFFF00
7FFF00
700700
700700
700E00
381E00
3E7C00
1FF800
07E000
ENDCHAR
STARTCHAR  01DE
ENCODING  478
SWIDTH  1000 0
DWIDTH  22 0
BBX  23 29 0 8
BITMAP
03FF00
03FF00
000000
038E00
038E00
000000
007000
00F800
00F800
01DC00
01DC00
019C00
038E00
038E00
030700
070700
070780
060380
0E0380
0C01C0
1FFFC0
1FFFE0
1C00E0
3800F0
380070
380070
700038
700038
70003C
ENDCHAR
STARTCHAR  01DF
ENCODING  479
SWIDTH  1000 0
DWIDTH  17 0
BBX  15 27 1 8
BITMAP
1FF8
1FF8
0000
0000
1C70
1C70
1C70
0000
0000
0000
0FE0
3FF8
7C78
701C
701C
001C
07FC
3FFC
7E1C
701C
E01C
E01C
E01C
E03C
78FC
7FDC
1F9C
ENDCHAR
STARTCHAR  01E0
ENCODING  480
SWIDTH  1000 0
DWIDTH  21 0
BBX  23 29 -1 8
BITMAP
03FF00
03FF00
000000
007000
007000
000000
007000
00F800
00F800
00DC00
01DC00
01CE00
038E00
038E00
038700
070700
070380
070380
0E01C0
0E01C0
0FFFC0
1FFFE0
1C00E0
3C0070
380070
380078
780038
70003C
70001C
ENDCHAR
STARTCHAR  01E1
ENCODING  481
SWIDTH  1000 0
DWIDTH  17 0
BBX  15 27 1 8
BITMAP
1FF8
1FF8
0000
0000
0380
0380
0380
0000
0000
0000
0FE0
3FF8
7C78
701C
701C
001C
07FC
3FFC
7E1C
701C
E01C
E01C
E01C
E03C
78FC
7FDC
1F9C
ENDCHAR
STARTCHAR  01E2
ENCODING  482
SWIDTH  1000 0
DWIDTH  32 0
BBX  31 28 -1 8
BITMAP
00007FE0
00007FE0
00000000
00000000
00000000
0003FFFE
0007FFFE
000EE000
000EE000
001CE000
001CE000
0038E000
0038E000
0070E000
00F0E000
00E0FFFC
01E0FFFC
01C0E000
03C0E000
03FFE000
07FFE000
0F00E000
0E00E000
1E00E000
1C00E000
3C00E000
3800FFFE
7800FFFE
ENDCHAR
STARTCHAR  01E3
ENCODING  483
SWIDTH  1000 0
DWIDTH  28 0
BBX  26 23 1 8
BITMAP
00FFC000
00FFC000
00000000
00000000
00000000
00000000
0FE0F800
3FF3FE00
7CFF8F00
701E0380
601E0380
001C01C0
07FC01C0
3FFFFFC0
7E1FFFC0
701C0000
E01C0000
E01C0000
E03E01C0
E03F0380
79F7CF80
7FE3FF00
1F80FC00
ENDCHAR
STARTCHAR  01E4
ENCODING  484
SWIDTH  1000 0
DWIDTH  25 0
BBX  23 23 1 8
BITMAP
01FE00
07FF80
0F87C0
1E01E0
3800F0
780070
700078
700000
E00000
E00000
E00000
E00FF8
E00FF8
E00038
E00038
700038
700FFE
780FFE
380078
1E00F8
0F87F8
07FFB8
01FE18
ENDCHAR
STARTCHAR  01E5
ENCODING  485
SWIDTH  1000 0
DWIDTH  18 0
BBX  16 23 1 2
BITMAP
07CE
1FFE
3C7E
781E
700E
E00E
E00E
E00E
E00E
E00E
E00E
E00E
700E
703E
3C7E
1FEE
0FCE
000E
FFFF
FFFF
303C
3FF8
3FE0
ENDCHAR
STARTCHAR  01E6
ENCODING  486
SWIDTH  1000 0
DWIDTH  24 0
BBX  22 29 1 8
BITMAP
038E00
01DC00
00F800
007800
000000
000000
01FE00
07FF80
0F8FC0
1E01E0
3800F0
780070
700078
700000
E00000
E00000
E00000
E00FF8
E00FF8
E00038
E00038
700038
700038
780038
380078
1E00F8
0F87F8
07FFB8
01FE18
ENDCHAR
STARTCHAR  01E7
ENCODING  487
SWIDTH  1000 0
DWIDTH  18 0
BBX  16 29 1 2
BITMAP
1C70
0E70
07E0
03C0
0000
0000
07CE
1FFE
3E7E
781E
700E
E00E
E00E
E00E
E00E
E00E
E00E
E00E
700E
703E
3C7E
1FEE
0FCE
000E
700E
701C
3C7C
1FF8
0FE0
ENDCHAR
STARTCHAR  01E8
ENCODING  488
SWIDTH  1000 0
DWIDTH  22 0
BBX  19 29 3 8
BITMAP
0F3C00
073800
03F000
01E000
01E000
000000
E003C0
E00780
E00F00
E01E00
E03C00
E07800
E0F000
E1E000
E3C000
E78000
EF8000
FFC000
FDE000
F8F000
F07000
E07800
E03C00
E01E00
E00E00
E00F00
E00780
E003C0
E003C0
ENDCHAR
STARTCHAR  01E9
ENCODING  489
SWIDTH  1000 0
DWIDTH  16 0
BBX  14 29 2 8
BITMAP
3CF0
1CE0
0FC0
0780
0700
0000
E000
E000
E000
E000
E000
E000
E078
E0F0
E1E0
E3C0
E780
EF00
FE00
FF00
FF00
F380
E3C0
E1C0
E1E0
E0F0
E070
E078
E038
ENDCHAR
STARTCHAR  01EA
ENCODING  490
SWIDTH  1000 0
DWIDTH  24 0
BBX  22 29 1 2
BITMAP
01FE00
07FF80
0F87C0
1E01E0
380070
780078
700038
700038
E0001C
E0001C
E0001C
E0001C
E0001C
E0001C
E0001C
700038
700038
780078
380070
1E01E0
0F87C0
07FF80
01FC00
00C000
00C000
00C000
00E200
00FE00
003C00
ENDCHAR
STARTCHAR  01EB
ENCODING  491
SWIDTH  1000 0
DWIDTH  18 0
BBX  16 23 1 2
BITMAP
07E0
1FF8
3E7C
781E
700E
E00F
E007
E007
E007
E007
E007
E00F
700E
781E
3E7C
1FF8
07E0
0600
0600
0600
0710
03F0
01E0
ENDCHAR
STARTCHAR  01EC
ENCODING  492
SWIDTH  1000 0
DWIDTH  24 0
BBX  22 35 1 2
BITMAP
000000
03FF00
03FF00
000000
000000
000000
01FE00
07FF80
0F87C0
1E01E0
380070
780078
700038
700038
E0001C
E0001C
E0001C
E0001C
E0001C
E0001C
E0001C
700038
700038
780078
380070
1E01E0
0F87C0
07FF80
01FC00
00C000
00C000
00C000
00E200
007E00
003C00
ENDCHAR
STARTCHAR  01ED
ENCODING  493
SWIDTH  1000 0
DWIDTH  18 0
BBX  16 29 1 2
BITMAP
1FF8
1FF8
0000
0000
0000
0000
07E0
1FF8
3E7C
781E
700E
E00F
E007
E007
E007
E007
E007
E00F
700E
781E
3E7C
1FF8
07E0
0600
0600
0600
0710
03F0
01E0
ENDCHAR
STARTCHAR  01EE
ENCODING  494
SWIDTH  1000 0
DWIDTH  19 0
BBX  16 36 1 2
BITMAP
0E3C
0E38
0770
03E0
01C0
0000
0000
7FFF
7FFF
000F
001E
003C
003C
0078
00F0
01E0
03C0
03C0
07F0
07F8
00FC
001E
000E
000F
0007
0007
0007
0007
0007
0007
000E
001E
C01C
F8F8
FFF0
1FC0
ENDCHAR
STARTCHAR  01EF
ENCODING  495
SWIDTH  1000 0
DWIDTH  15 0
BBX  14 29 1 2
BITMAP
38E0
1DC0
0F80
0700
0000
0000
7FF8
7FF8
0078
00F0
00E0
01C0
0380
0780
07C0
01E0
0070
0070
0038
0038
0038
0038
0038
0038
0078
8070
F3E0
FFC0
3F80
ENDCHAR
STARTCHAR  01F0
ENCODING  496
SWIDTH  1000 0
DWIDTH  7 0
BBX  11 29 -2 2
BITMAP
71C0
3B80
1F00
0E00
0000
0000
0E00
0E00
0E00
0E00
0E00
0E00
0E00
0E00
0E00
0E00
0E00
0E00
0E00
0E00
0E00
0E00
0E00
0E00
0E00
0E00
FE00
FC00
F800
ENDCHAR
STARTCHAR  01F1
ENCODING  497
SWIDTH  1000 0
DWIDTH  42 0
BBX  38 23 3 8
BITMAP
FFF007FFF8
FFFC07FFF8
E03F000078
E007800070
E0038000E0
E001C001E0
E001C003C0
E001E00380
E000E00700
E000E00F00
E000E01E00
E000E01C00
E000E03800
E000E07800
E000E0F000
E001E0E000
E001C1C000
E001C3C000
E003838000
E007870000
E03F0E0000
FFFC0FFFFC
FFF00FFFFC
ENDCHAR
STARTCHAR  01F2
ENCODING  498
SWIDTH  1000 0
DWIDTH  39 0
BBX  35 23 3 8
BITMAP
FFF0000000
FFFC000000
E03F000000
E007800000
E003800000
E001C00000
E001CFFFC0
E001EFFFC0
E000E003C0
E000E00780
E000E00F00
E000E01E00
E000E01C00
E000E03C00
E000E07800
E001E0F000
E001C1E000
E001C1C000
E003838000
E007870000
E03F0F0000
FFFC0FFFE0
FFF00FFFE0
ENDCHAR
STARTCHAR  01F3
ENCODING  499
SWIDTH  1000 0
DWIDTH  34 0
BBX  32 23 1 8
BITMAP
000E0000
000E0000
000E0000
000E0000
000E0000
000E0000
07CE7FFE
1FFE7FFE
3E7E001E
781E003C
700E0078
E00E00F0
E00E00E0
E00E01E0
E00E03C0
E00E0780
E00E0F00
E00E0E00
700E1C00
701E3800
3C7E7800
1FEE7FFF
0FCE7FFF
ENDCHAR
STARTCHAR  01F4
ENCODING  500
SWIDTH  1000 0
DWIDTH  24 0
BBX  22 29 1 8
BITMAP
003C00
003800
007000
006000
000000
000000
01FE00
07FF80
0FFFC0
1E01E0
3C00F0
780070
700078
700000
E00000
E00000
E00000
E00FF8
E00FF8
E00038
E00038
700038
700038
780038
380078
1E00F8
0F87F8
07FFB8
01FE18
ENDCHAR
STARTCHAR  01F5
ENCODING  501
SWIDTH  1000 0
DWIDTH  18 0
BBX  16 29 1 2
BITMAP
00E0
01E0
01C0
0380
0000
0000
07CE
1FFE
3E7E
781E
700E
E00E
E00E
E00E
E00E
E00E
E00E
E00E
700E
703E
3C7E
1FEE
0FCE
000E
700E
701C
3C7C
1FF8
0FE0
ENDCHAR
STARTCHAR  01F6
ENCODING  502
SWIDTH  1000 0
DWIDTH  34 0
BBX  29 23 3 8
BITMAP
E001C000
E001C000
E001C000
E001C000
E001C000
E001C000
E001C038
E001C038
E001C038
FFFFC038
FFFFC038
E001C038
E001C038
E001C038
E001C038
E001C038
E001C038
E001C038
E001C078
E000E070
E000F9F0
E0003FE0
E0001F80
ENDCHAR
STARTCHAR  01F7
ENCODING  503
SWIDTH  1000 0
DWIDTH  17 0
BBX  15 29 2 2
BITMAP
E7E0
FFF0
FCF8
F038
E01C
E01C
E01C
E01C
E01C
E01C
E03C
E038
E078
E070
E0E0
E1C0
E780
EF00
FE00
F800
F000
E000
E000
E000
E000
E000
E000
E000
E000
ENDCHAR
STARTCHAR  01F8
ENCODING  504
SWIDTH  1000 0
DWIDTH  24 0
BBX  19 29 3 8
BITMAP
078000
038000
01C000
00C000
000000
000000
F001C0
F001C0
F801C0
FC01C0
FC01C0
FE01C0
EE01C0
E701C0
E781C0
E381C0
E1C1C0
E1E1C0
E0E1C0
E071C0
E079C0
E039C0
E01DC0
E01FC0
E00FC0
E007C0
E007C0
E003C0
E003C0
ENDCHAR
STARTCHAR  01F9
ENCODING  505
SWIDTH  1000 0
DWIDTH  18 0
BBX  14 23 2 8
BITMAP
0F00
0700
0380
0180
0000
0000
E3E0
EFF0
FEF8
F83C
F01C
E01C
E01C
E01C
E01C
E01C
E01C
E01C
E01C
E01C
E01C
E01C
E01C
ENDCHAR
STARTCHAR  01FA
ENCODING  506
SWIDTH  1000 0
DWIDTH  22 0
BBX  23 30 0 8
BITMAP
003C00
003800
007000
000000
007800
00CC00
008400
008400
007800
007800
00FC00
00FC00
01DE00
01CE00
01CF00
038700
038700
070380
070380
0703C0
0E01C0
0FFFE0
1FFFE0
1C00E0
1C00F0
380070
380078
780038
700038
70003C
ENDCHAR
STARTCHAR  01FB
ENCODING  507
SWIDTH  1000 0
DWIDTH  17 0
BBX  15 27 1 8
BITMAP
00E0
01C0
0180
0380
0000
0380
06C0
0440
0440
06C0
0FE0
3FF0
7C78
701C
701C
001C
07FC
3FFC
7E1C
701C
E01C
E01C
E01C
E03C
78FC
7FDC
1F9C
ENDCHAR
STARTCHAR  01FC
ENCODING  508
SWIDTH  1000 0
DWIDTH  32 0
BBX  31 29 -1 8
BITMAP
00000E00
00001C00
00001C00
00003800
00003000
00000000
0003FFFE
0007FFFE
000FFFFE
000EE000
001CE000
001CE000
0038E000
0038E000
0070E000
00F0E000
00E0FFFC
01E0FFFC
01C0E000
03C0E000
03FFE000
07FFE000
0F00E000
0E00E000
1E00E000
1C00E000
3C00E000
3800FFFE
7800FFFE
ENDCHAR
STARTCHAR  01FD
ENCODING  509
SWIDTH  1000 0
DWIDTH  28 0
BBX  26 23 1 8
BITMAP
00070000
000E0000
000E0000
001C0000
00000000
00000000
0FE0F800
3FF3FE00
7CFF8F00
701E0780
601E0380
001C01C0
07FC01C0
3FFFFFC0
7E1FFFC0
701C0000
E01C0000
E01C0000
E03E03C0
E03F0380
79F7CF80
7FE3FF00
1F80FC00
ENDCHAR
STARTCHAR  01FE
ENCODING  510
SWIDTH  1000 0
DWIDTH  24 0
BBX  24 30 0 7
BITMAP
000F00
000E00
001C00
003800
000000
000004
007E06
03FFCE
07FFFC
0F00F8
1E0078
3C00FC
3801DC
38039C
70070E
70060E
700C0E
701C0E
70380E
70700E
70E00E
79C01C
3B801C
3F003C
1E0038
1F00F0
3FE3E0
73FFC0
60FF00
000000
ENDCHAR
STARTCHAR  01FF
ENCODING  511
SWIDTH  1000 0
DWIDTH  18 0
BBX  16 24 1 7
BITMAP
00F0
00E0
01C0
0380
0000
0002
07E7
1FFE
3E7C
781E
703E
E077
E0E7
E0C7
E187
E307
E707
EE07
7C0E
781E
3E7C
7FF8
E7E0
4000
ENDCHAR
STARTCHAR  0200
ENCODING  512
SWIDTH  1000 0
DWIDTH  21 0
BBX  23 29 -1 8
BITMAP
073800
039C00
038C00
01C600
000000
000000
003800
007C00
007C00
00EC00
00EE00
00CE00
01C700
01C700
038700
038380
038380
0701C0
0701C0
0701E0
0FFFE0
0FFFE0
1E00F0
1C0070
1C0078
380038
380038
38003C
70001C
ENDCHAR
STARTCHAR  0201
ENCODING  513
SWIDTH  1000 0
DWIDTH  17 0
BBX  15 23 1 8
BITMAP
39C0
1CC0
0CE0
0E60
0000
0000
0FE0
3FF8
7C78
701C
701C
001C
07FC
3FFC
7E1C
701C
E01C
E01C
E01C
E03C
78FC
7FDC
1F9C
ENDCHAR
STARTCHAR  0202
ENCODING  514
SWIDTH  1000 0
DWIDTH  21 0
BBX  23 30 -1 8
BITMAP
000000
007C00
01FE00
01C700
018300
000000
000000
003800
007C00
007C00
00EC00
00EE00
00CE00
01C700
01C700
038700
038380
038380
0701C0
0701C0
0701E0
0FFFE0
0FFFE0
1E00F0
1C0070
1C0078
380038
380038
38003C
70001C
ENDCHAR
STARTCHAR  0203
ENCODING  515
SWIDTH  1000 0
DWIDTH  17 0
BBX  15 23 1 8
BITMAP
0780
0FE0
1EE0
1830
0000
0000
0FE0
3FF8
7C78
701C
701C
001C
07FC
3FFC
7E1C
701C
E01C
E01C
E01C
E03C
78FC
7FDC
1F9C
ENDCHAR
STARTCHAR  0204
ENCODING  516
SWIDTH  1000 0
DWIDTH  22 0
BBX  17 29 3 8
BITMAP
1CE000
0E7000
0E3000
073800
000000
000000
FFFF80
FFFF80
E00000
E00000
E00000
E00000
E00000
E00000
E00000
E00000
FFFF00
FFFF00
E00000
E00000
E00000
E00000
E00000
E00000
E00000
E00000
E00000
FFFF80
FFFF80
ENDCHAR
STARTCHAR  0205
ENCODING  517
SWIDTH  1000 0
DWIDTH  18 0
BBX  16 23 1 8
BITMAP
39C0
3CE0
1CE0
0E70
0000
0000
07E0
1FF8
3C7C
781C
700E
E00E
E00E
FFFE
FFFF
E000
E000
E000
700E
781E
3E7C
1FF8
07E0
ENDCHAR
STARTCHAR  0206
ENCODING  518
SWIDTH  1000 0
DWIDTH  22 0
BBX  17 30 3 8
BITMAP
000000
03E000
07F000
0E3000
0C1800
000000
000000
FFFF80
FFFF80
E00000
E00000
E00000
E00000
E00000
E00000
E00000
E00000
FFFF00
FFFF00
E00000
E00000
E00000
E00000
E00000
E00000
E00000
E00000
E00000
FFFF80
FFFF80
ENDCHAR
STARTCHAR  0207
ENCODING  519
SWIDTH  1000 0
DWIDTH  18 0
BBX  16 23 1 8
BITMAP
07C0
0FE0
1EF0
1830
0000
0000
07E0
1FF8
3C7C
781C
700E
E00E
E00E
FFFE
FFFF
E000
E000
E000
700E
781E
3E7C
1FF8
07E0
ENDCHAR
STARTCHAR  0208
ENCODING  520
SWIDTH  1000 0
DWIDTH  9 0
BBX  12 29 -3 8
BITMAP
7BC0
39C0
1CE0
0C60
0000
0000
0380
0380
0380
0380
0380
0380
0380
0380
0380
0380
0380
0380
0380
0380
0380
0380
0380
0380
0380
0380
0380
0380
0380
ENDCHAR
STARTCHAR  0209
ENCODING  521
SWIDTH  1000 0
DWIDTH  7 0
BBX  12 23 -4 8
BITMAP
7BC0
39E0
1CE0
0C70
0000
0000
0380
0380
0380
0380
0380
0380
0380
0380
0380
0380
0380
0380
0380
0380
0380
0380
0380
ENDCHAR
STARTCHAR  020A
ENCODING  522
SWIDTH  1000 0
DWIDTH  9 0
BBX  11 30 -1 8
BITMAP
0000
1F00
3F80
71C0
60C0
0000
0000
0E00
0E00
0E00
0E00
0E00
0E00
0E00
0E00
0E00
0E00
0E00
0E00
0E00
0E00
0E00
0E00
0E00
0E00
0E00
0E00
0E00
0E00
0E00
ENDCHAR
STARTCHAR  020B
ENCODING  523
SWIDTH  1000 0
DWIDTH  7 0
BBX  11 23 -2 8
BITMAP
1F00
3F80
7BC0
60C0
0000
0000
0E00
0E00
0E00
0E00
0E00
0E00
0E00
0E00
0E00
0E00
0E00
0E00
0E00
0E00
0E00
0E00
0E00
ENDCHAR
STARTCHAR  020C
ENCODING  524
SWIDTH  1000 0
DWIDTH  24 0
BBX  22 29 1 8
BITMAP
0F3800
071C00
039C00
018E00
000000
000000
01FC00
07FF80
0F87C0
1E01E0
3C0070
780078
700038
700038
E0001C
E0001C
E0001C
E0001C
E0001C
E0001C
E0001C
700038
700038
780078
380070
1E01E0
0F87C0
07FF80
01FE00
ENDCHAR
STARTCHAR  020D
ENCODING  525
SWIDTH  1000 0
DWIDTH  18 0
BBX  16 23 1 8
BITMAP
79C0
38E0
1C70
0E70
0000
0000
07E0
1FF8
3E7C
781E
700E
E00F
E007
E007
E007
E007
E007
E007
700E
781E
3E7C
1FF8
07E0
ENDCHAR
STARTCHAR  020E
ENCODING  526
SWIDTH  1000 0
DWIDTH  24 0
BBX  22 30 1 8
BITMAP
000000
00FC00
01FE00
018600
038300
000000
000000
01FC00
07FF80
0F87C0
1E01E0
3C0070
780078
700038
700038
E0001C
E0001C
E0001C
E0001C
E0001C
E0001C
E0001C
700038
700038
780078
380070
1E01E0
0F87C0
07FF80
01FE00
ENDCHAR
STARTCHAR  020F
ENCODING  527
SWIDTH  1000 0
DWIDTH  18 0
BBX  16 23 1 8
BITMAP
07C0
0FF0
1E70
1838
0000
0000
07E0
1FF8
3E7C
781E
700E
E00F
E007
E007
E007
E007
E007
E007
700E
781E
3E7C
1FF8
07E0
ENDCHAR
STARTCHAR  0210
ENCODING  528
SWIDTH  1000 0
DWIDTH  23 0
BBX  19 29 3 8
BITMAP
39C000
1CE000
1C6000
0E7000
000000
000000
FFFC00
FFFF00
E00F80
E00380
E001C0
E001C0
E001C0
E001C0
E001C0
E00380
E00F80
FFFE00
FFF800
E01E00
E00E00
E00700
E00700
E00380
E00380
E003C0
E001C0
E001C0
E001E0
ENDCHAR
STARTCHAR  0211
ENCODING  529
SWIDTH  1000 0
DWIDTH  11 0
BBX  12 23 -1 8
BITMAP
79C0
38E0
1CE0
0C70
0000
0000
1CF0
1DF0
1F90
1E00
1C00
1C00
1C00
1C00
1C00
1C00
1C00
1C00
1C00
1C00
1C00
1C00
1C00
ENDCHAR
STARTCHAR  0212
ENCODING  530
SWIDTH  1000 0
DWIDTH  23 0
BBX  19 30 3 8
BITMAP
000000
03E000
07F000
0E3000
0C1800
000000
000000
FFFC00
FFFF00
E00F80
E00380
E001C0
E001C0
E001C0
E001C0
E001C0
E00380
E00F80
FFFE00
FFF800
E01E00
E00E00
E00700
E00700
E00380
E00380
E003C0
E001C0
E001C0
E001E0
ENDCHAR
STARTCHAR  0213
ENCODING  531
SWIDTH  1000 0
DWIDTH  11 0
BBX  10 23 1 8
BITMAP
1F00
3F80
7B80
60C0
0000
0000
73C0
77C0
7E40
7800
7000
7000
7000
7000
7000
7000
7000
7000
7000
7000
7000
7000
7000
ENDCHAR
STARTCHAR  0214
ENCODING  532
SWIDTH  1000 0
DWIDTH  24 0
BBX  18 29 3 8
BITMAP
1CE000
0E7000
0E3800
071800
000000
000000
E001C0
E001C0
E001C0
E001C0
E001C0
E001C0
E001C0
E001C0
E001C0
E001C0
E001C0
E001C0
E001C0
E001C0
E001C0
E001C0
E001C0
F003C0
700380
780780
3F3F00
1FFE00
07F800
ENDCHAR
STARTCHAR  0215
ENCODING  533
SWIDTH  1000 0
DWIDTH  18 0
BBX  15 23 1 8
BITMAP
7BC0
39E0
1CE0
0C70
0000
0000
700E
700E
700E
700E
700E
700E
700E
700E
700E
700E
700E
700E
701E
783E
3EFE
3FEE
0F8E
ENDCHAR
STARTCHAR  0216
ENCODING  534
SWIDTH  1000 0
DWIDTH  24 0
BBX  18 30 3 8
BITMAP
000000
03F000
07F800
061800
0C0C00
000000
000000
E001C0
E001C0
E001C0
E001C0
E001C0
E001C0
E001C0
E001C0
E001C0
E001C0
E001C0
E001C0
E001C0
E001C0
E001C0
E001C0
E001C0
F003C0
700380
780780
3F3F00
1FFE00
07F800
ENDCHAR
STARTCHAR  0217
ENCODING  535
SWIDTH  1000 0
DWIDTH  18 0
BBX  14 23 2 8
BITMAP
0780
1FE0
1CE0
3030
0000
0000
E01C
E01C
E01C
E01C
E01C
E01C
E01C
E01C
E01C
E01C
E01C
E01C
E03C
F07C
7DFC
7FDC
1F1C
ENDCHAR
STARTCHAR  0218
ENCODING  536
SWIDTH  1000 0
DWIDTH  21 0
BBX  18 29 1 2
BITMAP
03F800
0FFE00
3E1F00
380780
700380
700380
700380
780000
7C0000
3FC000
1FFC00
07FF00
00FF80
000F80
0003C0
0001C0
6001C0
7001C0
7001C0
380380
3F1F00
0FFE00
03F800
000000
006000
006000
002000
002000
004000
ENDCHAR
STARTCHAR  0219
ENCODING  537
SWIDTH  1000 0
DWIDTH  16 0
BBX  14 23 1 2
BITMAP
1FC0
7FF0
78F8
E038
E038
E000
FC00
7FC0
1FF0
03F8
003C
001C
E01C
F03C
7878
3FF0
1FC0
0000
0300
0300
0100
0100
0200
ENDCHAR
STARTCHAR  021A
ENCODING  538
SWIDTH  1000 0
DWIDTH  20 0
BBX  18 29 1 2
BITMAP
FFFFC0
FFFFC0
00E000
00E000
00E000
00E000
00E000
00E000
00E000
00E000
00E000
00E000
00E000
00E000
00E000
00E000
00E000
00E000
00E000
00E000
00E000
00E000
00E000
000000
00E000
00E000
006000
006000
00C000
ENDCHAR
STARTCHAR  021B
ENCODING  539
SWIDTH  1000 0
DWIDTH  10 0
BBX  8 28 1 2
BITMAP
38
38
38
38
38
FF
FF
38
38
38
38
38
38
38
38
38
38
38
38
3C
1F
1F
00
0E
0E
02
02
0C
ENDCHAR
STARTCHAR  021C
ENCODING  540
SWIDTH  1000 0
DWIDTH  17 0
BBX  16 30 1 1
BITMAP
0FE0
7FF8
FC7C
E01C
C00E
000E
000E
000E
000E
001C
001C
0038
00F8
01FC
07DE
3F8E
7C0E
700E
000E
000E
001C
001C
0038
0078
01F0
07C0
1F80
7E00
7000
4000
ENDCHAR
STARTCHAR  021D
ENCODING  541
SWIDTH  1000 0
DWIDTH  14 0
BBX  14 24 0 1
BITMAP
1FC0
FFE0
F1F0
C078
0038
0038
0038
0038
0070
00F0
03F0
3FF0
7E78
7838
0038
0038
0038
0070
00F0
07E0
3F80
7E00
7800
0000
ENDCHAR
STARTCHAR  021E
ENCODING  542
SWIDTH  1000 0
DWIDTH  24 0
BBX  18 29 3 8
BITMAP
071C00
03B800
03B000
01F000
00E000
000000
E001C0
E001C0
E001C0
E001C0
E001C0
E001C0
E001C0
E001C0
E001C0
FFFFC0
FFFFC0
FFFFC0
E001C0
E001C0
E001C0
E001C0
E001C0
E001C0
E001C0
E001C0
E001C0
E001C0
E001C0
ENDCHAR
STARTCHAR  021F
ENCODING  543
SWIDTH  1000 0
DWIDTH  18 0
BBX  14 29 2 8
BITMAP
3C70
1CE0
0FC0
07C0
0380
0000
E000
E000
E000
E000
E000
E000
E3E0
EFF0
FC78
F83C
E01C
E01C
E01C
E01C
E01C
E01C
E01C
E01C
E01C
E01C
E01C
E01C
E01C
ENDCHAR
STARTCHAR  0220
ENCODING  544
SWIDTH  1000 0
DWIDTH  22 0
BBX  18 29 3 2
BITMAP
E3F800
FFFE00
FF1F00
F00700
E00780
E00380
E00380
E00380
E00380
E00380
E00380
E00380
E00380
E00380
E00380
E00380
E00380
E00380
E00380
E00380
E00380
E00380
E00380
000380
000380
000380
000380
000380
000380
ENDCHAR
STARTCHAR  0222
ENCODING  546
SWIDTH  1000 0
DWIDTH  18 0
BBX  17 23 1 8
BITMAP
007000
007C00
0F3E00
3F0F00
7C0700
700700
700700
700E00
3C3C00
0FF000
1FF800
381E00
700E00
E00700
E00700
E00700
E00700
E00700
F00F00
781E00
3E7C00
1FF800
07E000
ENDCHAR
STARTCHAR  0223
ENCODING  547
SWIDTH  1000 0
DWIDTH  17 0
BBX  16 24 1 8
BITMAP
0000
1838
381C
701E
700E
700E
700E
700E
781C
3E7C
1FF0
3FF8
783C
701C
E00E
E00E
E00E
E00E
E00E
F01E
701C
7C7C
3FF8
0FE0
ENDCHAR
STARTCHAR  0224
ENCODING  548
SWIDTH  1000 0
DWIDTH  20 0
BBX  20 27 0 4
BITMAP
3FFFE0
3FFFE0
0001E0
0003C0
000780
000F80
000F00
001E00
003C00
007800
00F000
00F000
01E000
03C000
078000
070000
0F0000
1E0000
3C0000
780000
700000
FFFF80
FFFFC0
0001E0
0000E0
0000E0
0000E0
ENDCHAR
STARTCHAR  0225
ENCODING  549
SWIDTH  1000 0
DWIDTH  16 0
BBX  15 21 0 4
BITMAP
7FFE
7FFE
003E
003C
0078
00F0
01E0
03C0
03C0
0780
0F00
1E00
3C00
7800
7000
FFFC
FFFC
000E
000E
000E
000E
ENDCHAR
STARTCHAR  0226
ENCODING  550
SWIDTH  1000 0
DWIDTH  22 0
BBX  22 28 0 8
BITMAP
007000
007000
007000
000000
000000
007800
00F800
00F800
00DC00
01DC00
01CE00
038E00
038E00
038700
070700
070380
0E0380
0E0380
0E01C0
1FFFC0
1FFFE0
1C00E0
3800E0
380070
780070
700078
700038
F00038
ENDCHAR
STARTCHAR  0227
ENCODING  551
SWIDTH  1000 0
DWIDTH  17 0
BBX  15 23 1 8
BITMAP
0380
0380
0380
0000
0000
0000
0FE0
3FF8
7C78
701C
701C
001C
07FC
3FFC
7E1C
701C
E01C
E01C
E01C
E03C
78FC
7FDC
1F9C
ENDCHAR
STARTCHAR  0228
ENCODING  552
SWIDTH  1000 0
DWIDTH  22 0
BBX  17 29 3 2
BITMAP
FFFF80
FFFF80
E00000
E00000
E00000
E00000
E00000
E00000
E00000
FFFF00
FFFF00
E00000
E00000
E00000
E00000
E00000
E00000
E00000
E00000
E00000
E00000
FFFF80
FFFF80
018000
01E000
007000
00F000
07F000
07C000
ENDCHAR
STARTCHAR  0229
ENCODING  553
SWIDTH  1000 0
DWIDTH  18 0
BBX  16 23 1 2
BITMAP
07E0
1FF8
3E7C
781C
700E
E00E
E00E
FFFE
FFFF
E000
E000
E000
700E
701E
3C3C
1FF8
07E0
0180
01E0
0070
0070
07F0
07C0
ENDCHAR
STARTCHAR  022A
ENCODING  554
SWIDTH  1000 0
DWIDTH  24 0
BBX  22 29 1 8
BITMAP
03FF00
03FF00
000000
01CE00
01CE00
000000
01FC00
07FF80
0F87C0
1E01E0
3C0070
780078
700038
700038
E0001C
E0001C
E0001C
E0001C
E0001C
E0001C
E0001C
700038
700038
780078
380070
1E01E0
0F87C0
07FF80
01FE00
ENDCHAR
STARTCHAR  022B
ENCODING  555
SWIDTH  1000 0
DWIDTH  18 0
BBX  16 27 1 8
BITMAP
1FF8
1FF8
0000
0000
1C70
1C70
1C70
0000
0000
0000
07E0
1FF8
3E7C
781E
700E
E00F
E007
E007
E007
E007
E007
E007
700E
781E
3E7C
1FF8
07E0
ENDCHAR
STARTCHAR  022C
ENCODING  556
SWIDTH  1000 0
DWIDTH  24 0
BBX  22 29 1 8
BITMAP
03FF00
03FF00
01E300
033E00
000000
000000
01FC00
07FF80
0F87C0
1E01E0
3C0070
780078
700038
700038
E0001C
E0001C
E0001C
E0001C
E0001C
E0001C
E0001C
700038
700038
780078
380070
1E01E0
0F87C0
07FF80
01FE00
ENDCHAR
STARTCHAR  022D
ENCODING  557
SWIDTH  1000 0
DWIDTH  18 0
BBX  16 27 1 8
BITMAP
0000
1FF8
1FF8
0000
0F18
1FF8
19F0
0000
0000
0000
07E0
1FF8
3E7C
781E
700E
E00F
E007
E007
E007
E007
E007
E007
700E
781E
3E7C
1FF8
07E0
ENDCHAR
STARTCHAR  022E
ENCODING  558
SWIDTH  1000 0
DWIDTH  24 0
BBX  22 29 1 8
BITMAP
007000
007000
007000
000000
000000
000000
01FC00
07FF00
0F8F80
1E01C0
3800E0
7800F0
700070
700070
E00038
E00038
E00038
E00038
E00038
E00038
E00038
700078
700070
7800F0
3800E0
1C01C0
0F8F80
07FF00
01FC00
ENDCHAR
STARTCHAR  022F
ENCODING  559
SWIDTH  1000 0
DWIDTH  18 0
BBX  16 23 1 8
BITMAP
0380
0380
0380
0000
0000
0000
07E0
1FF8
3E7C
781E
700E
E00F
E007
E007
E007
E007
E007
E007
700E
781E
3E7C
1FF8
07E0
ENDCHAR
STARTCHAR  0230
ENCODING  560
SWIDTH  1000 0
DWIDTH  24 0
BBX  22 29 1 8
BITMAP
03FF00
03FF00
000000
007000
007000
000000
01FC00
07FF80
0F87C0
1E01E0
3C0070
780078
700038
700038
E0001C
E0001C
E0001C
E0001C
E0001C
E0001C
E0001C
700038
700038
780078
380070
1E01E0
0F87C0
07FF80
01FE00
ENDCHAR
STARTCHAR  0231
ENCODING  561
SWIDTH  1000 0
DWIDTH  18 0
BBX  16 27 1 8
BITMAP
1FF8
1FF8
0000
0000
0380
0380
0380
0000
0000
0000
07E0
1FF8
3E7C
781E
700E
E00F
E007
E007
E007
E007
E007
E007
700E
781E
3E7C
1FF8
07E0
ENDCHAR
STARTCHAR  0232
ENCODING  562
SWIDTH  1000 0
DWIDTH  22 0
BBX  22 28 0 8
BITMAP
03FF00
03FF00
000000
000000
000000
700078
780070
3800F0
1C01E0
1E01C0
0E03C0
070780
078700
038E00
01DE00
01DC00
00F800
007800
007000
007000
007000
007000
007000
007000
007000
007000
007000
007000
ENDCHAR
STARTCHAR  0233
ENCODING  563
SWIDTH  1000 0
DWIDTH  16 0
BBX  16 29 0 2
BITMAP
1FF8
1FF8
0000
0000
0000
0000
F00E
700E
701E
381C
381C
3838
1C38
1C38
0C70
0E70
0E70
06E0
07E0
07C0
03C0
03C0
0380
0380
0700
0700
7E00
7E00
7800
ENDCHAR
STARTCHAR  0250
ENCODING  592
SWIDTH  1000 0
DWIDTH  17 0
BBX  15 17 2 8
BITMAP
E3E0
EFF8
FC78
F01C
E01C
E01C
E03C
E078
FFF0
FFC0
E000
E000
E01C
F03C
7878
3FF8
1FE0
ENDCHAR
STARTCHAR  0251
ENCODING  593
SWIDTH  1000 0
DWIDTH  18 0
BBX  17 17 1 8
BITMAP
0FC700
1FE700
3EF600
783E00
701E00
E01E00
E00C00
E00C00
E00C00
E00C00
E00C00
E01E00
701E00
703E00
3CF600
1FE700
0FC700
ENDCHAR
STARTCHAR  0252
ENCODING  594
SWIDTH  1000 0
DWIDTH  18 0
BBX  18 17 0 8
BITMAP
71F800
73FC00
371E00
3E0F00
3C0700
3C0380
180380
180380
180380
180380
180380
3C0380
3C0700
3E0F00
371E00
73FC00
71F800
ENDCHAR
STARTCHAR  0253
ENCODING  595
SWIDTH  1000 0
DWIDTH  17 0
BBX  15 23 2 8
BITMAP
3E00
7E00
F000
E000
E000
E000
E7C0
EFF0
FCF8
F038
E038
E01C
E01C
E01C
E01C
E01C
E01C
E01C
E038
F038
FCF0
FFE0
E7C0
ENDCHAR
STARTCHAR  0254
ENCODING  596
SWIDTH  1000 0
DWIDTH  16 0
BBX  16 17 0 8
BITMAP
0FC0
3FF0
7C78
703C
701C
000E
000E
000E
000E
000E
000E
000E
701C
703C
7C78
3FF0
0FC0
ENDCHAR
STARTCHAR  0255
ENCODING  597
SWIDTH  1000 0
DWIDTH  16 0
BBX  17 17 -1 8
BITMAP
01F800
07FE00
0F1F00
1E0700
1C0780
380000
380000
380000
380000
38FC00
3BFE00
3FCF00
1F0700
3E0700
7F9F00
77FE00
21F800
ENDCHAR
STARTCHAR  0256
ENCODING  598
SWIDTH  1000 0
DWIDTH  18 0
BBX  18 29 1 2
BITMAP
000E00
000E00
000E00
000E00
000E00
000E00
07CE00
1FFE00
3C7E00
781E00
700E00
E00E00
E00E00
E00E00
E00E00
E00E00
E00E00
E00E00
700E00
703E00
3C7E00
1FEE00
0FCE00
000E00
000E00
000E00
000F40
0007C0
0003C0
ENDCHAR
STARTCHAR  0257
ENCODING  599
SWIDTH  1000 0
DWIDTH  18 0
BBX  19 23 1 8
BITMAP
0003E0
0007E0
000F00
000E00
000E00
000E00
07CE00
1FFE00
3C7E00
781E00
700E00
E00E00
E00E00
E00E00
E00E00
E00E00
E00E00
E00E00
700E00
703E00
3C7E00
1FEE00
0FCE00
ENDCHAR
STARTCHAR  0258
ENCODING  600
SWIDTH  1000 0
DWIDTH  18 0
BBX  17 17 1 8
BITMAP
07E000
1FF800
3E3C00
380E00
700E00
700700
700700
FFFF00
FFFF00
000700
000700
000700
700E00
781E00
3C7C00
1FF800
07E000
ENDCHAR
STARTCHAR  0259
ENCODING  601
SWIDTH  1000 0
DWIDTH  18 0
BBX  17 17 1 8
BITMAP
07E000
1FF800
3E7C00
781E00
700E00
000700
000700
000700
FFFF00
7FFF00
700700
700700
700E00
381E00
3E7C00
1FF800
07E000
ENDCHAR
STARTCHAR  025A
ENCODING  602
SWIDTH  1000 0
DWIDTH  24 0
BBX  23 17 1 8
BITMAP
07E000
1FF800
3C7C00
781E00
700E40
000FC0
01FFC0
3FFFC0
FF87E4
6007FE
70077C
700700
700E00
381E00
3E7C00
1FF800
07E000
ENDCHAR
STARTCHAR  025B
ENCODING  603
SWIDTH  1000 0
DWIDTH  16 0
BBX  15 17 1 8
BITMAP
1FC0
3FF0
78F8
E018
E000
E000
7000
3F80
3F80
7800
F000
E000
E01C
F01C
7878
3FF0
0FC0
ENDCHAR
STARTCHAR  025C
ENCODING  604
SWIDTH  1000 0
DWIDTH  15 0
BBX  15 17 0 8
BITMAP
0FE0
3FF8
7C78
701C
001C
001C
0038
03F0
03F0
0078
001C
001C
E01C
703C
7878
3FF0
0FE0
ENDCHAR
STARTCHAR  025D
ENCODING  605
SWIDTH  1000 0
DWIDTH  21 0
BBX  22 17 0 8
BITMAP
07E000
1FF800
3E3F80
381F80
000F80
001DD8
003DF8
03F8F8
03F800
003C00
000E00
000E00
700E00
701E00
3C3C00
1FF800
07E000
ENDCHAR
STARTCHAR  025E
ENCODING  606
SWIDTH  1000 0
DWIDTH  17 0
BBX  15 17 1 8
BITMAP
07E0
1FF8
3E78
781C
701C
E01C
E03C
E3F8
E3F8
E03C
E01E
E00E
700E
781E
3E3C
1FF8
07E0
ENDCHAR
STARTCHAR  025F
ENCODING  607
SWIDTH  1000 0
DWIDTH  11 0
BBX  10 23 1 2
BITMAP
0E00
0E00
0E00
0E00
0E00
0E00
0E00
0E00
0E00
0E00
0E00
0E00
7FC0
7FC0
0E00
0E00
0E00
0E00
0E00
0E00
FE00
FC00
F800
ENDCHAR
STARTCHAR  0260
ENCODING  608
SWIDTH  1000 0
DWIDTH  18 0
BBX  19 29 1 2
BITMAP
0003E0
0007E0
000F00
000E00
000E00
000E00
07CE00
1FFE00
3C7E00
781E00
700E00
E00E00
E00E00
E00E00
E00E00
E00E00
E00E00
E00E00
700E00
703E00
3C7E00
1FEE00
0FCE00
000E00
700E00
701C00
3C7C00
3FF800
0FE000
ENDCHAR
STARTCHAR  0261
ENCODING  609
SWIDTH  1000 0
DWIDTH  18 0
BBX  16 23 1 2
BITMAP
07CE
1FFE
3E7E
781E
700E
E00E
E00E
E00E
E00E
E00E
E00E
E00E
700E
703E
3C7E
1FEE
0FCE
000E
700E
701C
3C7C
1FF8
0FE0
ENDCHAR
STARTCHAR  0262
ENCODING  610
SWIDTH  1000 0
DWIDTH  18 0
BBX  15 17 1 8
BITMAP
07E0
1FF8
3E7C
781C
700E
E000
E000
E000
E07E
E07E
E00E
E00E
700E
701E
3E7E
1FFE
07CE
ENDCHAR
STARTCHAR  0263
ENCODING  611
SWIDTH  1000 0
DWIDTH  17 0
BBX  17 23 0 2
BITMAP
700700
380E00
380E00
381E00
1C1C00
1C1C00
0E3800
0E3800
077000
077000
036000
03E000
01C000
01C000
01C000
01C000
03E000
03E000
077000
077000
077000
07F000
03E000
ENDCHAR
STARTCHAR  0264
ENCODING  612
SWIDTH  1000 0
DWIDTH  19 0
BBX  19 17 0 8
BITMAP
1E0F00
7F1FC0
F7BDE0
63B8C0
01B800
01F000
01F000
00E000
00E000
00E000
01F000
01F000
03B800
03B800
03B800
03F800
01F000
ENDCHAR
STARTCHAR  0265
ENCODING  613
SWIDTH  1000 0
DWIDTH  18 0
BBX  14 23 2 8
BITMAP
E01C
E01C
E01C
E01C
E01C
E01C
E01C
E01C
E01C
E01C
E01C
E01C
E03C
F07C
7DFC
7FDC
1F1C
001C
001C
001C
001C
001C
001C
ENDCHAR
STARTCHAR  0266
ENCODING  614
SWIDTH  1000 0
DWIDTH  18 0
BBX  14 23 2 8
BITMAP
3E00
7E00
F000
E000
E000
E000
E3E0
EFF0
FC78
F83C
E01C
E01C
E01C
E01C
E01C
E01C
E01C
E01C
E01C
E01C
E01C
E01C
E01C
ENDCHAR
STARTCHAR  0267
ENCODING  615
SWIDTH  1000 0
DWIDTH  18 0
BBX  14 29 2 2
BITMAP
3E00
7E00
F000
E000
E000
E000
E3E0
EFF8
FC78
F83C
E01C
E01C
E01C
E01C
E01C
E01C
E01C
E01C
E01C
E01C
E01C
E01C
E01C
001C
001C
001C
003C
00F8
00F0
ENDCHAR
STARTCHAR  0268
ENCODING  616
SWIDTH  1000 0
DWIDTH  7 0
BBX  7 23 0 8
BITMAP
38
38
38
00
00
00
38
38
38
38
38
38
FE
FE
38
38
38
38
38
38
38
38
38
ENDCHAR
STARTCHAR  0269
ENCODING  617
SWIDTH  1000 0
DWIDTH  8 0
BBX  6 17 2 8
BITMAP
E0
E0
E0
E0
E0
E0
E0
E0
E0
E0
E0
E0
E0
E0
F4
7C
3C
ENDCHAR
STARTCHAR  026A
ENCODING  618
SWIDTH  1000 0
DWIDTH  7 0
BBX  4 17 2 8
BITMAP
E0
E0
E0
E0
E0
E0
E0
E0
E0
E0
E0
E0
E0
E0
E0
E0
E0
ENDCHAR
STARTCHAR  026B
ENCODING  619
SWIDTH  1000 0
DWIDTH  11 0
BBX  11 23 0 8
BITMAP
0E00
0E00
0E00
0E00
0E00
0E00
0E00
0E00
3E40
7EC0
EFC0
CF80
0E00
0E00
0E00
0E00
0E00
0E00
0E00
0E00
0E00
0E00
0E00
ENDCHAR
STARTCHAR  026C
ENCODING  620
SWIDTH  1000 0
DWIDTH  9 0
BBX  9 23 0 8
BITMAP
0E00
0E00
0E00
0E00
0E00
0E00
0E00
3E00
FE00
EE00
CE00
CE00
FF80
7F80
0E00
0E00
0E00
0E00
0E00
0E00
0E00
0E00
0E00
ENDCHAR
STARTCHAR  026D
ENCODING  621
SWIDTH  1000 0
DWIDTH  7 0
BBX  6 29 2 2
BITMAP
E0
E0
E0
E0
E0
E0
E0
E0
E0
E0
E0
E0
E0
E0
E0
E0
E0
E0
E0
E0
E0
E0
E0
E0
E0
E0
F4
7C
3C
ENDCHAR
STARTCHAR  026E
ENCODING  622
SWIDTH  1000 0
DWIDTH  18 0
BBX  15 29 2 2
BITMAP
E000
E000
E000
E000
E000
E000
FFFE
FFFE
E01E
E03C
E038
E070
E0E0
E1E0
E3F0
E1F8
E03C
E01C
E00E
E00E
E00E
E00E
E00E
000E
001E
203C
3CF8
3FF0
0FC0
ENDCHAR
STARTCHAR  026F
ENCODING  623
SWIDTH  1000 0
DWIDTH  27 0
BBX  23 17 2 8
BITMAP
E0380E
E0380E
E0380E
E0380E
E0380E
E0380E
E0380E
E0380E
E0380E
E0380E
E0380E
E0380E
E0781E
F0F83E
7BDEFE
7F9FEE
1E078E
ENDCHAR
STARTCHAR  0270
ENCODING  624
SWIDTH  1000 0
DWIDTH  27 0
BBX  23 23 2 2
BITMAP
E0380E
E0380E
E0380E
E0380E
E0380E
E0380E
E0380E
E0380E
E0380E
E0380E
E0380E
E0380E
E0781E
F0F83E
7BDEFE
7F9FEE
1E078E
00000E
00000E
00000E
00000E
00000E
00000E
ENDCHAR
STARTCHAR  0271
ENCODING  625
SWIDTH  1000 0
DWIDTH  26 0
BBX  23 23 2 2
BITMAP
E3C1F0
EFF3F8
FCF738
F03C1C
E0381C
E0381C
E0381C
E0381C
E0381C
E0381C
E0381C
E0381C
E0381C
E0381C
E0381C
E0381C
E0381C
00001C
00001C
00001C
00003C
0000F8
0000F0
ENDCHAR
STARTCHAR  0272
ENCODING  626
SWIDTH  1000 0
DWIDTH  18 0
BBX  18 23 -2 2
BITMAP
0E3E00
0EFF00
0FC780
0F83C0
0E01C0
0E01C0
0E01C0
0E01C0
0E01C0
0E01C0
0E01C0
0E01C0
0E01C0
0E01C0
0E01C0
0E01C0
0E01C0
0E0000
0E0000
0E0000
FE0000
FC0000
F80000
ENDCHAR
STARTCHAR  0273
ENCODING  627
SWIDTH  1000 0
DWIDTH  18 0
BBX  17 23 2 2
BITMAP
E3E000
EFF800
FC7800
F83C00
E01C00
E01C00
E01C00
E01C00
E01C00
E01C00
E01C00
E01C00
E01C00
E01C00
E01C00
E01C00
E01C00
001C00
001C00
001C00
001E00
000F80
000780
ENDCHAR
STARTCHAR  0274
ENCODING  628
SWIDTH  1000 0
DWIDTH  17 0
BBX  13 17 2 8
BITMAP
E038
F038
F838
F838
FC38
FC38
EE38
EE38
E738
E3B8
E3B8
E1F8
E1F8
E0F8
E0F8
E078
E038
ENDCHAR
STARTCHAR  0275
ENCODING  629
SWIDTH  1000 0
DWIDTH  17 0
BBX  16 17 1 8
BITMAP
07C0
1FF0
3EF8
701C
701C
E00E
E00E
E00E
FFFE
FFFE
E00E
E00E
701C
783C
3EF8
1FF0
07C0
ENDCHAR
STARTCHAR  0276
ENCODING  630
SWIDTH  1000 0
DWIDTH  23 0
BBX  21 17 1 8
BITMAP
07CFF8
1FFFF8
3C7E00
783E00
701E00
F01E00
E00E00
E00FF0
E00FF0
E00E00
E00E00
E00E00
701E00
783E00
3C7E00
1FFFF8
07CFF8
ENDCHAR
STARTCHAR  0277
ENCODING  631
SWIDTH  1000 0
DWIDTH  21 0
BBX  20 17 1 8
BITMAP
03F800
0FFE00
3F1F80
3C0780
7803C0
F001E0
E000E0
E000E0
E0E0E0
E0E0E0
E0E0E0
E0E0E0
E0E0E0
71B1C0
7BBBC0
3FBF80
1F0F00
ENDCHAR
STARTCHAR  0278
ENCODING  632
SWIDTH  1000 0
DWIDTH  17 0
BBX  16 29 1 2
BITMAP
0380
0380
0380
0380
0380
0380
0FE0
1FF0
3FF8
739C
739C
E38E
E38E
E38E
E38E
E38E
E38E
E38E
739C
739C
3FF8
1FF0
0FE0
0380
0380
0380
0380
0380
0380
ENDCHAR
STARTCHAR  0279
ENCODING  633
SWIDTH  1000 0
DWIDTH  10 0
BBX  10 17 -1 8
BITMAP
0380
0380
0380
0380
0380
0380
0380
0380
0380
0380
0380
0380
0380
0780
9F80
FB80
F380
ENDCHAR
STARTCHAR  027A
ENCODING  634
SWIDTH  1000 0
DWIDTH  10 0
BBX  10 23 -1 8
BITMAP
0380
0380
0380
0380
0380
0380
0380
0380
0380
0380
0380
0380
0380
0380
0380
0380
0380
0380
0380
0780
1F80
FB80
F380
ENDCHAR
STARTCHAR  027B
ENCODING  635
SWIDTH  1000 0
DWIDTH  10 0
BBX  12 23 -1 2
BITMAP
0380
0380
0380
0380
0380
0380
0380
0380
0380
0380
0380
0380
0380
0780
9F80
FB80
F380
0380
0380
0380
03D0
01F0
00F0
ENDCHAR
STARTCHAR  027C
ENCODING  636
SWIDTH  1000 0
DWIDTH  11 0
BBX  9 23 2 2
BITMAP
E780
EF80
FC00
F000
E000
E000
E000
E000
E000
E000
E000
E000
E000
E000
E000
E000
E000
E000
E000
E000
E000
E000
E000
ENDCHAR
STARTCHAR  027D
ENCODING  637
SWIDTH  1000 0
DWIDTH  11 0
BBX  9 23 2 2
BITMAP
E780
EF80
FC00
F000
E000
E000
E000
E000
E000
E000
E000
E000
E000
E000
E000
E000
E000
E000
E000
E000
F400
7C00
3C00
ENDCHAR
STARTCHAR  027E
ENCODING  638
SWIDTH  1000 0
DWIDTH  9 0
BBX  7 17 2 8
BITMAP
3E
7E
F0
E0
E0
E0
E0
E0
E0
E0
E0
E0
E0
E0
E0
E0
E0
ENDCHAR
STARTCHAR  027F
ENCODING  639
SWIDTH  1000 0
DWIDTH  9 0
BBX  8 17 0 8
BITMAP
F8
FC
1E
0E
0E
0E
0E
0E
0E
0E
0E
0E
0E
0E
0E
0E
0E
ENDCHAR
STARTCHAR  0280
ENCODING  640
SWIDTH  1000 0
DWIDTH  17 0
BBX  14 17 2 8
BITMAP
FFC0
FFF0
E0F0
E038
E038
E038
E038
E070
FFF0
FFC0
E1E0
E0E0
E070
E070
E038
E038
E038
ENDCHAR
STARTCHAR  0281
ENCODING  641
SWIDTH  1000 0
DWIDTH  17 0
BBX  14 17 2 8
BITMAP
E038
E038
E038
E070
E070
E0F0
E1E0
FF80
FFE0
E0F0
E038
E038
E038
E038
E0F8
FFF0
FFC0
ENDCHAR
STARTCHAR  0282
ENCODING  642
SWIDTH  1000 0
DWIDTH  16 0
BBX  14 23 1 2
BITMAP
1FC0
7FF0
78F8
E038
E038
E000
FC00
7FC0
1FF0
03F8
003C
001C
E01C
F03C
F878
FFF0
EFC0
E000
E000
E000
F400
7C00
3C00
ENDCHAR
STARTCHAR  0283
ENCODING  643
SWIDTH  1000 0
DWIDTH  9 0
BBX  11 29 -1 2
BITMAP
03E0
07E0
0F00
0E00
0E00
0E00
0E00
0E00
0E00
0E00
0E00
0E00
0E00
0E00
0E00
0E00
0E00
0E00
0E00
0E00
0E00
0E00
0E00
0E00
0E00
0E00
1E00
FC00
F800
ENDCHAR
STARTCHAR  0284
ENCODING  644
SWIDTH  1000 0
DWIDTH  11 0
BBX  11 29 1 2
BITMAP
03E0
07E0
0F00
0E00
0E00
0E00
0E00
0E00
0E00
0E00
0E00
0E00
0E00
0E00
0E00
0E00
0E00
0E00
7FC0
7FC0
0E00
0E00
0E00
0E00
0E00
0E00
1E00
FC00
F800
ENDCHAR
STARTCHAR  0285
ENCODING  645
SWIDTH  1000 0
DWIDTH  9 0
BBX  11 23 -1 8
BITMAP
F800
FC00
1E00
0E00
0E00
0E00
0E00
0E00
0E00
0E00
0E00
0E00
0E00
0E00
0E00
0E00
0E00
0E00
0E00
0E00
0F00
07E0
03E0
ENDCHAR
STARTCHAR  0286
ENCODING  646
SWIDTH  1000 0
DWIDTH  14 0
BBX  15 29 0 2
BITMAP
003E
007E
00F0
00E0
00E0
00E0
00E0
00E0
00E0
00E0
00E0
00E0
00E0
00E0
00E0
00E0
00E0
00E0
00E0
00E0
00E0
3CE0
7EE0
F7E0
E3C0
E3C0
F7E0
7F70
3E20
ENDCHAR
STARTCHAR  0287
ENCODING  647
SWIDTH  1000 0
DWIDTH  10 0
BBX  9 21 0 8
BITMAP
F800
FC00
1E00
0E00
0E00
0E00
0E00
0E00
0E00
0E00
0E00
0E00
0E00
0E00
0E00
7F80
7F80
0E00
0E00
0E00
0E00
ENDCHAR
STARTCHAR  0288
ENCODING  648
SWIDTH  1000 0
DWIDTH  10 0
BBX  8 28 1 2
BITMAP
38
38
38
38
38
FF
FF
38
38
38
38
38
38
38
38
38
38
38
38
38
38
38
38
38
38
3C
3F
0F
ENDCHAR
STARTCHAR  0289
ENCODING  649
SWIDTH  1000 0
DWIDTH  18 0
BBX  18 17 0 8
BITMAP
380700
380700
380700
380700
380700
380700
FFFFC0
FFFFC0
380700
380700
380700
380700
380F00
3C1F00
1F7F00
1FF700
07C700
ENDCHAR
STARTCHAR  028A
ENCODING  650
SWIDTH  1000 0
DWIDTH  19 0
BBX  17 17 1 8
BITMAP
FE3F80
FE3F80
0E3800
380E00
700700
700700
E00380
E00380
E00380
E00380
E00380
E00380
700700
780F00
3E3E00
1FFC00
07F000
ENDCHAR
STARTCHAR  028B
ENCODING  651
SWIDTH  1000 0
DWIDTH  17 0
BBX  14 17 2 8
BITMAP
E3F0
E3F8
E23C
E01C
E01C
E01C
E01C
E01C
E01C
E01C
E018
E038
E038
F070
7FF0
7FE0
1F80
ENDCHAR
STARTCHAR  028C
ENCODING  652
SWIDTH  1000 0
DWIDTH  16 0
BBX  16 17 0 8
BITMAP
03C0
03C0
03C0
07E0
07E0
0660
0E70
0E70
0C30
1C38
1C38
381C
381C
381C
700E
700E
700E
ENDCHAR
STARTCHAR  028D
ENCODING  653
SWIDTH  1000 0
DWIDTH  23 0
BBX  23 17 0 8
BITMAP
0701C0
0701C0
0F83E0
0F83E0
0D83E0
0DC370
1DC770
1DC770
18C630
38EE38
38EE38
386E38
707C1C
707C1C
707C1C
70381C
F0380E
ENDCHAR
STARTCHAR  028E
ENCODING  654
SWIDTH  1000 0
DWIDTH  16 0
BBX  16 23 0 8
BITMAP
003C
007C
00F0
00C0
01C0
0180
0380
0380
03C0
07C0
07E0
06E0
0E60
0E70
1C70
1C30
1C38
3838
381C
781C
701C
700E
F00E
ENDCHAR
STARTCHAR  028F
ENCODING  655
SWIDTH  1000 0
DWIDTH  15 0
BBX  17 17 -1 8
BITMAP
700700
380E00
380E00
1C1C00
0E3800
0E3800
077000
036000
03E000
01C000
01C000
01C000
01C000
01C000
01C000
01C000
01C000
ENDCHAR
STARTCHAR  0290
ENCODING  656
SWIDTH  1000 0
DWIDTH  16 0
BBX  18 23 0 2
BITMAP
7FFE00
7FFE00
001E00
003C00
007800
00F000
01E000
01E000
03C000
078000
0F0000
1E0000
3C0000
380000
780000
FFFE00
FFFE00
000E00
000E00
000E00
000F00
0007C0
0003C0
ENDCHAR
STARTCHAR  0291
ENCODING  657
SWIDTH  1000 0
DWIDTH  18 0
BBX  17 20 0 5
BITMAP
7FFE00
7FFE00
001E00
003C00
007800
00F000
01E000
01E000
03C000
078000
0F1F00
1E3F80
3C7180
38E180
78E380
FFFF00
FFFE00
038000
070000
000000
ENDCHAR
STARTCHAR  0292
ENCODING  658
SWIDTH  1000 0
DWIDTH  15 0
BBX  14 23 1 2
BITMAP
7FF8
7FF8
0078
00F0
00E0
01C0
0380
0780
07C0
01E0
0070
0070
0038
0038
0038
0038
0038
0038
0078
8070
F3E0
FFC0
3F80
ENDCHAR
STARTCHAR  0293
ENCODING  659
SWIDTH  1000 0
DWIDTH  15 0
BBX  15 23 1 2
BITMAP
7FF8
7FF8
0078
00F0
00E0
01C0
0380
0380
07C0
01E0
0070
0070
0038
0038
0038
3E38
7FB8
F3F8
E1F0
E0F0
F3F8
7FDC
3F08
ENDCHAR
STARTCHAR  0294
ENCODING  660
SWIDTH  1000 0
DWIDTH  15 0
BBX  16 23 -1 8
BITMAP
07C0
1FF0
3C78
783C
701C
000E
000E
000E
000E
000E
000E
000E
001C
001C
0038
03F8
03E0
0380
0380
0380
0380
0380
0380
ENDCHAR
STARTCHAR  0295
ENCODING  661
SWIDTH  1000 0
DWIDTH  16 0
BBX  15 23 1 8
BITMAP
07E0
1FF8
3C78
781C
701C
F000
E000
E000
E000
E000
E000
E000
7000
7000
3C00
3F80
0F80
0380
0380
0380
0380
0380
0380
ENDCHAR
STARTCHAR  0296
ENCODING  662
SWIDTH  1000 0
DWIDTH  15 0
BBX  16 23 -1 8
BITMAP
0380
0380
0380
0380
0380
0380
03E0
03F0
0078
001C
001C
000E
000E
000E
000E
000E
000E
000E
701C
783C
3C78
1FF0
07C0
ENDCHAR
STARTCHAR  0297
ENCODING  663
SWIDTH  1000 0
DWIDTH  16 0
BBX  15 23 1 2
BITMAP
07E0
1FF8
3C7C
781C
701C
E000
E000
E000
E000
E000
E000
E000
E000
E000
E000
E000
E000
E000
701C
781C
3E7C
1FF8
07E0
ENDCHAR
STARTCHAR  0298
ENCODING  664
SWIDTH  1000 0
DWIDTH  24 0
BBX  22 23 1 8
BITMAP
01FE00
07FF80
0F87C0
1E01E0
380070
780078
700038
700038
E0001C
E0201C
E0701C
E0701C
E0301C
E0001C
E0001C
700038
700038
780078
380070
1E01E0
0F87C0
07FF80
01FE00
ENDCHAR
STARTCHAR  0299
ENCODING  665
SWIDTH  1000 0
DWIDTH  17 0
BBX  14 17 2 8
BITMAP
FFC0
FFF0
E0F8
E038
E038
E038
E078
FFF0
FFF0
E078
E03C
E01C
E01C
E01C
E078
FFF8
FFE0
ENDCHAR
STARTCHAR  029A
ENCODING  666
SWIDTH  1000 0
DWIDTH  17 0
BBX  15 17 1 8
BITMAP
0FC0
3FF0
78F8
E03C
E01C
E01E
700E
3F8E
3F8E
780E
F00E
E01E
E01C
F03C
78F8
3FF0
0FC0
ENDCHAR
STARTCHAR  029B
ENCODING  667
SWIDTH  1000 0
DWIDTH  19 0
BBX  20 21 1 8
BITMAP
000000
0001F0
0003F0
000710
07E600
1FFE00
3E7E00
781E00
700E00
E00000
E00000
E00000
E07E00
E07E00
E00E00
E00E00
700E00
701E00
3E7E00
1FFE00
07C600
ENDCHAR
STARTCHAR  029C
ENCODING  668
SWIDTH  1000 0
DWIDTH  17 0
BBX  13 17 2 8
BITMAP
E038
E038
E038
E038
E038
E038
E038
FFF8
FFF8
E038
E038
E038
E038
E038
E038
E038
E038
ENDCHAR
STARTCHAR  029D
ENCODING  669
SWIDTH  1000 0
DWIDTH  13 0
BBX  12 29 1 2
BITMAP
01C0
01C0
01C0
0000
0000
0000
01C0
01C0
01C0
01C0
01C0
01C0
01C0
01C0
01C0
01C0
01C0
01C0
01C0
01C0
01C0
3FF0
7FF0
F1C0
E1C0
E1C0
FFC0
7F80
3F00
ENDCHAR
STARTCHAR  029E
ENCODING  670
SWIDTH  1000 0
DWIDTH  16 0
BBX  15 23 0 2
BITMAP
701C
781C
381C
1C1C
1E1C
0E1C
0F1C
073C
03FC
03FC
01FC
03DC
079C
0F1C
1E1C
3C1C
781C
001C
001C
001C
001C
001C
001C
ENDCHAR
STARTCHAR  029F
ENCODING  671
SWIDTH  1000 0
DWIDTH  14 0
BBX  11 17 2 8
BITMAP
E000
E000
E000
E000
E000
E000
E000
E000
E000
E000
E000
E000
E000
E000
E000
FFE0
FFE0
ENDCHAR
STARTCHAR  02A0
ENCODING  672
SWIDTH  1000 0
DWIDTH  18 0
BBX  19 29 1 2
BITMAP
0003E0
0007E0
000F00
000E00
000E00
000E00
07CE00
1FFE00
3C7E00
781E00
700E00
E00E00
E00E00
E00E00
E00E00
E00E00
E00E00
E00E00
700E00
703E00
3C7E00
1FEE00
0FCE00
000E00
000E00
000E00
000E00
000E00
000E00
ENDCHAR
STARTCHAR  02A1
ENCODING  673
SWIDTH  1000 0
DWIDTH  15 0
BBX  16 23 -1 8
BITMAP
07C0
1FF0
3C78
783C
701C
000E
000E
000E
000E
000E
000E
000E
001C
001C
0078
03F0
03E0
0380
03F0
1FF0
1FF0
0380
0380
ENDCHAR
STARTCHAR  02A2
ENCODING  674
SWIDTH  1000 0
DWIDTH  15 0
BBX  15 23 1 8
BITMAP
07C0
1FF0
3C78
783C
701C
E000
E000
E000
E000
E000
E000
E000
7000
7000
3C00
1F80
0F80
0380
03F0
1FF0
1FF0
0380
0380
ENDCHAR
STARTCHAR  02A3
ENCODING  675
SWIDTH  1000 0
DWIDTH  31 0
BBX  29 23 1 8
BITMAP
000E0000
000E0000
000E0000
000E0000
000E0000
000E0000
07CFFFF0
1FFFFFF0
3C7E00F0
780E00E0
700E01E0
E00E03C0
E00E0780
E00E0F00
E00E1E00
E00E3C00
E00E3C00
E00E7800
700EF000
701FE000
3C7FFFF8
1FEFFFF8
0FCFFFF8
ENDCHAR
STARTCHAR  02A4
ENCODING  676
SWIDTH  1000 0
DWIDTH  28 0
BBX  27 29 1 2
BITMAP
000E0000
000E0000
000E0000
000E0000
000E0000
000E0000
07CFFFC0
1FFFFFC0
3C7E03C0
780E0780
700E0700
E00E0E00
E00E1E00
E00E1C00
E00E3E00
E00E0F00
E00E0780
E00E0380
701E01C0
703E01C0
3C7E01C0
1FEE01C0
0FCE01C0
000001C0
000003C0
00040380
00079F80
0007FF00
0000FC00
ENDCHAR
STARTCHAR  02A5
ENCODING  677
SWIDTH  1000 0
DWIDTH  33 0
BBX  31 26 1 5
BITMAP
000E0000
000E0000
000E0000
000E0000
000E0000
000E0000
07CFFFF0
1FFFFFF0
3C7E00F0
780E01E0
700E03C0
E00E0380
E00E0780
E00E0F00
E00E1E00
E00E3C78
E00E78FC
E00E71DE
701EF38E
703FE30E
3C7FC71E
1FEFFFFC
0FCFFFF8
00001C00
00000800
00000000
ENDCHAR
STARTCHAR  02A6
ENCODING  678
SWIDTH  1000 0
DWIDTH  23 0
BBX  22 21 1 8
BITMAP
380000
380000
380000
380000
FFFF80
FFFFE0
38F9F0
38E070
38E000
38E000
38F800
387F80
381FE0
3803F0
380078
380038
380038
380038
3C01F0
1FFFE0
0FFFC0
ENDCHAR
STARTCHAR  02A7
ENCODING  679
SWIDTH  1000 0
DWIDTH  15 0
BBX  15 29 1 2
BITMAP
003E
007E
38F0
38E0
38E0
38E0
FFE0
FFE0
38E0
38E0
38E0
38E0
38E0
38E0
38E0
38E0
38E0
38E0
38E0
38E0
3CE0
1FE0
0FE0
00E0
00E0
00E0
01E0
0FC0
0F80
ENDCHAR
STARTCHAR  02A8
ENCODING  680
SWIDTH  1000 0
DWIDTH  25 0
BBX  24 21 1 8
BITMAP
380000
380000
380000
380000
FF03F0
FF0FFC
381E3E
383C0E
38380F
387000
387000
387000
387000
3871F8
3877FC
387F9E
383E0E
387C0E
3FFFFE
1FEFFC
0F83F0
ENDCHAR
STARTCHAR  02A9
ENCODING  681
SWIDTH  1000 0
DWIDTH  25 0
BBX  23 29 1 2
BITMAP
0F8000
1F8000
3C0000
380000
380000
380000
FFE3E0
FFEFF8
38FC78
38F03C
38E01C
38E01C
38E01C
38E01C
38E01C
38E01C
38E01C
38E01C
38E01C
38E01C
38E01C
38E01C
38E01C
00001C
00001C
00001C
00003C
0000F8
0000F0
ENDCHAR
STARTCHAR  02AA
ENCODING  682
SWIDTH  1000 0
DWIDTH  21 0
BBX  19 23 2 8
BITMAP
E00000
E00000
E00000
E00000
E00000
E00000
E0FE00
E3FF80
E3C7C0
E701C0
E701C0
E70000
E7E000
E3FC00
E0FF00
E01F80
E003C0
E001C0
E001C0
F803C0
FF8780
FFFF00
E3FC00
ENDCHAR
STARTCHAR  02AB
ENCODING  683
SWIDTH  1000 0
DWIDTH  20 0
BBX  17 23 2 8
BITMAP
E00000
E00000
E00000
E00000
E00000
E00000
FFFF80
FFFF80
E00F00
E00E00
E01E00
E03C00
E07800
E0F000
E1E000
E1C000
E3C000
E78000
EF0000
FE0000
FFFF80
FFFF80
FFFF80
ENDCHAR
STARTCHAR  02AC
ENCODING  684
SWIDTH  1000 0
DWIDTH  16 0
BBX  16 23 0 8
BITMAP
6186
6186
638C
63CC
32CC
364C
3668
3478
1C38
1C38
1830
0000
6186
6186
6384
63CC
32CC
364C
3668
3478
1C78
1C38
1830
ENDCHAR
STARTCHAR  02AD
ENCODING  685
SWIDTH  1000 0
DWIDTH  18 0
BBX  14 23 2 8
BITMAP
FFFC
FFFC
E01C
E01C
E01C
E01C
E01C
E01C
0000
0000
0000
0000
0000
0000
0000
0000
FFFC
FFFC
E01C
E01C
E01C
E01C
E01C
ENDCHAR
STARTCHAR  0300
ENCODING  768
SWIDTH  1000 0
DWIDTH  11 0
BBX  7 4 1 27
BITMAP
70
38
38
1C
ENDCHAR
STARTCHAR  0301
ENCODING  769
SWIDTH  1000 0
DWIDTH  11 0
BBX  7 4 3 27
BITMAP
3C
38
70
60
ENDCHAR
STARTCHAR  0302
ENCODING  770
SWIDTH  1000 0
DWIDTH  0 0
BBX  10 5 -5 26
BITMAP
1E00
3F00
3F00
7380
E1C0
ENDCHAR
STARTCHAR  0303
ENCODING  771
SWIDTH  1000 0
DWIDTH  12 0
BBX  11 4 1 27
BITMAP
78C0
FFC0
EF80
0000
ENDCHAR
STARTCHAR  0304
ENCODING  772
SWIDTH  1000 0
DWIDTH  0 0
BBX  10 3 -5 28
BITMAP
0000
FFC0
FFC0
ENDCHAR
STARTCHAR  0305
ENCODING  773
SWIDTH  1000 0
DWIDTH  0 0
BBX  16 2 -8 33
BITMAP
FFFF
FFFF
ENDCHAR
STARTCHAR  0306
ENCODING  774
SWIDTH  1000 0
DWIDTH  0 0
BBX  10 5 -5 26
BITMAP
C0C0
6180
7F80
3F00
0000
ENDCHAR
STARTCHAR  0307
ENCODING  775
SWIDTH  1000 0
DWIDTH  0 0
BBX  4 3 -1 28
BITMAP
E0
E0
E0
ENDCHAR
STARTCHAR  0308
ENCODING  776
SWIDTH  1000 0
DWIDTH  0 0
BBX  9 3 -4 28
BITMAP
E380
E380
E380
ENDCHAR
STARTCHAR  0309
ENCODING  777
SWIDTH  1000 0
DWIDTH  11 0
BBX  5 5 3 26
BITMAP
F0
98
18
70
60
ENDCHAR
STARTCHAR  030A
ENCODING  778
SWIDTH  1000 0
DWIDTH  0 0
BBX  6 6 -3 26
BITMAP
78
CC
84
84
CC
78
ENDCHAR
STARTCHAR  030B
ENCODING  779
SWIDTH  1000 0
DWIDTH  0 0
BBX  12 4 -6 27
BITMAP
3CE0
39C0
7180
6380
ENDCHAR
STARTCHAR  030C
ENCODING  780
SWIDTH  1000 0
DWIDTH  0 0
BBX  10 5 -5 26
BITMAP
F3C0
7380
3F00
1E00
1E00
ENDCHAR
STARTCHAR  030D
ENCODING  781
SWIDTH  1000 0
DWIDTH  0 0
BBX  3 6 -1 27
BITMAP
C0
C0
C0
C0
C0
C0
ENDCHAR
STARTCHAR  030E
ENCODING  782
SWIDTH  1000 0
DWIDTH  0 0
BBX  7 6 -3 27
BITMAP
CC
CC
CC
CC
CC
CC
ENDCHAR
STARTCHAR  030F
ENCODING  783
SWIDTH  1000 0
DWIDTH  0 0
BBX  12 4 -6 27
BITMAP
73C0
39C0
18E0
1C60
ENDCHAR
STARTCHAR  0310
ENCODING  784
SWIDTH  1000 0
DWIDTH  0 0
BBX  11 9 -5 26
BITMAP
0E00
0E00
0E00
0000
60C0
71C0
3F80
1F00
0000
ENDCHAR
STARTCHAR  0311
ENCODING  785
SWIDTH  1000 0
DWIDTH  0 0
BBX  10 5 -5 26
BITMAP
1E00
7F80
7380
E180
0000
ENDCHAR
STARTCHAR  0312
ENCODING  786
SWIDTH  1000 0
DWIDTH  0 0
BBX  4 5 -1 27
BITMAP
60
C0
C0
E0
E0
ENDCHAR
STARTCHAR  0313
ENCODING  787
SWIDTH  1000 0
DWIDTH  0 0
BBX  4 5 -1 27
BITMAP
E0
E0
60
60
C0
ENDCHAR
STARTCHAR  0314
ENCODING  788
SWIDTH  1000 0
DWIDTH  0 0
BBX  4 5 -1 27
BITMAP
E0
E0
C0
C0
60
ENDCHAR
STARTCHAR  0315
ENCODING  789
SWIDTH  1000 0
DWIDTH  0 0
BBX  4 5 2 27
BITMAP
E0
E0
60
60
C0
ENDCHAR
STARTCHAR  0316
ENCODING  790
SWIDTH  1000 0
DWIDTH  0 0
BBX  6 4 -3 2
BITMAP
70
78
38
1C
ENDCHAR
STARTCHAR  0317
ENCODING  791
SWIDTH  1000 0
DWIDTH  0 0
BBX  6 4 -3 2
BITMAP
38
78
70
E0
ENDCHAR
STARTCHAR  0318
ENCODING  792
SWIDTH  1000 0
DWIDTH  0 0
BBX  7 6 -3 2
BITMAP
0C
0C
FC
FC
0C
0C
ENDCHAR
STARTCHAR  0319
ENCODING  793
SWIDTH  1000 0
DWIDTH  0 0
BBX  6 6 -3 2
BITMAP
C0
C0
FC
FC
C0
C0
ENDCHAR
STARTCHAR  031A
ENCODING  794
SWIDTH  1000 0
DWIDTH  0 0
BBX  13 8 -6 27
BITMAP
0000
FFF0
FFF0
0030
0030
0030
0030
0030
ENDCHAR
STARTCHAR  031B
ENCODING  795
SWIDTH  1000 0
DWIDTH  0 0
BBX  4 7 0 29
BITMAP
F0
F0
F0
30
30
E0
80
ENDCHAR
STARTCHAR  031C
ENCODING  796
SWIDTH  1000 0
DWIDTH  0 0
BBX  3 6 -1 2
BITMAP
60
C0
80
80
C0
60
ENDCHAR
STARTCHAR  031D
ENCODING  797
SWIDTH  1000 0
DWIDTH  0 0
BBX  6 6 -3 2
BITMAP
30
30
30
30
FC
FC
ENDCHAR
STARTCHAR  031E
ENCODING  798
SWIDTH  1000 0
DWIDTH  0 0
BBX  6 6 -3 2
BITMAP
FC
FC
30
30
30
30
ENDCHAR
STARTCHAR  031F
ENCODING  799
SWIDTH  1000 0
DWIDTH  0 0
BBX  6 6 -3 2
BITMAP
30
30
FC
FC
30
30
ENDCHAR
STARTCHAR  0320
ENCODING  800
SWIDTH  1000 0
DWIDTH  0 0
BBX  10 3 -5 2
BITMAP
0000
FFC0
FFC0
ENDCHAR
STARTCHAR  0321
ENCODING  801
SWIDTH  1000 0
DWIDTH  0 0
BBX  8 9 -4 2
BITMAP
0E
0E
0E
0E
0E
0E
DE
FC
F8
ENDCHAR
STARTCHAR  0322
ENCODING  802
SWIDTH  1000 0
DWIDTH  0 0
BBX  7 9 0 2
BITMAP
E0
E0
E0
E0
E0
E0
FE
7E
3E
ENDCHAR
STARTCHAR  0323
ENCODING  803
SWIDTH  1000 0
DWIDTH  11 0
BBX  4 3 4 2
BITMAP
E0
E0
E0
ENDCHAR
STARTCHAR  0324
ENCODING  804
SWIDTH  1000 0
DWIDTH  0 0
BBX  9 3 -4 2
BITMAP
E380
E380
E380
ENDCHAR
STARTCHAR  0325
ENCODING  805
SWIDTH  1000 0
DWIDTH  0 0
BBX  6 6 -3 2
BITMAP
78
CC
84
84
CC
78
ENDCHAR
STARTCHAR  0326
ENCODING  806
SWIDTH  1000 0
DWIDTH  0 0
BBX  4 5 -1 2
BITMAP
E0
E0
60
60
C0
ENDCHAR
STARTCHAR  0327
ENCODING  807
SWIDTH  1000 0
DWIDTH  0 0
BBX  7 7 -4 2
BITMAP
00
30
3C
0E
0E
FE
F8
ENDCHAR
STARTCHAR  0328
ENCODING  808
SWIDTH  1000 0
DWIDTH  0 0
BBX  7 7 -3 2
BITMAP
E0
C0
C0
C0
E2
7E
3C
ENDCHAR
STARTCHAR  0329
ENCODING  809
SWIDTH  1000 0
DWIDTH  0 0
BBX  3 6 -1 2
BITMAP
C0
C0
C0
C0
C0
C0
ENDCHAR
STARTCHAR  032A
ENCODING  810
SWIDTH  1000 0
DWIDTH  0 0
BBX  12 6 -6 2
BITMAP
FFF0
FFF0
C030
C030
C030
C030
ENDCHAR
STARTCHAR  032B
ENCODING  811
SWIDTH  1000 0
DWIDTH  0 0
BBX  11 4 -5 2
BITMAP
8420
8420
7BC0
0000
ENDCHAR
STARTCHAR  032C
ENCODING  812
SWIDTH  1000 0
DWIDTH  0 0
BBX  10 5 -5 2
BITMAP
E1C0
7380
3F00
3F00
1E00
ENDCHAR
STARTCHAR  032D
ENCODING  813
SWIDTH  1000 0
DWIDTH  0 0
BBX  10 5 -5 2
BITMAP
1E00
1E00
3F00
7380
F3C0
ENDCHAR
STARTCHAR  032E
ENCODING  814
SWIDTH  1000 0
DWIDTH  0 0
BBX  10 4 -5 2
BITMAP
C1C0
7380
7F80
1E00
ENDCHAR
STARTCHAR  032F
ENCODING  815
SWIDTH  1000 0
DWIDTH  0 0
BBX  10 5 -5 2
BITMAP
0000
3F00
7F80
6180
C0C0
ENDCHAR
STARTCHAR  0330
ENCODING  816
SWIDTH  1000 0
DWIDTH  0 0
BBX  11 4 -5 2
BITMAP
0000
7CC0
FFC0
C780
ENDCHAR
STARTCHAR  0331
ENCODING  817
SWIDTH  1000 0
DWIDTH  0 0
BBX  10 3 -5 2
BITMAP
0000
FFC0
FFC0
ENDCHAR
STARTCHAR  0332
ENCODING  818
SWIDTH  1000 0
DWIDTH  0 0
BBX  18 2 -9 3
BITMAP
FFFFC0
FFFFC0
ENDCHAR
STARTCHAR  0333
ENCODING  819
SWIDTH  1000 0
DWIDTH  0 0
BBX  16 5 -8 2
BITMAP
FFFF
FFFF
0000
FFFF
FFFF
ENDCHAR
STARTCHAR  0334
ENCODING  820
SWIDTH  1000 0
DWIDTH  0 0
BBX  11 4 -5 18
BITMAP
0000
7CC0
FFC0
C780
ENDCHAR
STARTCHAR  0335
ENCODING  821
SWIDTH  1000 0
DWIDTH  0 0
BBX  10 3 -5 18
BITMAP
0000
FFC0
FFC0
ENDCHAR
STARTCHAR  0336
ENCODING  822
SWIDTH  1000 0
DWIDTH  0 0
BBX  18 2 -9 18
BITMAP
FFFFC0
FFFFC0
ENDCHAR
STARTCHAR  0337
ENCODING  823
SWIDTH  1000 0
DWIDTH  0 0
BBX  12 12 -6 13
BITMAP
0010
0030
0070
00E0
0380
0700
0E00
1C00
7000
E000
C000
8000
ENDCHAR
STARTCHAR  0338
ENCODING  824
SWIDTH  1000 0
DWIDTH  0 0
BBX  10 23 -5 8
BITMAP
0180
0180
0380
0300
0300
0300
0700
0600
0600
0E00
0C00
0C00
0C00
1C00
1800
1800
3800
3000
3000
3000
7000
6000
6000
ENDCHAR
STARTCHAR  0339
ENCODING  825
SWIDTH  1000 0
DWIDTH  0 0
BBX  3 6 -2 2
BITMAP
C0
60
20
20
60
C0
ENDCHAR
STARTCHAR  033A
ENCODING  826
SWIDTH  1000 0
DWIDTH  0 0
BBX  12 6 -6 2
BITMAP
C030
C030
C030
C030
FFF0
FFF0
ENDCHAR
STARTCHAR  033B
ENCODING  827
SWIDTH  1000 0
DWIDTH  0 0
BBX  7 6 -4 2
BITMAP
7E
42
42
42
42
7E
ENDCHAR
STARTCHAR  033C
ENCODING  828
SWIDTH  1000 0
DWIDTH  0 0
BBX  11 4 -5 2
BITMAP
3B80
4E40
0400
0000
ENDCHAR
STARTCHAR  033D
ENCODING  829
SWIDTH  1000 0
DWIDTH  0 0
BBX  8 8 -4 29
BITMAP
00
66
7E
3C
3C
7E
66
00
ENDCHAR
STARTCHAR  033E
ENCODING  830
SWIDTH  1000 0
DWIDTH  0 0
BBX  5 9 -2 28
BITMAP
30
40
40
60
30
10
10
60
00
ENDCHAR
STARTCHAR  033F
ENCODING  831
SWIDTH  1000 0
DWIDTH  0 0
BBX  16 5 -8 32
BITMAP
FFFF
FFFF
0000
FFFF
FFFF
ENDCHAR
STARTCHAR  0340
ENCODING  832
SWIDTH  1000 0
DWIDTH  11 0
BBX  7 4 1 27
BITMAP
70
38
38
1C
ENDCHAR
STARTCHAR  0341
ENCODING  833
SWIDTH  1000 0
DWIDTH  11 0
BBX  7 4 3 27
BITMAP
3C
38
70
60
ENDCHAR
STARTCHAR  0342
ENCODING  834
SWIDTH  1000 0
DWIDTH  0 0
BBX  11 4 -5 27
BITMAP
78C0
FFC0
EF80
0000
ENDCHAR
STARTCHAR  0343
ENCODING  835
SWIDTH  1000 0
DWIDTH  0 0
BBX  4 5 -1 27
BITMAP
E0
E0
60
60
C0
ENDCHAR
STARTCHAR  0344
ENCODING  836
SWIDTH  1000 0
DWIDTH  0 0
BBX  13 5 -6 28
BITMAP
0380
0300
E770
E670
EC70
ENDCHAR
STARTCHAR  0345
ENCODING  837
SWIDTH  1000 0
DWIDTH  0 0
BBX  4 4 -2 3
BITMAP
60
60
60
60
ENDCHAR
STARTCHAR  0346
ENCODING  838
SWIDTH  1000 0
DWIDTH  0 0
BBX  12 7 -6 28
BITMAP
0000
FFF0
FFF0
C030
C030
C030
C030
ENDCHAR
STARTCHAR  0347
ENCODING  839
SWIDTH  1000 0
DWIDTH  0 0
BBX  16 5 -8 2
BITMAP
FFFF
FFFF
0000
FFFF
FFFF
ENDCHAR
STARTCHAR  0348
ENCODING  840
SWIDTH  1000 0
DWIDTH  0 0
BBX  7 6 -3 2
BITMAP
CC
CC
CC
CC
CC
CC
ENDCHAR
STARTCHAR  0349
ENCODING  841
SWIDTH  1000 0
DWIDTH  0 0
BBX  7 6 -3 2
BITMAP
FC
FC
0C
0C
0C
0C
ENDCHAR
STARTCHAR  034A
ENCODING  842
SWIDTH  1000 0
DWIDTH  0 0
BBX  11 6 -5 26
BITMAP
0200
7EC0
FFC0
EF80
1800
0000
ENDCHAR
STARTCHAR  034B
ENCODING  843
SWIDTH  1000 0
DWIDTH  0 0
BBX  11 11 -6 24
BITMAP
0000
0600
0600
0000
3C60
7FE0
67C0
0000
0000
0600
0600
ENDCHAR
STARTCHAR  034C
ENCODING  844
SWIDTH  1000 0
DWIDTH  0 0
BBX  11 8 -5 27
BITMAP
0000
7CC0
FFC0
C780
78C0
FFC0
EF80
0000
ENDCHAR
STARTCHAR  034D
ENCODING  845
SWIDTH  1000 0
DWIDTH  0 0
BBX  10 7 -5 1
BITMAP
0000
0000
2100
7F80
7F80
2100
0000
ENDCHAR
STARTCHAR  034E
ENCODING  846
SWIDTH  1000 0
DWIDTH  0 0
BBX  6 7 -3 2
BITMAP
00
30
78
30
30
30
30
ENDCHAR
STARTCHAR  0360
ENCODING  864
SWIDTH  1000 0
DWIDTH  0 0
BBX  26 5 -3 31
BITMAP
0FC00180
1FF80380
38FFCF00
600FFE00
E000F800
ENDCHAR
STARTCHAR  0361
ENCODING  865
SWIDTH  1000 0
DWIDTH  0 0
BBX  26 7 -3 31
BITMAP
00000000
01FFC000
07FFF000
1F007C00
3C000E00
70000700
60000380
ENDCHAR
STARTCHAR  0362
ENCODING  866
SWIDTH  1000 0
DWIDTH  0 0
BBX  19 7 -3 1
BITMAP
000000
000000
000080
FFFFC0
FFFFC0
000080
000000
ENDCHAR
STARTCHAR  1E00
ENCODING  7680
SWIDTH  1000 0
DWIDTH  22 0
BBX  23 29 0 2
BITMAP
007800
00FC00
00FC00
00FC00
01CE00
01CE00
01CF00
038700
038700
070380
070380
0701C0
0E01C0
0FFFC0
0FFFE0
1C00E0
1C00F0
380070
380070
380078
700038
70003C
70001C
007800
00CC00
008400
008400
00CC00
007800
ENDCHAR
STARTCHAR  1E01
ENCODING  7681
SWIDTH  1000 0
DWIDTH  17 0
BBX  15 23 1 2
BITMAP
0FE0
3FF8
7C78
701C
701C
001C
07FC
3FFC
7E1C
701C
E01C
E01C
E01C
E03C
78FC
7FDC
1F9C
0380
06C0
0440
0440
06C0
0380
ENDCHAR
STARTCHAR  1E02
ENCODING  7682
SWIDTH  1000 0
DWIDTH  22 0
BBX  18 28 3 8
BITMAP
038000
038000
038000
000000
000000
FFF000
FFFC00
E03E00
E00E00
E00700
E00700
E00700
E00700
E00E00
E01E00
FFFC00
FFFC00
E03E00
E00700
E00380
E00380
E00380
E00380
E00380
E00700
E03F00
FFFE00
FFF000
ENDCHAR
STARTCHAR  1E03
ENCODING  7683
SWIDTH  1000 0
DWIDTH  17 0
BBX  15 23 2 8
BITMAP
E380
E380
E380
E000
E000
E000
E7C0
EFF0
FCF0
F038
E038
E01C
E01C
E01C
E01C
E01C
E01C
E01C
E038
F038
FCF0
FFE0
E7C0
ENDCHAR
STARTCHAR  1E04
ENCODING  7684
SWIDTH  1000 0
DWIDTH  22 0
BBX  18 29 3 2
BITMAP
FFF000
FFFC00
E03E00
E00F00
E00700
E00700
E00700
E00700
E00E00
E03C00
FFF800
FFFE00
E00F00
E00700
E00380
E00380
E00380
E00380
E00380
E00700
E03F00
FFFE00
FFF000
000000
000000
000000
038000
038000
038000
ENDCHAR
STARTCHAR  1E05
ENCODING  7685
SWIDTH  1000 0
DWIDTH  17 0
BBX  15 29 2 2
BITMAP
E000
E000
E000
E000
E000
E000
E7C0
EFF0
FCF0
F038
E038
E01C
E01C
E01C
E01C
E01C
E01C
E01C
E038
F038
FCF0
FFE0
E7C0
0000
0000
0000
0380
0380
0380
ENDCHAR
STARTCHAR  1E06
ENCODING  7686
SWIDTH  1000 0
DWIDTH  22 0
BBX  18 29 3 2
BITMAP
FFF000
FFFC00
E03E00
E00E00
E00700
E00700
E00700
E00700
E00E00
E01E00
FFFC00
FFFC00
E03E00
E00700
E00380
E00380
E00380
E00380
E00380
E00700
E03F00
FFFE00
FFF000
000000
000000
000000
3FF000
3FF000
000000
ENDCHAR
STARTCHAR  1E07
ENCODING  7687
SWIDTH  1000 0
DWIDTH  17 0
BBX  15 28 2 3
BITMAP
E000
E000
E000
E000
E000
E000
E7C0
EFF0
FCF0
F038
E038
E01C
E01C
E01C
E01C
E01C
E01C
E01C
E038
F038
FCF0
FFE0
E7C0
0000
0000
0000
3FF0
3FF0
ENDCHAR
STARTCHAR  1E08
ENCODING  7688
SWIDTH  1000 0
DWIDTH  23 0
BBX  21 36 1 2
BITMAP
001E00
003C00
003800
007000
006000
000000
000000
01FC00
07FF00
0FFFC0
1E03E0
3C00E0
7800F0
700070
F00000
E00000
E00000
E00000
E00000
E00000
E00000
E00000
F00000
700070
7000F0
3800E0
3C01E0
1F8FC0
07FF80
01FE00
006000
007800
001C00
003C00
01FC00
01F000
ENDCHAR
STARTCHAR  1E09
ENCODING  7689
SWIDTH  1000 0
DWIDTH  16 0
BBX  15 29 1 2
BITMAP
00E0
01C0
01C0
0380
0000
0000
07E0
1FF8
3E78
781C
701C
E000
E000
E000
E000
E000
E000
E000
701C
701C
3C3C
1FF8
07E0
0180
01C0
0060
00E0
07E0
0780
ENDCHAR
STARTCHAR  1E0A
ENCODING  7690
SWIDTH  1000 0
DWIDTH  24 0
BBX  19 28 3 8
BITMAP
038000
038000
038000
000000
000000
FFF000
FFFC00
E03F00
E00780
E00380
E001C0
E001C0
E001E0
E000E0
E000E0
E000E0
E000E0
E000E0
E000E0
E000E0
E001E0
E001C0
E001C0
E00380
E00780
E03F00
FFFC00
FFF000
ENDCHAR
STARTCHAR  1E0B
ENCODING  7691
SWIDTH  1000 0
DWIDTH  18 0
BBX  16 23 1 8
BITMAP
038E
038E
038E
000E
000E
000E
07CE
1FFE
3E7E
781E
700E
E00E
E00E
E00E
E00E
E00E
E00E
E00E
700E
703E
3C7E
1FEE
0FCE
ENDCHAR
STARTCHAR  1E0C
ENCODING  7692
SWIDTH  1000 0
DWIDTH  24 0
BBX  19 29 3 2
BITMAP
FFF000
FFFC00
E03F00
E00780
E00380
E001C0
E001C0
E001E0
E000E0
E000E0
E000E0
E000E0
E000E0
E000E0
E000E0
E001E0
E001C0
E001C0
E00380
E00780
E03F00
FFFC00
FFF000
000000
000000
000000
01C000
01C000
01C000
ENDCHAR
STARTCHAR  1E0D
ENCODING  7693
SWIDTH  1000 0
DWIDTH  18 0
BBX  15 29 1 2
BITMAP
000E
000E
000E
000E
000E
000E
07CE
1FFE
3C7E
781E
700E
E00E
E00E
E00E
E00E
E00E
E00E
E00E
701E
703E
3C7E
1FEE
0F8E
0000
0000
0000
0380
0380
0380
ENDCHAR
STARTCHAR  1E0E
ENCODING  7694
SWIDTH  1000 0
DWIDTH  24 0
BBX  19 29 3 2
BITMAP
FFF000
FFFC00
E03F00
E00780
E00380
E001C0
E001C0
E001E0
E000E0
E000E0
E000E0
E000E0
E000E0
E000E0
E000E0
E001E0
E001C0
E001C0
E00380
E00780
E03F00
FFFC00
FFF000
000000
000000
000000
1FF800
1FF800
000000
ENDCHAR
STARTCHAR  1E0F
ENCODING  7695
SWIDTH  1000 0
DWIDTH  18 0
BBX  16 28 1 3
BITMAP
000E
000E
000E
000E
000E
000E
07CE
1FFE
3E7E
781E
700E
E00E
E00E
E00E
E00E
E00E
E00E
E00E
700E
703E
3C7E
1FEE
0FCE
0000
0000
0000
1FF8
1FF8
ENDCHAR
STARTCHAR  1E10
ENCODING  7696
SWIDTH  1000 0
DWIDTH  24 0
BBX  19 29 3 2
BITMAP
FFF000
FFFC00
E03F00
E00780
E00380
E001C0
E001C0
E001E0
E000E0
E000E0
E000E0
E000E0
E000E0
E000E0
E000E0
E001E0
E001C0
E001C0
E00380
E00780
E03F00
FFFC00
FFF000
03C000
01E000
00E000
01E000
07E000
078000
ENDCHAR
STARTCHAR  1E11
ENCODING  7697
SWIDTH  1000 0
DWIDTH  18 0
BBX  16 29 1 2
BITMAP
000E
000E
000E
000E
000E
000E
07CE
1FFE
3E7E
781E
700E
E00E
E00E
E00E
E00E
E00E
E00E
E00E
700E
703E
3C7E
1FEE
0FCE
0380
01E0
00E0
01E0
0FE0
0F80
ENDCHAR
STARTCHAR  1E12
ENCODING  7698
SWIDTH  1000 0
DWIDTH  24 0
BBX  19 29 3 2
BITMAP
FFF000
FFFC00
E03F00
E00780
E00380
E001C0
E001C0
E001E0
E000E0
E000E0
E000E0
E000E0
E000E0
E000E0
E000E0
E001E0
E001C0
E001C0
E00380
E00780
E03F00
FFFC00
FFF000
000000
000000
03C000
07E000
0E7000
0E3800
ENDCHAR
STARTCHAR  1E13
ENCODING  7699
SWIDTH  1000 0
DWIDTH  18 0
BBX  16 29 1 2
BITMAP
000E
000E
000E
000E
000E
000E
07CE
1FFE
3E7E
781E
700E
E00E
E00E
E00E
E00E
E00E
E00E
E00E
700E
703E
3C7E
1FEE
0FCE
0000
0000
07C0
0EE0
0EE0
1C70
ENDCHAR
STARTCHAR  1E14
ENCODING  7700
SWIDTH  1000 0
DWIDTH  22 0
BBX  17 29 3 8
BITMAP
070000
038000
000000
1FF800
1FF800
000000
FFFF80
FFFF80
E00000
E00000
E00000
E00000
E00000
E00000
E00000
E00000
FFFF00
FFFF00
E00000
E00000
E00000
E00000
E00000
E00000
E00000
E00000
E00000
FFFF80
FFFF80
ENDCHAR
STARTCHAR  1E15
ENCODING  7701
SWIDTH  1000 0
DWIDTH  18 0
BBX  16 26 1 8
BITMAP
0700
0380
0180
0000
1FF8
1FF8
0000
0000
0000
07E0
1FF8
3E7C
781C
700E
E00E
E006
FFFE
FFFF
E000
E000
E000
700E
780E
3E3C
1FF8
07E0
ENDCHAR
STARTCHAR  1E16
ENCODING  7702
SWIDTH  1000 0
DWIDTH  22 0
BBX  17 29 3 8
BITMAP
00E000
01C000
000000
1FF800
1FF800
000000
FFFF80
FFFF80
E00000
E00000
E00000
E00000
E00000
E00000
E00000
E00000
FFFF00
FFFF00
E00000
E00000
E00000
E00000
E00000
E00000
E00000
E00000
E00000
FFFF80
FFFF80
ENDCHAR
STARTCHAR  1E17
ENCODING  7703
SWIDTH  1000 0
DWIDTH  18 0
BBX  16 26 1 8
BITMAP
01E0
01C0
0180
0000
1FF8
1FF8
0000
0000
0000
07E0
1FF8
3E7C
781C
700E
E00E
E006
FFFE
FFFF
E000
E000
E000
700E
780E
3E3C
1FF8
07E0
ENDCHAR
STARTCHAR  1E18
ENCODING  7704
SWIDTH  1000 0
DWIDTH  22 0
BBX  17 29 3 2
BITMAP
FFFF80
FFFF80
E00000
E00000
E00000
E00000
E00000
E00000
E00000
E00000
FFFF00
FFFF00
E00000
E00000
E00000
E00000
E00000
E00000
E00000
E00000
E00000
FFFF80
FFFF80
000000
000000
03C000
03E000
077000
0E3800
ENDCHAR
STARTCHAR  1E19
ENCODING  7705
SWIDTH  1000 0
DWIDTH  18 0
BBX  16 23 1 2
BITMAP
07E0
1FF8
3C7C
781C
700E
E00E
E00E
FFFE
FFFF
E000
E000
E000
700E
781E
3E7C
1FF8
07E0
0000
0000
03C0
07E0
0E70
1E78
ENDCHAR
STARTCHAR  1E1A
ENCODING  7706
SWIDTH  1000 0
DWIDTH  22 0
BBX  17 29 3 2
BITMAP
FFFF80
FFFF80
E00000
E00000
E00000
E00000
E00000
E00000
E00000
E00000
FFFF00
FFFF00
E00000
E00000
E00000
E00000
E00000
E00000
E00000
E00000
E00000
FFFF80
FFFF80
000000
000000
000000
07CC00
0FFC00
0C7800
ENDCHAR
STARTCHAR  1E1B
ENCODING  7707
SWIDTH  1000 0
DWIDTH  18 0
BBX  16 23 1 2
BITMAP
07E0
1FF8
3E7C
781C
701E
E00E
E00E
FFFE
FFFE
E000
E000
E000
700E
781E
3E7C
1FF8
07E0
0000
0000
0000
1F30
3FF0
31E0
ENDCHAR
STARTCHAR  1E1C
ENCODING  7708
SWIDTH  1000 0
DWIDTH  22 0
BBX  17 36 3 2
BITMAP
0C1800
0C1800
0E3800
07F000
03E000
000000
000000
FFFF80
FFFF80
E00000
E00000
E00000
E00000
E00000
E00000
E00000
FFFF00
FFFF00
E00000
E00000
E00000
E00000
E00000
E00000
E00000
E00000
E00000
E00000
FFFF80
FFFF80
018000
01E000
007000
00F000
07F000
07C000
ENDCHAR
STARTCHAR  1E1D
ENCODING  7709
SWIDTH  1000 0
DWIDTH  18 0
BBX  16 29 1 2
BITMAP
1830
0FF0
07E0
0000
0000
0000
07E0
1FF8
3E7C
781C
700E
E00E
E00E
FFFE
FFFF
E000
E000
E000
700E
701E
3C3C
1FF8
07E0
0180
01E0
0070
0070
07F0
07C0
ENDCHAR
STARTCHAR  1E1E
ENCODING  7710
SWIDTH  1000 0
DWIDTH  20 0
BBX  16 28 3 8
BITMAP
0380
0380
0380
0000
0000
FFFF
FFFF
E000
E000
E000
E000
E000
E000
E000
E000
FFFC
FFFC
E000
E000
E000
E000
E000
E000
E000
E000
E000
E000
E000
ENDCHAR
STARTCHAR  1E1F
ENCODING  7711
SWIDTH  1000 0
DWIDTH  10 0
BBX  10 28 1 8
BITMAP
0700
0700
0700
0000
0000
0FC0
1FC0
3C00
3800
3800
3800
FF80
FF80
3800
3800
3800
3800
3800
3800
3800
3800
3800
3800
3800
3800
3800
3800
3800
ENDCHAR
STARTCHAR  1E20
ENCODING  7712
SWIDTH  1000 0
DWIDTH  24 0
BBX  22 29 1 8
BITMAP
000000
03FF00
03FF00
000000
000000
000000
01FE00
07FF80
0F87C0
1E00E0
380070
780070
700078
700000
E00000
E00000
E00000
E00FF8
E00FF8
E00038
E00038
700038
700038
780038
380078
1E00F8
0F87F8
07FFB8
01FE18
ENDCHAR
STARTCHAR  1E21
ENCODING  7713
SWIDTH  1000 0
DWIDTH  18 0
BBX  16 29 1 2
BITMAP
3FF0
3FF0
0000
0000
0000
0000
07CE
1FFE
3E7E
781E
700E
E00E
E00E
E00E
E00E
E00E
E00E
E00E
700E
703E
3C7E
1FEE
0FCE
000E
700E
701C
3C7C
1FF8
0FE0
ENDCHAR
STARTCHAR  1E22
ENCODING  7714
SWIDTH  1000 0
DWIDTH  24 0
BBX  18 28 3 8
BITMAP
01C000
01C000
01C000
000000
000000
E001C0
E001C0
E001C0
E001C0
E001C0
E001C0
E001C0
E001C0
E001C0
E001C0
FFFFC0
FFFFC0
E001C0
E001C0
E001C0
E001C0
E001C0
E001C0
E001C0
E001C0
E001C0
E001C0
E001C0
ENDCHAR
STARTCHAR  1E23
ENCODING  7715
SWIDTH  1000 0
DWIDTH  18 0
BBX  14 23 2 8
BITMAP
E700
E700
E700
E000
E000
E000
E3E0
EFF0
FC78
F83C
E01C
E01C
E01C
E01C
E01C
E01C
E01C
E01C
E01C
E01C
E01C
E01C
E01C
ENDCHAR
STARTCHAR  1E24
ENCODING  7716
SWIDTH  1000 0
DWIDTH  24 0
BBX  18 29 3 2
BITMAP
E001C0
E001C0
E001C0
E001C0
E001C0
E001C0
E001C0
E001C0
E001C0
E001C0
FFFFC0
FFFFC0
E001C0
E001C0
E001C0
E001C0
E001C0
E001C0
E001C0
E001C0
E001C0
E001C0
E001C0
000000
000000
000000
01C000
01C000
01C000
ENDCHAR
STARTCHAR  1E25
ENCODING  7717
SWIDTH  1000 0
DWIDTH  17 0
BBX  14 29 2 2
BITMAP
E000
E000
E000
E000
E000
E000
E7C0
EFF0
FCF0
F078
E038
E038
E038
E038
E038
E038
E038
E038
E038
E038
E038
E038
E038
0000
0000
0000
0700
0700
0700
ENDCHAR
STARTCHAR  1E26
ENCODING  7718
SWIDTH  1000 0
DWIDTH  24 0
BBX  18 28 3 8
BITMAP
073800
073800
073800
000000
000000
E001C0
E001C0
E001C0
E001C0
E001C0
E001C0
E001C0
E001C0
E001C0
E001C0
FFFFC0
FFFFC0
E001C0
E001C0
E001C0
E001C0
E001C0
E001C0
E001C0
E001C0
E001C0
E001C0
E001C0
ENDCHAR
STARTCHAR  1E27
ENCODING  7719
SWIDTH  1000 0
DWIDTH  18 0
BBX  14 28 2 8
BITMAP
38E0
38E0
38E0
0000
0000
E000
E000
E000
E000
E000
E000
E3E0
EFF0
FC78
F83C
E01C
E01C
E01C
E01C
E01C
E01C
E01C
E01C
E01C
E01C
E01C
E01C
E01C
ENDCHAR
STARTCHAR  1E28
ENCODING  7720
SWIDTH  1000 0
DWIDTH  24 0
BBX  19 29 2 2
BITMAP
7000E0
7000E0
7000E0
7000E0
7000E0
7000E0
7000E0
7000E0
7000E0
7FFFE0
7FFFE0
7000E0
7000E0
7000E0
7000E0
7000E0
7000E0
7000E0
7000E0
7000E0
7000E0
7000E0
7000E0
300000
3C0000
0E0000
1E0000
FE0000
F80000
ENDCHAR
STARTCHAR  1E29
ENCODING  7721
SWIDTH  1000 0
DWIDTH  18 0
BBX  15 29 1 2
BITMAP
7000
7000
7000
7000
7000
7000
71F0
77F8
7E3C
7C1E
700E
700E
700E
700E
700E
700E
700E
700E
700E
700E
700E
700E
700E
3000
3C00
0E00
1E00
FE00
F800
ENDCHAR
STARTCHAR  1E2A
ENCODING  7722
SWIDTH  1000 0
DWIDTH  24 0
BBX  18 29 3 2
BITMAP
E001C0
E001C0
E001C0
E001C0
E001C0
E001C0
E001C0
E001C0
E001C0
E001C0
FFFFC0
FFFFC0
E001C0
E001C0
E001C0
E001C0
E001C0
E001C0
E001C0
E001C0
E001C0
E001C0
E001C0
000000
000000
0E1C00
073800
07F800
01E000
ENDCHAR
STARTCHAR  1E2B
ENCODING  7723
SWIDTH  1000 0
DWIDTH  18 0
BBX  14 29 2 2
BITMAP
E000
E000
E000
E000
E000
E000
E3E0
EFF0
FC78
F83C
E01C
E01C
E01C
E01C
E01C
E01C
E01C
E01C
E01C
E01C
E01C
E01C
E01C
0000
0000
3030
1CE0
1FE0
0780
ENDCHAR
STARTCHAR  1E2C
ENCODING  7724
SWIDTH  1000 0
DWIDTH  9 0
BBX  11 29 -1 2
BITMAP
0E00
0E00
0E00
0E00
0E00
0E00
0E00
0E00
0E00
0E00
0E00
0E00
0E00
0E00
0E00
0E00
0E00
0E00
0E00
0E00
0E00
0E00
0E00
0000
0000
0000
7EE0
7FE0
67C0
ENDCHAR
STARTCHAR  1E2D
ENCODING  7725
SWIDTH  1000 0
DWIDTH  7 0
BBX  11 29 -2 2
BITMAP
0E00
0E00
0E00
0000
0000
0000
0E00
0E00
0E00
0E00
0E00
0E00
0E00
0E00
0E00
0E00
0E00
0E00
0E00
0E00
0E00
0E00
0E00
0000
0000
0000
7CC0
7FC0
6780
ENDCHAR
STARTCHAR  1E2E
ENCODING  7726
SWIDTH  1000 0
DWIDTH  11 0
BBX  9 29 1 8
BITMAP
0E00
0C00
0000
E380
E380
0000
1C00
1C00
1C00
1C00
1C00
1C00
1C00
1C00
1C00
1C00
1C00
1C00
1C00
1C00
1C00
1C00
1C00
1C00
1C00
1C00
1C00
1C00
1C00
ENDCHAR
STARTCHAR  1E2F
ENCODING  7727
SWIDTH  1000 0
DWIDTH  7 0
BBX  9 27 -1 8
BITMAP
0E00
0E00
1C00
0000
E380
E380
E380
0000
0000
0000
1C00
1C00
1C00
1C00
1C00
1C00
1C00
1C00
1C00
1C00
1C00
1C00
1C00
1C00
1C00
1C00
1C00
ENDCHAR
STARTCHAR  1E30
ENCODING  7728
SWIDTH  1000 0
DWIDTH  22 0
BBX  19 29 3 8
BITMAP
00F000
00E000
01C000
018000
000000
000000
E003C0
E00780
E00F00
E01E00
E03C00
E07800
E0F000
E1E000
E3C000
E78000
EF8000
FFC000
FDE000
F8F000
F07000
E07800
E03C00
E01E00
E00E00
E00F00
E00780
E003C0
E003C0
ENDCHAR
STARTCHAR  1E31
ENCODING  7729
SWIDTH  1000 0
DWIDTH  16 0
BBX  14 29 2 8
BITMAP
0F00
0E00
1C00
3800
0000
0000
E000
E000
E000
E000
E000
E000
E078
E0F0
E1E0
E3C0
E780
EF00
FE00
FF00
FF00
F380
E3C0
E1C0
E1E0
E0F0
E070
E078
E038
ENDCHAR
STARTCHAR  1E32
ENCODING  7730
SWIDTH  1000 0
DWIDTH  22 0
BBX  20 29 3 2
BITMAP
E003C0
E00780
E00F00
E01E00
E03C00
E07800
E0F000
E1E000
E3C000
E78000
EFC000
FFE000
FDE000
F8F000
F07800
E03800
E03C00
E01E00
E00F00
E00700
E00780
E003C0
E001E0
000000
000000
000000
01C000
01C000
01C000
ENDCHAR
STARTCHAR  1E33
ENCODING  7731
SWIDTH  1000 0
DWIDTH  16 0
BBX  14 29 2 2
BITMAP
E000
E000
E000
E000
E000
E000
E078
E0F0
E1E0
E3C0
E780
EF00
FE00
FF00
FF00
F380
E3C0
E1C0
E0E0
E0F0
E070
E038
E03C
0000
0000
0000
0700
0700
0700
ENDCHAR
STARTCHAR  1E34
ENCODING  7732
SWIDTH  1000 0
DWIDTH  22 0
BBX  19 29 3 2
BITMAP
E007C0
E00F80
E00E00
E01C00
E03800
E07000
E0E000
E1C000
E38000
E70000
EF8000
FFC000
F9E000
F0E000
F0F000
E07800
E03C00
E03C00
E01E00
E00F00
E00780
E00780
E003C0
000000
000000
000000
1FF800
1FF800
000000
ENDCHAR
STARTCHAR  1E35
ENCODING  7733
SWIDTH  1000 0
DWIDTH  16 0
BBX  14 29 2 2
BITMAP
E000
E000
E000
E000
E000
E000
E070
E0E0
E1C0
E380
E700
EF00
FE00
FE00
FF00
F780
E380
E1C0
E1E0
E0E0
E0F0
E070
E038
0000
0000
0000
7FE0
7FE0
0000
ENDCHAR
STARTCHAR  1E36
ENCODING  7734
SWIDTH  1000 0
DWIDTH  18 0
BBX  14 29 3 2
BITMAP
E000
E000
E000
E000
E000
E000
E000
E000
E000
E000
E000
E000
E000
E000
E000
E000
E000
E000
E000
E000
FFFC
FFFC
FFFC
0000
0000
0000
0380
0380
0380
ENDCHAR
STARTCHAR  1E37
ENCODING  7735
SWIDTH  1000 0
DWIDTH  7 0
BBX  4 29 2 2
BITMAP
E0
E0
E0
E0
E0
E0
E0
E0
E0
E0
E0
E0
E0
E0
E0
E0
E0
E0
E0
E0
E0
E0
E0
00
00
00
E0
E0
E0
ENDCHAR
STARTCHAR  1E38
ENCODING  7736
SWIDTH  1000 0
DWIDTH  18 0
BBX  14 34 3 2
BITMAP
3FF0
3FF0
0000
0000
0000
E000
E000
E000
E000
E000
E000
E000
E000
E000
E000
E000
E000
E000
E000
E000
E000
E000
E000
E000
E000
FFFC
FFFC
FFFC
0000
0000
0000
0380
0380
0380
ENDCHAR
STARTCHAR  1E39
ENCODING  7737
SWIDTH  1000 0
DWIDTH  8 0
BBX  10 34 -1 2
BITMAP
FFC0
FFC0
0000
0000
0000
1C00
1C00
1C00
1C00
1C00
1C00
1C00
1C00
1C00
1C00
1C00
1C00
1C00
1C00
1C00
1C00
1C00
1C00
1C00
1C00
1C00
1C00
1C00
0000
0000
0000
1C00
1C00
1C00
ENDCHAR
STARTCHAR  1E3A
ENCODING  7738
SWIDTH  1000 0
DWIDTH  18 0
BBX  14 29 3 2
BITMAP
E000
E000
E000
E000
E000
E000
E000
E000
E000
E000
E000
E000
E000
E000
E000
E000
E000
E000
E000
E000
FFFC
FFFC
FFFC
0000
0000
0000
3FF0
3FF0
0000
ENDCHAR
STARTCHAR  1E3B
ENCODING  7739
SWIDTH  1000 0
DWIDTH  8 0
BBX  10 29 -1 2
BITMAP
1C00
1C00
1C00
1C00
1C00
1C00
1C00
1C00
1C00
1C00
1C00
1C00
1C00
1C00
1C00
1C00
1C00
1C00
1C00
1C00
1C00
1C00
1C00
0000
0000
0000
FFC0
FFC0
0000
ENDCHAR
STARTCHAR  1E3C
ENCODING  7740
SWIDTH  1000 0
DWIDTH  18 0
BBX  14 29 3 2
BITMAP
E000
E000
E000
E000
E000
E000
E000
E000
E000
E000
E000
E000
E000
E000
E000
E000
E000
E000
E000
E000
FFFC
FFFC
FFFC
0000
0000
0780
0FC0
1CE0
1CF0
ENDCHAR
STARTCHAR  1E3D
ENCODING  7741
SWIDTH  1000 0
DWIDTH  7 0
BBX  11 29 -2 2
BITMAP
0E00
0E00
0E00
0E00
0E00
0E00
0E00
0E00
0E00
0E00
0E00
0E00
0E00
0E00
0E00
0E00
0E00
0E00
0E00
0E00
0E00
0E00
0E00
0000
0000
1F00
1F00
3B80
71C0
ENDCHAR
STARTCHAR  1E3E
ENCODING  7742
SWIDTH  1000 0
DWIDTH  28 0
BBX  22 29 3 8
BITMAP
001E00
001C00
003800
007000
000000
000000
F8007C
F8007C
FC00FC
FC00FC
FC00FC
EE01DC
EE01DC
EE01DC
E6039C
E7039C
E7039C
E3071C
E3871C
E3871C
E1861C
E1CE1C
E1CE1C
E0CC1C
E0FC1C
E0FC1C
E0781C
E0781C
E0781C
ENDCHAR
STARTCHAR  1E3F
ENCODING  7743
SWIDTH  1000 0
DWIDTH  27 0
BBX  23 23 2 8
BITMAP
001E00
001C00
003800
003000
000000
000000
E3C1F0
EFF3FC
FCF73C
F03C1E
E0380E
E0380E
E0380E
E0380E
E0380E
E0380E
E0380E
E0380E
E0380E
E0380E
E0380E
E0380E
E0380E
ENDCHAR
STARTCHAR  1E40
ENCODING  7744
SWIDTH  1000 0
DWIDTH  27 0
BBX  22 28 3 8
BITMAP
007000
007000
007000
000000
000000
F800F8
F800F8
F800F8
FC01F8
FC01F8
EC01B8
EE03B8
EE03B8
E60338
E60738
E70738
E30738
E30638
E38E38
E38E38
E18C38
E1DC38
E1DC38
E0D838
E0F838
E0F838
E07038
E07038
ENDCHAR
STARTCHAR  1E41
ENCODING  7745
SWIDTH  1000 0
DWIDTH  27 0
BBX  23 23 2 8
BITMAP
003800
003800
003800
000000
000000
000000
E3C1F0
EFF3FC
FCF73C
F03C1E
E0380E
E0380E
E0380E
E0380E
E0380E
E0380E
E0380E
E0380E
E0380E
E0380E
E0380E
E0380E
E0380E
ENDCHAR
STARTCHAR  1E42
ENCODING  7746
SWIDTH  1000 0
DWIDTH  27 0
BBX  22 29 3 2
BITMAP
F800F8
F800F8
F800F8
FC01F8
FC01F8
EC01B8
EE03B8
EE03B8
E60338
E70738
E70738
E30738
E30638
E38E38
E38E38
E18C38
E1DC38
E1DC38
E0D838
E0F838
E0F838
E07038
E07038
000000
000000
000000
007000
007000
007000
ENDCHAR
STARTCHAR  1E43
ENCODING  7747
SWIDTH  1000 0
DWIDTH  27 0
BBX  23 23 2 2
BITMAP
E3C1F0
EFF3FC
FCF73C
F03C1E
E0380E
E0380E
E0380E
E0380E
E0380E
E0380E
E0380E
E0380E
E0380E
E0380E
E0380E
E0380E
E0380E
000000
000000
000000
003800
003800
003800
ENDCHAR
STARTCHAR  1E44
ENCODING  7748
SWIDTH  1000 0
DWIDTH  23 0
BBX  17 28 3 8
BITMAP
01C000
01C000
01C000
000000
000000
F00380
F00380
F80380
F80380
FC0380
FC0380
EE0380
E70380
E70380
E38380
E38380
E1C380
E0E380
E0E380
E07380
E07380
E03B80
E01F80
E01F80
E00F80
E00F80
E00780
E00780
ENDCHAR
STARTCHAR  1E45
ENCODING  7749
SWIDTH  1000 0
DWIDTH  17 0
BBX  14 23 2 8
BITMAP
0700
0700
0700
0000
0000
0000
E7C0
EFF0
FCF0
F078
E038
E038
E038
E038
E038
E038
E038
E038
E038
E038
E038
E038
E038
ENDCHAR
STARTCHAR  1E46
ENCODING  7750
SWIDTH  1000 0
DWIDTH  23 0
BBX  17 29 3 2
BITMAP
F00380
F00380
F80380
F80380
FC0380
FC0380
EE0380
E70380
E70380
E38380
E38380
E1C380
E0E380
E0E380
E07380
E07380
E03B80
E01F80
E01F80
E00F80
E00F80
E00780
E00780
000000
000000
000000
01C000
01C000
01C000
ENDCHAR
STARTCHAR  1E47
ENCODING  7751
SWIDTH  1000 0
DWIDTH  17 0
BBX  14 23 2 2
BITMAP
E7C0
EFF0
FCF0
F078
E038
E038
E038
E038
E038
E038
E038
E038
E038
E038
E038
E038
E038
0000
0000
0000
0700
0700
0700
ENDCHAR
STARTCHAR  1E48
ENCODING  7752
SWIDTH  1000 0
DWIDTH  24 0
BBX  19 29 3 2
BITMAP
F001C0
F001C0
F801C0
F801C0
FC01C0
FE01C0
EE01C0
E701C0
E781C0
E381C0
E1C1C0
E1E1C0
E0E1C0
E071C0
E079C0
E039C0
E01DC0
E01FC0
E00FC0
E007C0
E007C0
E003C0
E001C0
000000
000000
000000
0FFC00
0FFC00
000000
ENDCHAR
STARTCHAR  1E49
ENCODING  7753
SWIDTH  1000 0
DWIDTH  18 0
BBX  14 23 2 2
BITMAP
E3E0
EFF0
FC78
F83C
E01C
E01C
E01C
E01C
E01C
E01C
E01C
E01C
E01C
E01C
E01C
E01C
E01C
0000
0000
0000
3FF0
3FF0
0000
ENDCHAR
STARTCHAR  1E4A
ENCODING  7754
SWIDTH  1000 0
DWIDTH  24 0
BBX  19 29 3 2
BITMAP
F001C0
F001C0
F801C0
FC01C0
FC01C0
FE01C0
EE01C0
E701C0
E781C0
E381C0
E1C1C0
E1E1C0
E0E1C0
E071C0
E079C0
E039C0
E01DC0
E01FC0
E00FC0
E007C0
E007C0
E003C0
E003C0
000000
000000
01E000
03F000
073800
073800
ENDCHAR
STARTCHAR  1E4B
ENCODING  7755
SWIDTH  1000 0
DWIDTH  18 0
BBX  14 23 2 2
BITMAP
E3E0
EFF0
FC78
F83C
E01C
E01C
E01C
E01C
E01C
E01C
E01C
E01C
E01C
E01C
E01C
E01C
E01C
0000
0000
0780
0FC0
1CE0
3CF0
ENDCHAR
STARTCHAR  1E4C
ENCODING  7756
SWIDTH  1000 0
DWIDTH  24 0
BBX  22 30 1 8
BITMAP
001C00
003800
000000
01E300
033F00
000000
000000
01FC00
07FF80
0F87C0
1E01E0
3C0070
780078
700038
700038
E0001C
E0001C
E0001C
E0001C
E0001C
E0001C
E0001C
700038
700038
780078
380070
1E01E0
0F87C0
07FF80
01FE00
ENDCHAR
STARTCHAR  1E4D
ENCODING  7757
SWIDTH  1000 0
DWIDTH  18 0
BBX  16 27 1 8
BITMAP
00E0
01C0
0180
0000
0F18
1FF8
19F0
0000
0000
0000
07E0
1FF8
3E7C
781E
700E
E00F
E007
E007
E007
E007
E007
E007
700E
781E
3E7C
1FF8
07E0
ENDCHAR
STARTCHAR  1E4E
ENCODING  7758
SWIDTH  1000 0
DWIDTH  24 0
BBX  22 29 1 8
BITMAP
01CE00
01CE00
01E300
031E00
000000
000000
01FC00
07FF80
0F87C0
1E01E0
3C0070
780078
700038
700038
E0001C
E0001C
E0001C
E0001C
E0001C
E0001C
E0001C
700038
700038
780078
380070
1E01E0
0F87C0
07FF80
01FE00
ENDCHAR
STARTCHAR  1E4F
ENCODING  7759
SWIDTH  1000 0
DWIDTH  18 0
BBX  16 27 1 8
BITMAP
1C70
1C70
1C70
0000
0F18
1FF8
1BF0
0000
0000
0000
07E0
1FF8
3E7C
781E
700E
E00F
E007
E007
E007
E007
E007
E007
700E
781E
3E7C
1FF8
07E0
ENDCHAR
STARTCHAR  1E50
ENCODING  7760
SWIDTH  1000 0
DWIDTH  24 0
BBX  22 30 1 8
BITMAP
000000
007000
003000
000000
03FF00
03FF00
000000
01FC00
07FF80
0F87C0
1E01E0
3C0070
780078
700038
700038
E0001C
E0001C
E0001C
E0001C
E0001C
E0001C
E0001C
700038
700038
780078
380070
1E01E0
0F87C0
07FF80
01FE00
ENDCHAR
STARTCHAR  1E51
ENCODING  7761
SWIDTH  1000 0
DWIDTH  18 0
BBX  16 26 1 8
BITMAP
0700
0380
0180
0000
1FF8
1FF8
0000
0000
0000
07E0
1FF8
3E7C
781E
700E
E00F
E007
E007
E007
E007
E007
E007
700E
781E
3E7C
1FF8
07E0
ENDCHAR
STARTCHAR  1E52
ENCODING  7762
SWIDTH  1000 0
DWIDTH  24 0
BBX  22 30 1 8
BITMAP
000000
003800
003000
000000
03FF00
03FF00
000000
01FC00
07FF80
0F87C0
1E01E0
3C0070
780078
700038
700038
E0001C
E0001C
E0001C
E0001C
E0001C
E0001C
E0001C
700038
700038
780078
380070
1E01E0
0F87C0
07FF80
01FE00
ENDCHAR
STARTCHAR  1E53
ENCODING  7763
SWIDTH  1000 0
DWIDTH  18 0
BBX  16 26 1 8
BITMAP
00E0
01C0
0180
0000
1FF8
1FF8
0000
0000
0000
07E0
1FF8
3E7C
781E
700E
E00F
E007
E007
E007
E007
E007
E007
700E
781E
3E7C
1FF8
07E0
ENDCHAR
STARTCHAR  1E54
ENCODING  7764
SWIDTH  1000 0
DWIDTH  21 0
BBX  18 29 3 8
BITMAP
00E000
01C000
01C000
038000
030000
000000
FFF800
FFFE00
FFFF00
E00700
E00780
E00380
E00380
E00380
E00380
E00700
E00F00
FFFE00
FFF800
E00000
E00000
E00000
E00000
E00000
E00000
E00000
E00000
E00000
E00000
ENDCHAR
STARTCHAR  1E55
ENCODING  7765
SWIDTH  1000 0
DWIDTH  17 0
BBX  15 29 2 2
BITMAP
01C0
01C0
0380
0300
0000
0000
E7C0
EFF0
FCF0
F038
E038
E01C
E01C
E01C
E01C
E01C
E01C
E01C
E038
F038
FCF0
FFE0
E7C0
E000
E000
E000
E000
E000
E000
ENDCHAR
STARTCHAR  1E56
ENCODING  7766
SWIDTH  1000 0
DWIDTH  21 0
BBX  18 28 3 8
BITMAP
038000
038000
038000
000000
000000
FFF800
FFFE00
E01F00
E00700
E00380
E00380
E00380
E00380
E00380
E00700
E00F00
FFFE00
FFF800
E00000
E00000
E00000
E00000
E00000
E00000
E00000
E00000
E00000
E00000
ENDCHAR
STARTCHAR  1E57
ENCODING  7767
SWIDTH  1000 0
DWIDTH  18 0
BBX  15 29 2 2
BITMAP
0380
0380
0380
0000
0000
0000
E3E0
EFF0
FC78
F81C
E01C
E00E
E00E
E00E
E00E
E00E
E00E
E00E
E01C
F03C
FEF8
FFF0
E7C0
E000
E000
E000
E000
E000
E000
ENDCHAR
STARTCHAR  1E58
ENCODING  7768
SWIDTH  1000 0
DWIDTH  23 0
BBX  19 28 3 8
BITMAP
01C000
01C000
01C000
000000
000000
FFFC00
FFFF00
E00F80
E00380
E001C0
E001C0
E001C0
E001C0
E001C0
E00380
E00F80
FFFF00
FFF800
E01E00
E00F00
E00700
E00780
E00380
E00380
E003C0
E001C0
E001C0
E001E0
ENDCHAR
STARTCHAR  1E59
ENCODING  7769
SWIDTH  1000 0
DWIDTH  11 0
BBX  9 23 2 8
BITMAP
3800
3800
3800
0000
0000
0000
E780
EF80
FC80
F000
E000
E000
E000
E000
E000
E000
E000
E000
E000
E000
E000
E000
E000
ENDCHAR
STARTCHAR  1E5A
ENCODING  7770
SWIDTH  1000 0
DWIDTH  22 0
BBX  18 29 3 2
BITMAP
FFF800
FFFE00
E01F00
E00700
E00380
E00380
E00380
E00380
E00380
E00700
E01F00
FFFE00
FFF000
E03C00
E01E00
E00E00
E00700
E00700
E00700
E00780
E00380
E00380
E003C0
000000
000000
000000
01C000
01C000
01C000
ENDCHAR
STARTCHAR  1E5B
ENCODING  7771
SWIDTH  1000 0
DWIDTH  11 0
BBX  9 23 2 2
BITMAP
E780
EF80
FC80
F000
E000
E000
E000
E000
E000
E000
E000
E000
E000
E000
E000
E000
E000
0000
0000
0000
7000
7000
7000
ENDCHAR
STARTCHAR  1E5C
ENCODING  7772
SWIDTH  1000 0
DWIDTH  23 0
BBX  19 34 3 2
BITMAP
1FF800
1FF800
000000
000000
000000
FFFC00
FFFF00
E00F80
E00380
E001C0
E001C0
E001C0
E001C0
E001C0
E00380
E00F80
FFFE00
FFF800
E01E00
E00E00
E00700
E00700
E00380
E00380
E003C0
E001C0
E001C0
E001E0
000000
000000
000000
01C000
01C000
01C000
ENDCHAR
STARTCHAR  1E5D
ENCODING  7773
SWIDTH  1000 0
DWIDTH  11 0
BBX  10 29 2 2
BITMAP
0000
FFC0
FFC0
0000
0000
0000
7380
7780
7E00
7800
7000
7000
7000
7000
7000
7000
7000
7000
7000
7000
7000
7000
7000
0000
0000
0000
3800
3800
3800
ENDCHAR
STARTCHAR  1E5E
ENCODING  7774
SWIDTH  1000 0
DWIDTH  23 0
BBX  19 29 3 2
BITMAP
FFFC00
FFFF00
E00F80
E00380
E001C0
E001C0
E001C0
E001C0
E001C0
E00380
E00F80
FFFF00
FFF800
E01E00
E00F00
E00700
E00780
E00380
E00380
E003C0
E001C0
E001C0
E001E0
000000
000000
000000
0FFC00
0FFC00
000000
ENDCHAR
STARTCHAR  1E5F
ENCODING  7775
SWIDTH  1000 0
DWIDTH  12 0
BBX  11 23 1 2
BITMAP
39E0
3BE0
3F20
3C00
3800
3800
3800
3800
3800
3800
3800
3800
3800
3800
3800
3800
3800
0000
0000
0000
FFC0
FFC0
0000
ENDCHAR
STARTCHAR  1E60
ENCODING  7776
SWIDTH  1000 0
DWIDTH  21 0
BBX  18 29 1 8
BITMAP
00E000
00E000
00E000
000000
000000
000000
03F800
0FFE00
3E1F00
380780
700380
700380
700180
780000
7C0000
3FC000
1FFC00
07FF00
00FF80
000F80
0003C0
0001C0
6001C0
7001C0
7001C0
380380
3F1F00
0FFE00
03F800
ENDCHAR
STARTCHAR  1E61
ENCODING  7777
SWIDTH  1000 0
DWIDTH  16 0
BBX  14 23 1 8
BITMAP
0700
0700
0700
0000
0000
0000
1FC0
7FF0
78F8
E038
E038
E000
FC00
7FC0
1FF0
03F8
003C
001C
E01C
F03C
7878
3FF0
1FC0
ENDCHAR
STARTCHAR  1E62
ENCODING  7778
SWIDTH  1000 0
DWIDTH  21 0
BBX  18 29 1 2
BITMAP
03F800
0FFE00
3E1F00
380780
700380
700380
700380
780000
7C0000
3FC000
1FFC00
07FF00
00FF80
000F80
0003C0
0001C0
6001C0
7001C0
7001C0
380380
3F1F00
0FFE00
03F800
000000
000000
000000
00E000
00E000
00E000
ENDCHAR
STARTCHAR  1E63
ENCODING  7779
SWIDTH  1000 0
DWIDTH  16 0
BBX  14 23 1 2
BITMAP
1FC0
7FF0
78F8
E038
E038
E000
FC00
7FC0
1FF0
03F8
003C
001C
E01C
F03C
7878
3FF0
1FC0
0000
0000
0000
0700
0700
0700
ENDCHAR
STARTCHAR  1E64
ENCODING  7780
SWIDTH  1000 0
DWIDTH  21 0
BBX  18 29 1 8
BITMAP
01C000
01C000
007000
00E000
000000
000000
03F800
0FFE00
3E1F00
380780
700380
700380
700380
780000
7C0000
3FC000
1FFC00
07FF00
00FF80
000F80
0003C0
0001C0
6001C0
7001C0
7001C0
380380
3F1F00
0FFE00
03F800
ENDCHAR
STARTCHAR  1E65
ENCODING  7781
SWIDTH  1000 0
DWIDTH  16 0
BBX  14 28 1 8
BITMAP
0700
0700
0700
0000
0000
01C0
0380
0700
0700
0000
0000
1FC0
7FF0
78F8
E038
E038
E000
FC00
7FC0
1FF0
03F8
003C
001C
E01C
F03C
7878
3FF0
1FC0
ENDCHAR
STARTCHAR  1E66
ENCODING  7782
SWIDTH  1000 0
DWIDTH  21 0
BBX  18 29 1 8
BITMAP
00E000
00E000
000000
071800
01F000
000000
03F800
0FFE00
3E1F00
380780
700380
700380
700180
780000
7C0000
3FC000
1FFC00
07FF00
00FF80
000F80
0003C0
0001C0
6001C0
7001C0
7001C0
380380
3F1F00
0FFE00
03F800
ENDCHAR
STARTCHAR  1E67
ENCODING  7783
SWIDTH  1000 0
DWIDTH  16 0
BBX  14 28 1 8
BITMAP
0700
0700
0700
0000
0000
38E0
1DC0
0F80
0F80
0000
0000
1FC0
7FF0
78F8
E038
E038
E000
FC00
7FC0
1FF0
03F8
003C
001C
E01C
F03C
7878
3FF0
1FC0
ENDCHAR
STARTCHAR  1E68
ENCODING  7784
SWIDTH  1000 0
DWIDTH  21 0
BBX  18 34 1 2
BITMAP
00E000
00E000
00E000
000000
000000
03F800
0FFE00
3E1F00
380780
700380
700380
700380
780000
7C0000
3FC000
1FFC00
07FF00
00FF80
000F80
0003C0
0001C0
6001C0
7001C0
7001C0
380380
3F1F00
0FFE00
03F800
000000
000000
000000
00E000
00E000
00E000
ENDCHAR
STARTCHAR  1E69
ENCODING  7785
SWIDTH  1000 0
DWIDTH  16 0
BBX  14 29 1 2
BITMAP
0700
0700
0700
0000
0000
0000
1FC0
7FF0
78F8
E038
E038
E000
FC00
7FC0
1FF0
03F8
003C
001C
E01C
F03C
7878
3FF0
1FC0
0000
0000
0000
0700
0700
0700
ENDCHAR
STARTCHAR  1E6A
ENCODING  7786
SWIDTH  1000 0
DWIDTH  20 0
BBX  18 28 1 8
BITMAP
00E000
00E000
00E000
000000
000000
FFFFC0
FFFFC0
00E000
00E000
00E000
00E000
00E000
00E000
00E000
00E000
00E000
00E000
00E000
00E000
00E000
00E000
00E000
00E000
00E000
00E000
00E000
00E000
00E000
ENDCHAR
STARTCHAR  1E6B
ENCODING  7787
SWIDTH  1000 0
DWIDTH  10 0
BBX  8 26 1 8
BITMAP
38
38
38
00
00
38
38
38
38
FF
FF
38
38
38
38
38
38
38
38
38
38
38
38
3C
1F
0F
ENDCHAR
STARTCHAR  1E6C
ENCODING  7788
SWIDTH  1000 0
DWIDTH  20 0
BBX  18 29 1 2
BITMAP
FFFFC0
FFFFC0
00E000
00E000
00E000
00E000
00E000
00E000
00E000
00E000
00E000
00E000
00E000
00E000
00E000
00E000
00E000
00E000
00E000
00E000
00E000
00E000
00E000
000000
000000
000000
00E000
00E000
00E000
ENDCHAR
STARTCHAR  1E6D
ENCODING  7789
SWIDTH  1000 0
DWIDTH  10 0
BBX  8 27 1 2
BITMAP
38
38
38
38
FF
FF
38
38
38
38
38
38
38
38
38
38
38
38
3C
1F
1F
00
00
00
0E
0E
0E
ENDCHAR
STARTCHAR  1E6E
ENCODING  7790
SWIDTH  1000 0
DWIDTH  20 0
BBX  18 29 1 2
BITMAP
FFFFC0
FFFFC0
00E000
00E000
00E000
00E000
00E000
00E000
00E000
00E000
00E000
00E000
00E000
00E000
00E000
00E000
00E000
00E000
00E000
00E000
00E000
00E000
00E000
000000
000000
000000
0FFC00
0FFC00
000000
ENDCHAR
STARTCHAR  1E6F
ENCODING  7791
SWIDTH  1000 0
DWIDTH  10 0
BBX  10 26 0 3
BITMAP
1C00
1C00
1C00
1C00
7F80
7F80
1C00
1C00
1C00
1C00
1C00
1C00
1C00
1C00
1C00
1C00
1C00
1C00
1E00
1F80
0780
0000
0000
0000
FFC0
FFC0
ENDCHAR
STARTCHAR  1E70
ENCODING  7792
SWIDTH  1000 0
DWIDTH  20 0
BBX  18 29 1 2
BITMAP
FFFFC0
FFFFC0
00E000
00E000
00E000
00E000
00E000
00E000
00E000
00E000
00E000
00E000
00E000
00E000
00E000
00E000
00E000
00E000
00E000
00E000
00E000
00E000
00E000
000000
000000
01E000
01F000
03B800
071C00
ENDCHAR
STARTCHAR  1E71
ENCODING  7793
SWIDTH  1000 0
DWIDTH  10 0
BBX  11 27 0 2
BITMAP
1C00
1C00
1C00
1C00
7F80
7F80
1C00
1C00
1C00
1C00
1C00
1C00
1C00
1C00
1C00
1C00
1C00
1C00
1E00
0F80
0F80
0000
0000
0F00
1F80
39C0
71C0
ENDCHAR
STARTCHAR  1E72
ENCODING  7794
SWIDTH  1000 0
DWIDTH  24 0
BBX  18 29 3 2
BITMAP
E001C0
E001C0
E001C0
E001C0
E001C0
E001C0
E001C0
E001C0
E001C0
E001C0
E001C0
E001C0
E001C0
E001C0
E001C0
E001C0
E001C0
F003C0
700380
780780
3F3F00
1FFE00
07F800
000000
000000
000000
073800
073800
073800
ENDCHAR
STARTCHAR  1E73
ENCODING  7795
SWIDTH  1000 0
DWIDTH  18 0
BBX  14 23 2 2
BITMAP
E01C
E01C
E01C
E01C
E01C
E01C
E01C
E01C
E01C
E01C
E01C
E01C
E03C
F07C
7DFC
7FDC
1F1C
0000
0000
0000
38E0
38E0
38E0
ENDCHAR
STARTCHAR  1E74
ENCODING  7796
SWIDTH  1000 0
DWIDTH  24 0
BBX  18 29 3 2
BITMAP
E001C0
E001C0
E001C0
E001C0
E001C0
E001C0
E001C0
E001C0
E001C0
E001C0
E001C0
E001C0
E001C0
E001C0
E001C0
E001C0
E001C0
F003C0
700380
780780
3F3F00
1FFE00
07F800
000000
000000
000000
07CC00
0FFC00
0C7800
ENDCHAR
STARTCHAR  1E75
ENCODING  7797
SWIDTH  1000 0
DWIDTH  18 0
BBX  14 23 2 2
BITMAP
E01C
E01C
E01C
E01C
E01C
E01C
E01C
E01C
E01C
E01C
E01C
E01C
E03C
F07C
7DFC
7FDC
1F1C
0000
0000
0000
1F30
3FF0
31E0
ENDCHAR
STARTCHAR  1E76
ENCODING  7798
SWIDTH  1000 0
DWIDTH  24 0
BBX  18 29 3 2
BITMAP
E001C0
E001C0
E001C0
E001C0
E001C0
E001C0
E001C0
E001C0
E001C0
E001C0
E001C0
E001C0
E001C0
E001C0
E001C0
E001C0
E001C0
F003C0
700380
780780
3F3F00
1FFE00
07F800
000000
000000
01E000
03F000
073800
0F3C00
ENDCHAR
STARTCHAR  1E77
ENCODING  7799
SWIDTH  1000 0
DWIDTH  18 0
BBX  14 23 2 2
BITMAP
E01C
E01C
E01C
E01C
E01C
E01C
E01C
E01C
E01C
E01C
E01C
E01C
E03C
F07C
7DFC
7FDC
1F1C
0000
0000
0780
0FC0
1CE0
3CF0
ENDCHAR
STARTCHAR  1E78
ENCODING  7800
SWIDTH  1000 0
DWIDTH  24 0
BBX  18 30 3 8
BITMAP
007000
00E000
000000
078C00
0CFC00
000000
000000
E001C0
E001C0
E001C0
E001C0
E001C0
E001C0
E001C0
E001C0
E001C0
E001C0
E001C0
E001C0
E001C0
E001C0
E001C0
E001C0
E001C0
F003C0
700380
780780
3F3F00
1FFE00
07F800
ENDCHAR
STARTCHAR  1E79
ENCODING  7801
SWIDTH  1000 0
DWIDTH  18 0
BBX  14 27 2 8
BITMAP
01C0
0380
0300
0000
1E30
3FF0
33E0
0000
0000
0000
E01C
E01C
E01C
E01C
E01C
E01C
E01C
E01C
E01C
E01C
E01C
E01C
E03C
F07C
7DFC
7FDC
1F1C
ENDCHAR
STARTCHAR  1E7A
ENCODING  7802
SWIDTH  1000 0
DWIDTH  24 0
BBX  18 29 3 8
BITMAP
073800
073800
000000
0FFC00
0FFC00
000000
E001C0
E001C0
E001C0
E001C0
E001C0
E001C0
E001C0
E001C0
E001C0
E001C0
E001C0
E001C0
E001C0
E001C0
E001C0
E001C0
E001C0
F003C0
700380
780780
3F3F00
1FFE00
07F800
ENDCHAR
STARTCHAR  1E7B
ENCODING  7803
SWIDTH  1000 0
DWIDTH  18 0
BBX  14 27 2 8
BITMAP
38E0
38E0
38E0
0000
0000
3FF0
3FF0
0000
0000
0000
E01C
E01C
E01C
E01C
E01C
E01C
E01C
E01C
E01C
E01C
E01C
E01C
E03C
F07C
7DFC
7FDC
1F1C
ENDCHAR
STARTCHAR  1E7C
ENCODING  7804
SWIDTH  1000 0
DWIDTH  21 0
BBX  22 29 -1 8
BITMAP
000000
01F300
03FF00
031E00
000000
000000
70003C
780038
380038
380070
1C0070
1C00F0
1C00E0
0E00E0
0E01C0
0E01C0
0701C0
070380
038380
038380
038700
01C700
01CE00
00CE00
00EE00
00FC00
007C00
007800
007800
ENDCHAR
STARTCHAR  1E7D
ENCODING  7805
SWIDTH  1000 0
DWIDTH  16 0
BBX  16 23 0 8
BITMAP
0F18
1FF8
1DF0
0000
0000
0000
700F
700E
380E
381E
381C
1C1C
1C38
1C38
0E38
0E70
0670
0770
07E0
03E0
03E0
03C0
01C0
ENDCHAR
STARTCHAR  1E7E
ENCODING  7806
SWIDTH  1000 0
DWIDTH  21 0
BBX  23 29 -1 2
BITMAP
70001C
38003C
380038
3C0038
1C0070
1C0070
1E00F0
0E00E0
0E00E0
0701C0
0701C0
0701C0
038380
038380
01C700
01C700
01C700
00EE00
00EE00
006E00
007C00
007C00
003800
000000
000000
000000
003800
003800
003800
ENDCHAR
STARTCHAR  1E7F
ENCODING  7807
SWIDTH  1000 0
DWIDTH  17 0
BBX  17 23 0 2
BITMAP
700700
780F00
380E00
380E00
1C1E00
1C1C00
1C1C00
0E3800
0E3800
0E3800
077000
077000
077000
03E000
03E000
01C000
01C000
000000
000000
000000
01C000
01C000
01C000
ENDCHAR
STARTCHAR  1E80
ENCODING  7808
SWIDTH  1000 0
DWIDTH  30 0
BBX  30 29 0 8
BITMAP
001C0000
000E0000
00060000
00030000
00000000
00000000
7007801C
7007803C
7007C038
700FC038
380EC038
380CC070
380CE070
381CE070
1C1C6070
1C1870E0
1C3870E0
0C3870E0
0E3830C0
0E3039C0
0E7039C0
067019C0
07601980
07E01F80
07E01F80
03E00F80
03C00F00
03C00F00
01C00F00
ENDCHAR
STARTCHAR  1E81
ENCODING  7809
SWIDTH  1000 0
DWIDTH  23 0
BBX  23 23 0 8
BITMAP
00F000
007000
003800
001800
000000
000000
F0380E
70381E
707C1C
707C1C
707C1C
386C38
38EE38
38EE38
18C630
1DC770
1DC770
0DC370
0D83E0
0F83E0
0F83E0
0701C0
0701C0
ENDCHAR
STARTCHAR  1E82
ENCODING  7810
SWIDTH  1000 0
DWIDTH  30 0
BBX  30 29 0 8
BITMAP
0000E000
0001E000
0001C000
00038000
00000000
00000000
7007801C
7007803C
7007C038
700FC038
380EC038
380CC070
380CE070
381CE070
1C1C6070
1C1870E0
1C3870E0
0C3870E0
0E3830C0
0E3039C0
0E7039C0
067019C0
07601980
07E01F80
07E01F80
03E00F80
03C00F00
03C00F00
01C00F00
ENDCHAR
STARTCHAR  1E83
ENCODING  7811
SWIDTH  1000 0
DWIDTH  23 0
BBX  23 23 0 8
BITMAP
000E00
001C00
001800
003800
000000
000000
F0380E
70381E
707C1C
707C1C
707C1C
386C38
38EE38
38EE38
18C630
1DC770
1DC770
0DC370
0D83E0
0F83E0
0F83E0
0701C0
0701C0
ENDCHAR
STARTCHAR  1E84
ENCODING  7812
SWIDTH  1000 0
DWIDTH  31 0
BBX  31 28 0 8
BITMAP
001C7000
001C7000
001C7000
00000000
00000000
7007801C
7007C01C
7007C01C
3806C038
380EE038
380EE038
380EE038
1C1C6070
1C1C7070
1C1C7070
1C183070
0E3838E0
0E3838E0
0E3838E0
063018C0
07701DC0
07701DC0
07600DC0
03E00F80
03E00F80
03E00F80
03C00780
01C00700
ENDCHAR
STARTCHAR  1E85
ENCODING  7813
SWIDTH  1000 0
DWIDTH  23 0
BBX  25 23 -1 8
BITMAP
00E38000
00E38000
00E38000
00000000
00000000
00000000
701C0700
781C0F00
383E0E00
383E0E00
383E0E00
18761C00
1C771C00
1C771C00
1C631C00
0CE39800
0EE3B800
0EC1B800
07C1F000
07C1F000
07C1F000
0780E000
0380E000
ENDCHAR
STARTCHAR  1E86
ENCODING  7814
SWIDTH  1000 0
DWIDTH  31 0
BBX  31 28 0 8
BITMAP
00038000
00038000
00038000
00000000
00000000
7007C01C
7007C01C
7007C01C
3806C038
380EE038
380EE038
380EE038
1C0C6070
1C1C7070
1C1C7070
0C183060
0E3838E0
0E3838E0
0E3838E0
063018C0
07701DC0
07701DC0
07600DC0
03600D80
03E00F80
03E00F80
01C00700
01C00700
ENDCHAR
STARTCHAR  1E87
ENCODING  7815
SWIDTH  1000 0
DWIDTH  23 0
BBX  23 23 0 8
BITMAP
003800
003800
003800
000000
000000
000000
E0380E
F0381E
707C1C
707C1C
707C1C
38EC38
38EE38
38EE38
18C630
1DC770
1DC770
1D8370
0F83E0
0F83E0
0F83E0
0701C0
0701C0
ENDCHAR
STARTCHAR  1E88
ENCODING  7816
SWIDTH  1000 0
DWIDTH  31 0
BBX  31 29 0 2
BITMAP
7007C01C
7007C01C
7007C01C
3806C038
380EE038
380EE038
380E6038
1C0C6070
1C1C7070
1C1C7070
0C183060
0E3838E0
0E3838E0
0E3838E0
063018C0
07701DC0
07701DC0
03600DC0
03600F80
03E00F80
03E00F80
01C00700
01C00700
00000000
00000000
00000000
00038000
00038000
00038000
ENDCHAR
STARTCHAR  1E89
ENCODING  7817
SWIDTH  1000 0
DWIDTH  23 0
BBX  23 23 0 2
BITMAP
E0380E
F0381E
707C1C
707C1C
707C1C
38EC38
38EE38
38EE38
18C630
1DC770
1DC770
1D8370
0F83E0
0F83E0
0F83E0
0701C0
0701C0
000000
000000
000000
003800
003800
003800
ENDCHAR
STARTCHAR  1E8A
ENCODING  7818
SWIDTH  1000 0
DWIDTH  21 0
BBX  23 28 -1 8
BITMAP
003800
003800
003800
000000
000000
3C0078
1E00F0
0E00E0
0F01E0
0783C0
038380
01C780
01EF00
00FE00
007C00
007C00
007C00
007C00
00EE00
01EF00
03C780
038380
0781C0
0F01E0
1E00F0
1C0070
3C0078
78003C
ENDCHAR
STARTCHAR  1E8B
ENCODING  7819
SWIDTH  1000 0
DWIDTH  17 0
BBX  17 23 0 8
BITMAP
01C000
01C000
01C000
000000
000000
000000
780F00
3C1E00
1C1C00
0E3800
0F7800
077000
03E000
03E000
01C000
03E000
077000
0F7800
0E3800
1E1C00
3C1E00
380E00
780F00
ENDCHAR
STARTCHAR  1E8C
ENCODING  7820
SWIDTH  1000 0
DWIDTH  21 0
BBX  23 28 -1 8
BITMAP
01C700
01C700
01C700
000000
000000
3C0078
1C00F0
0E00E0
0F01E0
0783C0
038380
03C700
01EF00
00FE00
007C00
007C00
007C00
007C00
00EE00
01EF00
03C780
038380
0701C0
0F01E0
1E00F0
1C0070
3C0078
78003C
ENDCHAR
STARTCHAR  1E8D
ENCODING  7821
SWIDTH  1000 0
DWIDTH  17 0
BBX  17 23 0 8
BITMAP
0E3800
0E3800
0E3800
000000
000000
000000
780F00
3C1E00
1C1C00
0E3800
0F7800
077000
03E000
03E000
01C000
03E000
077000
0F7800
0E3800
1C1C00
3C1E00
380E00
780F00
ENDCHAR
STARTCHAR  1E8E
ENCODING  7822
SWIDTH  1000 0
DWIDTH  21 0
BBX  22 28 0 8
BITMAP
007000
007000
007000
000000
000000
F00078
7800F0
3800E0
3C01E0
1E03C0
0E0380
0F0780
078F00
038E00
03DE00
01DC00
00F800
00F800
007000
007000
007000
007000
007000
007000
007000
007000
007000
007000
ENDCHAR
STARTCHAR  1E8F
ENCODING  7823
SWIDTH  1000 0
DWIDTH  17 0
BBX  17 29 0 2
BITMAP
01C000
01C000
01C000
000000
000000
000000
700700
700F00
380E00
380E00
3C1C00
1C1C00
1C1C00
0E3800
0E3800
0E3000
077000
077000
036000
03E000
03E000
01C000
01C000
018000
038000
070000
3F0000
3E0000
3C0000
ENDCHAR
STARTCHAR  1E90
ENCODING  7824
SWIDTH  1000 0
DWIDTH  20 0
BBX  18 29 1 8
BITMAP
00F000
01F800
01F800
039C00
070E00
000000
3FFFC0
3FFFC0
0003C0
000380
000700
000F00
001E00
003C00
003800
007800
00F000
01E000
03C000
03C000
078000
0F0000
1E0000
3E0000
3C0000
780000
F00000
FFFFC0
FFFFC0
ENDCHAR
STARTCHAR  1E91
ENCODING  7825
SWIDTH  1000 0
DWIDTH  17 0
BBX  15 23 1 8
BITMAP
0780
0FC0
1CE0
3C70
0000
0000
FFFC
FFFC
003C
0078
00F0
01E0
01C0
03C0
0780
0F00
1E00
1C00
3800
7000
F000
FFFE
FFFE
ENDCHAR
STARTCHAR  1E92
ENCODING  7826
SWIDTH  1000 0
DWIDTH  20 0
BBX  18 29 1 2
BITMAP
3FFFC0
3FFFC0
0003C0
000380
000700
000F00
001E00
003C00
003800
007800
00F000
01E000
03C000
03C000
078000
0F0000
1E0000
3E0000
3C0000
780000
F00000
FFFFC0
FFFFC0
000000
000000
000000
00E000
00E000
00E000
ENDCHAR
STARTCHAR  1E93
ENCODING  7827
SWIDTH  1000 0
DWIDTH  17 0
BBX  15 23 1 2
BITMAP
FFFC
FFFC
003C
0078
0070
00E0
01E0
03C0
0780
0F00
0E00
1C00
3C00
7800
F000
FFFE
FFFE
0000
0000
0000
0380
0380
0380
ENDCHAR
STARTCHAR  1E94
ENCODING  7828
SWIDTH  1000 0
DWIDTH  20 0
BBX  18 29 1 2
BITMAP
3FFFC0
3FFFC0
0003C0
000780
000700
000F00
001E00
003C00
007800
007000
00F000
01E000
03C000
038000
070000
0F0000
1E0000
3C0000
380000
700000
F00000
FFFFC0
FFFFC0
000000
000000
000000
0FFC00
0FFC00
000000
ENDCHAR
STARTCHAR  1E95
ENCODING  7829
SWIDTH  1000 0
DWIDTH  17 0
BBX  15 23 1 2
BITMAP
FFFC
FFFC
003C
0078
00F0
01E0
01C0
03C0
0780
0F00
1E00
1C00
3800
7000
F000
FFFE
FFFE
0000
0000
0000
3FF0
3FF0
0000
ENDCHAR
STARTCHAR  1E96
ENCODING  7830
SWIDTH  1000 0
DWIDTH  18 0
BBX  14 29 2 2
BITMAP
E000
E000
E000
E000
E000
E000
E3E0
EFF0
FC78
F83C
E01C
E01C
E01C
E01C
E01C
E01C
E01C
E01C
E01C
E01C
E01C
E01C
E01C
0000
0000
0000
3FF0
3FF0
0000
ENDCHAR
STARTCHAR  1E97
ENCODING  7831
SWIDTH  1000 0
DWIDTH  11 0
BBX  9 26 1 8
BITMAP
E380
E380
E380
0000
0000
3800
3800
3800
3800
FF00
FF00
3800
3800
3800
3800
3800
3800
3800
3800
3800
3800
3800
3800
3C00
1F80
0F80
ENDCHAR
STARTCHAR  1E98
ENCODING  7832
SWIDTH  1000 0
DWIDTH  24 0
BBX  24 24 0 8
BITMAP
003C00
006600
004200
004200
006600
003C00
000000
703C0E
703C0E
703C0E
787E1E
387E1C
387E1C
38661C
18E718
1CE738
1CC738
0DC3B8
0DC3B0
0FC3F0
0F81F0
0781E0
0781E0
0700E0
ENDCHAR
STARTCHAR  1E99
ENCODING  7833
SWIDTH  1000 0
DWIDTH  16 0
BBX  16 31 0 2
BITMAP
03C0
0660
0420
0420
0660
03C0
0000
0000
F00F
700E
700E
381C
381C
381C
1C38
1C38
1C30
0E70
0E70
07E0
07E0
07C0
03C0
03C0
0380
0380
0700
0700
7E00
7E00
7C00
ENDCHAR
STARTCHAR  1E9A
ENCODING  7834
SWIDTH  1000 0
DWIDTH  17 0
BBX  15 24 1 8
BITMAP
0100
0080
0080
0080
0100
0000
0000
0FE0
3FF8
7C78
701C
701C
001C
07FC
3FFC
7E1C
701C
E01C
E01C
E01C
E03C
78FC
7FDC
1F9C
ENDCHAR
STARTCHAR  1E9B
ENCODING  7835
SWIDTH  1000 0
DWIDTH  8 0
BBX  7 28 2 8
BITMAP
1C
1C
1C
00
00
3E
7E
F0
E0
E0
E0
E0
E0
E0
E0
E0
E0
E0
E0
E0
E0
E0
E0
E0
E0
E0
E0
E0
ENDCHAR
STARTCHAR  1EA0
ENCODING  7840
SWIDTH  1000 0
DWIDTH  21 0
BBX  23 29 -1 2
BITMAP
007800
007C00
007C00
00FC00
00EE00
01CE00
01C700
01C700
038700
038380
030380
0701C0
0701C0
0E01C0
0FFFE0
0FFFE0
1C00F0
1C0070
3C0070
380038
380038
78003C
70001C
000000
000000
000000
003800
003800
003800
ENDCHAR
STARTCHAR  1EA1
ENCODING  7841
SWIDTH  1000 0
DWIDTH  17 0
BBX  15 23 1 2
BITMAP
0FE0
3FF8
3C78
701C
701C
001C
001C
0FFC
3FFC
781C
F01C
E01C
E01C
E03C
78FC
7FDC
1F9C
0000
0000
0000
0380
0380
0380
ENDCHAR
STARTCHAR  1EA2
ENCODING  7842
SWIDTH  1000 0
DWIDTH  21 0
BBX  22 29 0 8
BITMAP
00F000
009800
001800
007000
006000
000000
007000
00F800
00F800
01DC00
01DC00
01DC00
038E00
038E00
030700
070700
070700
0E0380
0E0380
0E03C0
1FFFC0
1FFFC0
3C00E0
3800E0
3800F0
780070
700070
700078
E00038
ENDCHAR
STARTCHAR  1EA3
ENCODING  7843
SWIDTH  1000 0
DWIDTH  17 0
BBX  15 23 1 8
BITMAP
0380
00C0
01C0
0100
0000
0000
0FE0
3FF8
7C78
701C
701C
001C
07FC
3FFC
7E1C
701C
E01C
E01C
E01C
E03C
78FC
7FDC
1F9C
ENDCHAR
STARTCHAR  1EA4
ENCODING  7844
SWIDTH  1000 0
DWIDTH  21 0
BBX  23 29 -1 8
BITMAP
000000
007C70
00ECE0
01CE00
03C700
000000
003800
007C00
007C00
00EC00
00EE00
00CE00
01C700
01C700
038700
038380
038380
0701C0
0701C0
0701E0
0FFFE0
0FFFE0
1E00F0
1C0070
1C0078
380038
380038
38003C
70001C
ENDCHAR
STARTCHAR  1EA5
ENCODING  7845
SWIDTH  1000 0
DWIDTH  17 0
BBX  17 23 1 8
BITMAP
038700
07CE00
0EE000
1C7000
000000
000000
0FE000
3FF800
7C7800
701C00
701C00
001C00
07FC00
3FFC00
7E1C00
701C00
E01C00
E01C00
E01C00
E03C00
78FC00
7FDC00
1F9C00
ENDCHAR
STARTCHAR  1EA6
ENCODING  7846
SWIDTH  1000 0
DWIDTH  21 0
BBX  23 29 -1 8
BITMAP
000000
1C7C00
0CEC00
01CE00
03C700
000000
003800
007C00
007C00
00EC00
00EE00
00CE00
01C700
01C700
038700
038380
038380
0701C0
0701C0
0701E0
0FFFE0
0FFFE0
1E00F0
1C0070
1C0078
380038
380038
38003C
70001C
ENDCHAR
STARTCHAR  1EA7
ENCODING  7847
SWIDTH  1000 0
DWIDTH  17 0
BBX  17 23 -1 8
BITMAP
70E000
39F000
03B800
071C00
000000
000000
03F800
0FFE00
1F1E00
1C0700
1C0700
000700
01FF00
0FFF00
1F8700
1C0700
380700
380700
380700
380F00
1E3F00
1FF700
07E700
ENDCHAR
STARTCHAR  1EA8
ENCODING  7848
SWIDTH  1000 0
DWIDTH  22 0
BBX  22 29 0 8
BITMAP
0079E0
00F930
01DC30
01CEE0
038EC0
000000
007800
007800
00F800
00FC00
01DC00
01CE00
01CE00
038700
038700
030700
070380
070380
0E03C0
0E01C0
0FFFC0
1FFFE0
1C00E0
3C00F0
380070
380070
780078
700038
70003C
ENDCHAR
STARTCHAR  1EA9
ENCODING  7849
SWIDTH  1000 0
DWIDTH  18 0
BBX  16 26 1 8
BITMAP
001E
0003
0003
038E
06CC
0EE0
1C70
0000
0000
0FE0
3FF8
7C78
701C
701C
001C
07FC
3FFC
7E1C
701C
E01C
E01C
E01C
E03C
78FC
7FDC
1F9C
ENDCHAR
STARTCHAR  1EAA
ENCODING  7850
SWIDTH  1000 0
DWIDTH  21 0
BBX  23 29 -1 8
BITMAP
01F300
033F00
000000
007C00
01C700
000000
007800
007C00
007C00
00EC00
00EE00
00CE00
01C700
01C700
038700
038380
038380
0701C0
0701C0
0E01C0
0FFFE0
0FFFE0
1C00F0
1C0070
1C0070
380038
380038
78003C
70001C
ENDCHAR
STARTCHAR  1EAB
ENCODING  7851
SWIDTH  1000 0
DWIDTH  17 0
BBX  15 28 1 8
BITMAP
0F30
1FF0
19F0
0000
0000
0380
07C0
0EE0
1E70
0000
0000
0FE0
3FF8
7C78
701C
701C
001C
07FC
3FFC
7E1C
701C
E01C
E01C
E01C
E03C
78FC
7FDC
1F9C
ENDCHAR
STARTCHAR  1EAC
ENCODING  7852
SWIDTH  1000 0
DWIDTH  21 0
BBX  23 35 -1 2
BITMAP
007800
00FC00
00EE00
01CE00
038700
000000
007800
007C00
007C00
00FC00
00EE00
01CE00
01C700
01C700
038700
038380
030380
0701C0
0701C0
0E01C0
0FFFE0
0FFFE0
1C00F0
1C0070
3C0070
380038
380038
78003C
70001C
000000
000000
000000
003800
003800
003800
ENDCHAR
STARTCHAR  1EAD
ENCODING  7853
SWIDTH  1000 0
DWIDTH  17 0
BBX  15 29 1 2
BITMAP
03C0
07C0
0E60
1E70
0000
0000
0FE0
3FF8
3C78
701C
701C
001C
001C
0FFC
3FFC
781C
F01C
E01C
E01C
E03C
78FC
7FDC
1F9C
0000
0000
0000
0380
0380
0380
ENDCHAR
STARTCHAR  1EAE
ENCODING  7854
SWIDTH  1000 0
DWIDTH  21 0
BBX  23 29 -1 8
BITMAP
001C00
003800
018300
01FE00
007C00
000000
003800
007C00
007C00
00EC00
00EE00
00CE00
01C700
01C700
038700
038380
038380
0701C0
0701C0
0701E0
0FFFE0
0FFFE0
1E00F0
1C0070
1C0078
380038
380038
38003C
70001C
ENDCHAR
STARTCHAR  1EAF
ENCODING  7855
SWIDTH  1000 0
DWIDTH  17 0
BBX  15 27 1 8
BITMAP
01C0
0180
0180
0000
1830
1EF0
0FE0
07C0
0000
0000
0FE0
3FF8
7C78
701C
701C
001C
07FC
3FFC
7E1C
701C
E01C
E01C
E01C
E03C
78FC
7FDC
1F9C
ENDCHAR
STARTCHAR  1EB0
ENCODING  7856
SWIDTH  1000 0
DWIDTH  21 0
BBX  23 29 -1 8
BITMAP
007000
003000
018300
01FE00
007C00
000000
003800
007C00
007C00
00EC00
00EE00
00CE00
01C700
01C700
038700
038380
038380
0701C0
0701C0
0701E0
0FFFE0
0FFFE0
1E00F0
1C0070
1C0078
380038
380038
38003C
70001C
ENDCHAR
STARTCHAR  1EB1
ENCODING  7857
SWIDTH  1000 0
DWIDTH  17 0
BBX  15 27 1 8
BITMAP
0700
0300
0180
0000
1830
1EF0
0FE0
07C0
0000
0000
0FE0
3FF8
7C78
701C
701C
001C
07FC
3FFC
7E1C
701C
E01C
E01C
E01C
E03C
78FC
7FDC
1F9C
ENDCHAR
STARTCHAR  1EB2
ENCODING  7858
SWIDTH  1000 0
DWIDTH  22 0
BBX  22 29 0 8
BITMAP
007000
001800
002000
030600
01FC00
000000
007000
00F800
00F800
01DC00
01DC00
01DE00
038E00
038E00
030700
070700
070780
0E0380
0E0380
0E01C0
1FFFC0
1FFFE0
1C00E0
3800E0
380070
780070
700078
700038
E00038
ENDCHAR
STARTCHAR  1EB3
ENCODING  7859
SWIDTH  1000 0
DWIDTH  17 0
BBX  15 28 1 8
BITMAP
0380
00C0
00C0
0180
0100
1830
1EF0
0FE0
07C0
0000
0000
0FE0
3FF8
7C78
701C
701C
001C
07FC
3FFC
7E1C
701C
E01C
E01C
E01C
E03C
78FC
7FDC
1F9C
ENDCHAR
STARTCHAR  1EB4
ENCODING  7860
SWIDTH  1000 0
DWIDTH  21 0
BBX  23 29 -1 8
BITMAP
01E300
033E00
000000
018700
01FE00
000000
007800
007800
00FC00
00FC00
00EE00
01CE00
01CE00
018700
038700
038380
070380
070380
0701C0
0E01C0
0FFFE0
1FFFE0
1C00E0
1C0070
380070
380078
380038
70003C
70001C
ENDCHAR
STARTCHAR  1EB5
ENCODING  7861
SWIDTH  1000 0
DWIDTH  17 0
BBX  15 28 1 8
BITMAP
0F30
1FF0
19F0
0000
0000
1830
1EF0
0FE0
07C0
0000
0000
0FE0
3FF8
7C78
701C
701C
001C
07FC
3FFC
7E1C
701C
E01C
E01C
E01C
E03C
78FC
7FDC
1F9C
ENDCHAR
STARTCHAR  1EB6
ENCODING  7862
SWIDTH  1000 0
DWIDTH  21 0
BBX  23 35 -1 2
BITMAP
018300
018700
01FE00
00FC00
000000
000000
007800
007C00
007C00
00FC00
00EE00
01CE00
01C700
01C700
038700
038380
030380
0701C0
0701C0
0E01C0
0FFFE0
0FFFE0
1C00F0
1C0070
3C0070
380038
380038
78003C
70001C
000000
000000
000000
003800
003800
003800
ENDCHAR
STARTCHAR  1EB7
ENCODING  7863
SWIDTH  1000 0
DWIDTH  17 0
BBX  15 29 1 2
BITMAP
1830
1E70
0FE0
07C0
0000
0000
0FE0
3FF8
3C78
701C
701C
001C
001C
0FFC
3FFC
781C
F01C
E01C
E01C
E03C
78FC
7FDC
1F9C
0000
0000
0000
0380
0380
0380
ENDCHAR
STARTCHAR  1EB8
ENCODING  7864
SWIDTH  1000 0
DWIDTH  22 0
BBX  17 29 3 2
BITMAP
FFFF80
FFFF80
E00000
E00000
E00000
E00000
E00000
E00000
E00000
E00000
FFFF00
FFFF00
E00000
E00000
E00000
E00000
E00000
E00000
E00000
E00000
E00000
FFFF80
FFFF80
000000
000000
000000
01C000
01C000
01C000
ENDCHAR
STARTCHAR  1EB9
ENCODING  7865
SWIDTH  1000 0
DWIDTH  18 0
BBX  16 23 1 2
BITMAP
07E0
1FF8
3E7C
781C
701E
E00E
E00E
FFFE
FFFE
E000
E000
E000
700E
781E
3E7C
1FF8
07E0
0000
0000
0000
01C0
01C0
01C0
ENDCHAR
STARTCHAR  1EBA
ENCODING  7866
SWIDTH  1000 0
DWIDTH  22 0
BBX  17 29 3 8
BITMAP
03C000
026000
006000
00C000
008000
000000
FFFF80
FFFF80
E00000
E00000
E00000
E00000
E00000
E00000
E00000
E00000
FFFF00
FFFF00
E00000
E00000
E00000
E00000
E00000
E00000
E00000
E00000
E00000
FFFF80
FFFF80
ENDCHAR
STARTCHAR  1EBB
ENCODING  7867
SWIDTH  1000 0
DWIDTH  18 0
BBX  16 23 1 8
BITMAP
0780
00C0
01C0
0100
0000
0000
07E0
1FF8
3C7C
781C
700E
E00E
E00E
FFFE
FFFF
E000
E000
E000
700E
781E
3E7C
1FF8
07E0
ENDCHAR
STARTCHAR  1EBC
ENCODING  7868
SWIDTH  1000 0
DWIDTH  22 0
BBX  17 29 3 8
BITMAP
000000
0F9800
1FF800
18F000
000000
000000
FFFF80
FFFF80
E00000
E00000
E00000
E00000
E00000
E00000
E00000
E00000
FFFF00
FFFF00
E00000
E00000
E00000
E00000
E00000
E00000
E00000
E00000
E00000
FFFF80
FFFF80
ENDCHAR
STARTCHAR  1EBD
ENCODING  7869
SWIDTH  1000 0
DWIDTH  18 0
BBX  16 23 1 8
BITMAP
0F18
1FF8
1BF0
0000
0000
0000
07E0
1FF8
3C7C
781C
700E
E00E
E00E
FFFE
FFFF
E000
E000
E000
700E
781E
3E7C
1FF8
07E0
ENDCHAR
STARTCHAR  1EBE
ENCODING  7870
SWIDTH  1000 0
DWIDTH  22 0
BBX  18 29 3 8
BITMAP
000000
03E380
076600
0E7000
1E3800
000000
FFFF80
FFFF80
E00000
E00000
E00000
E00000
E00000
E00000
E00000
E00000
FFFF00
FFFF00
E00000
E00000
E00000
E00000
E00000
E00000
E00000
E00000
E00000
FFFF80
FFFF80
ENDCHAR
STARTCHAR  1EBF
ENCODING  7871
SWIDTH  1000 0
DWIDTH  18 0
BBX  17 23 1 8
BITMAP
03C700
07C600
0EE000
1C7000
000000
000000
07E000
1FF800
3C7C00
781C00
700E00
E00E00
E00E00
FFFE00
FFFF00
E00000
E00000
E00000
700E00
781E00
3E7C00
1FF800
07E000
ENDCHAR
STARTCHAR  1EC0
ENCODING  7872
SWIDTH  1000 0
DWIDTH  22 0
BBX  18 29 2 8
BITMAP
000000
71F000
3BB000
073800
0F1C00
000000
7FFFC0
7FFFC0
700000
700000
700000
700000
700000
700000
700000
700000
7FFF80
7FFF80
700000
700000
700000
700000
700000
700000
700000
700000
700000
7FFFC0
7FFFC0
ENDCHAR
STARTCHAR  1EC1
ENCODING  7873
SWIDTH  1000 0
DWIDTH  18 0
BBX  18 23 -1 8
BITMAP
70F000
39F000
03B800
071C00
000000
000000
01F800
07FE00
0F1F00
1E0700
1C0380
380380
380380
3FFF80
3FFFC0
380000
380000
380000
1C0380
1E0780
0F9F00
07FE00
01F800
ENDCHAR
STARTCHAR  1EC2
ENCODING  7874
SWIDTH  1000 0
DWIDTH  22 0
BBX  18 29 3 8
BITMAP
01C780
03E4C0
0770C0
0F3B80
0E3B00
000000
FFFF80
FFFF80
E00000
E00000
E00000
E00000
E00000
E00000
E00000
E00000
FFFF00
FFFF00
E00000
E00000
E00000
E00000
E00000
E00000
E00000
E00000
E00000
FFFF80
FFFF80
ENDCHAR
STARTCHAR  1EC3
ENCODING  7875
SWIDTH  1000 0
DWIDTH  18 0
BBX  16 26 1 8
BITMAP
001E
0013
0003
03CE
07EC
0E70
1C78
0000
0000
07E0
1FF8
3E7C
781E
700E
E00E
E007
FFFF
FFFF
E000
E000
E000
700E
780E
3E3C
1FF8
07E0
ENDCHAR
STARTCHAR  1EC4
ENCODING  7876
SWIDTH  1000 0
DWIDTH  22 0
BBX  17 29 3 8
BITMAP
0F9800
19F800
000000
03E000
0E3800
000000
FFFF80
FFFF80
E00000
E00000
E00000
E00000
E00000
E00000
E00000
E00000
FFFF00
FFFF00
E00000
E00000
E00000
E00000
E00000
E00000
E00000
E00000
E00000
FFFF80
FFFF80
ENDCHAR
STARTCHAR  1EC5
ENCODING  7877
SWIDTH  1000 0
DWIDTH  18 0
BBX  16 28 1 8
BITMAP
0F18
1FF8
3BF0
0000
0000
03C0
07C0
0EE0
1C70
0000
0000
07E0
1FF8
3C7C
781C
700E
E00E
E00E
FFFE
FFFF
E000
E000
E000
700E
781E
3E7C
1FF8
07E0
ENDCHAR
STARTCHAR  1EC6
ENCODING  7878
SWIDTH  1000 0
DWIDTH  22 0
BBX  17 35 3 2
BITMAP
03C000
03E000
077000
0E3800
1E3800
000000
FFFF80
FFFF80
E00000
E00000
E00000
E00000
E00000
E00000
E00000
E00000
FFFF00
FFFF00
E00000
E00000
E00000
E00000
E00000
E00000
E00000
E00000
E00000
FFFF80
FFFF80
000000
000000
000000
01C000
01C000
01C000
ENDCHAR
STARTCHAR  1EC7
ENCODING  7879
SWIDTH  1000 0
DWIDTH  18 0
BBX  16 29 1 2
BITMAP
03C0
07E0
0E60
1E70
0000
0000
07E0
1FF8
3E7C
781C
701E
E00E
E00E
FFFE
FFFE
E000
E000
E000
700E
781E
3E7C
1FF8
07E0
0000
0000
0000
01C0
01C0
01C0
ENDCHAR
STARTCHAR  1EC8
ENCODING  7880
SWIDTH  1000 0
DWIDTH  9 0
BBX  5 29 2 8
BITMAP
F0
98
18
30
20
00
70
70
70
70
70
70
70
70
70
70
70
70
70
70
70
70
70
70
70
70
70
70
70
ENDCHAR
STARTCHAR  1EC9
ENCODING  7881
SWIDTH  1000 0
DWIDTH  8 0
BBX  5 23 2 8
BITMAP
F0
18
38
20
00
00
70
70
70
70
70
70
70
70
70
70
70
70
70
70
70
70
70
ENDCHAR
STARTCHAR  1ECA
ENCODING  7882
SWIDTH  1000 0
DWIDTH  9 0
BBX  4 29 3 2
BITMAP
E0
E0
E0
E0
E0
E0
E0
E0
E0
E0
E0
E0
E0
E0
E0
E0
E0
E0
E0
E0
E0
E0
E0
00
00
00
E0
E0
E0
ENDCHAR
STARTCHAR  1ECB
ENCODING  7883
SWIDTH  1000 0
DWIDTH  7 0
BBX  4 29 2 2
BITMAP
E0
E0
E0
00
00
00
E0
E0
E0
E0
E0
E0
E0
E0
E0
E0
E0
E0
E0
E0
E0
E0
E0
00
00
00
E0
E0
E0
ENDCHAR
STARTCHAR  1ECC
ENCODING  7884
SWIDTH  1000 0
DWIDTH  24 0
BBX  22 29 1 2
BITMAP
01FC00
07FF80
0F87C0
1E01E0
3C0070
780078
700038
700038
E0001C
E0001C
E0001C
E0001C
E0001C
E0001C
E0001C
700038
700038
780078
380070
1E01E0
0F87C0
07FF80
01FE00
000000
000000
000000
007000
007000
007000
ENDCHAR
STARTCHAR  1ECD
ENCODING  7885
SWIDTH  1000 0
DWIDTH  18 0
BBX  16 23 1 2
BITMAP
07E0
1FF8
3E7C
781E
700E
E00F
E007
E007
E007
E007
E007
E007
700E
781E
3E7C
1FF8
07E0
0000
0000
0000
0380
0380
0380
ENDCHAR
STARTCHAR  1ECE
ENCODING  7886
SWIDTH  1000 0
DWIDTH  24 0
BBX  22 29 1 8
BITMAP
007800
000C00
003C00
003000
000000
000000
01FC00
07FF80
0F87C0
1E01E0
3C0070
780078
700038
700038
E0001C
E0001C
E0001C
E0001C
E0001C
E0001C
E0001C
700038
700038
780078
380070
1E01E0
0F87C0
07FF80
01FE00
ENDCHAR
STARTCHAR  1ECF
ENCODING  7887
SWIDTH  1000 0
DWIDTH  18 0
BBX  16 23 1 8
BITMAP
0380
00C0
01C0
0100
0000
0000
07E0
1FF8
3E7C
781E
700E
E00F
E007
E007
E007
E007
E007
E007
700E
781E
3E7C
1FF8
07E0
ENDCHAR
STARTCHAR  1ED0
ENCODING  7888
SWIDTH  1000 0
DWIDTH  24 0
BBX  22 29 1 8
BITMAP
007870
00FCE0
01CC00
01CE00
000000
000000
01FC00
07FF80
0F87C0
1E01E0
3C0070
780078
700038
700038
E0001C
E0001C
E0001C
E0001C
E0001C
E0001C
E0001C
700038
700038
780078
380070
1E01E0
0F87C0
07FF80
01FE00
ENDCHAR
STARTCHAR  1ED1
ENCODING  7889
SWIDTH  1000 0
DWIDTH  18 0
BBX  18 23 1 8
BITMAP
03C380
07E700
0E7000
1C3800
000000
000000
07E000
1FF800
3E7C00
781E00
700E00
E00F00
E00700
E00700
E00700
E00700
E00700
E00700
700E00
781E00
3E7C00
1FF800
07E000
ENDCHAR
STARTCHAR  1ED2
ENCODING  7890
SWIDTH  1000 0
DWIDTH  24 0
BBX  22 29 1 8
BITMAP
387800
1CFC00
01CC00
01CE00
000000
000000
01FC00
07FF80
0F87C0
1E01E0
3C0070
780078
700038
700038
E0001C
E0001C
E0001C
E0001C
E0001C
E0001C
E0001C
700038
700038
780078
380070
1E01E0
0F87C0
07FF80
01FE00
ENDCHAR
STARTCHAR  1ED3
ENCODING  7891
SWIDTH  1000 0
DWIDTH  18 0
BBX  18 23 -1 8
BITMAP
70F000
39F800
039C00
070E00
000000
000000
01F800
07FE00
0F9F00
1E0780
1C0380
3803C0
3801C0
3801C0
3801C0
3801C0
3801C0
3801C0
1C0380
1E0780
0F9F00
07FE00
01F800
ENDCHAR
STARTCHAR  1ED4
ENCODING  7892
SWIDTH  1000 0
DWIDTH  24 0
BBX  22 29 1 8
BITMAP
0079E0
00FC30
01CC70
038E40
000000
000000
01FC00
07FF80
0F87C0
1E01E0
3C0070
780078
700038
700038
E0001C
E0001C
E0001C
E0001C
E0001C
E0001C
E0001C
700038
700038
780078
380070
1E01E0
0F87C0
07FF80
01FE00
ENDCHAR
STARTCHAR  1ED5
ENCODING  7893
SWIDTH  1000 0
DWIDTH  18 0
BBX  16 26 1 8
BITMAP
001E
0013
0003
03C7
07E4
0E70
1C38
0000
0000
07E0
1FF8
3E7C
781E
700E
E00F
E007
E007
E007
E007
E007
E007
700E
781E
3E7C
1FF8
07E0
ENDCHAR
STARTCHAR  1ED6
ENCODING  7894
SWIDTH  1000 0
DWIDTH  24 0
BBX  22 29 1 8
BITMAP
01E300
033F00
000000
007800
01CE00
000000
01FC00
07FF80
0F87C0
1E01E0
3C0070
780078
700038
700038
E0001C
E0001C
E0001C
E0001C
E0001C
E0001C
E0001C
700038
700038
780078
380070
1E01E0
0F87C0
07FF80
01FE00
ENDCHAR
STARTCHAR  1ED7
ENCODING  7895
SWIDTH  1000 0
DWIDTH  18 0
BBX  16 28 1 8
BITMAP
0F18
1FF8
19F0
0000
0000
03C0
07E0
0E70
1E78
0000
0000
07E0
1FF8
3E7C
781E
700E
E00F
E007
E007
E007
E007
E007
E007
700E
781E
3E7C
1FF8
07E0
ENDCHAR
STARTCHAR  1ED8
ENCODING  7896
SWIDTH  1000 0
DWIDTH  24 0
BBX  22 35 1 2
BITMAP
007000
00F800
01DC00
038E00
038F00
000000
01FC00
07FF80
0F87C0
1E01E0
3C0070
780078
700038
700038
E0001C
E0001C
E0001C
E0001C
E0001C
E0001C
E0001C
700038
700038
780078
380070
1E01E0
0F87C0
07FF80
01FE00
000000
000000
000000
007000
007000
007000
ENDCHAR
STARTCHAR  1ED9
ENCODING  7897
SWIDTH  1000 0
DWIDTH  18 0
BBX  16 29 1 2
BITMAP
03C0
07E0
0EF0
1C78
0000
0000
07E0
1FF8
3E7C
781E
700E
E00F
E007
E007
E007
E007
E007
E007
700E
781E
3E7C
1FF8
07E0
0000
0000
0000
0380
0380
0380
ENDCHAR
STARTCHAR  1EDA
ENCODING  7898
SWIDTH  1000 0
DWIDTH  24 0
BBX  22 29 1 8
BITMAP
001E00
001C00
00381C
00301C
00701C
00000C
01FE0C
07FFCC
0FFFFC
1E01F8
3C00F0
780070
700038
700038
E0001C
E0001C
E0001C
E0001C
E0001C
E0001C
E0001C
700038
700038
780078
380070
1E01E0
0F87C0
07FF80
01FE00
ENDCHAR
STARTCHAR  1EDB
ENCODING  7899
SWIDTH  1000 0
DWIDTH  17 0
BBX  16 23 1 8
BITMAP
00E0
01C0
018E
030E
000E
0006
07C6
1FFE
3EF8
783C
701C
E00E
E00E
E00E
E00E
E00E
E00E
E00E
701C
783C
3EF8
1FF0
07C0
ENDCHAR
ENDFONT
